<mxfile host="app.diagrams.net" modified="2022-10-03T14:26:12.070Z" agent="5.0 (Windows NT 10.0; Win64; x64) AppleWebKit/537.36 (KHTML, like Gecko) Chrome/106.0.0.0 Safari/537.36" etag="A3_pyap0Ol6daDJPAs7W" version="20.3.7" type="github">
  <diagram id="aYbhYrHIslW5AT8P28n0" name="Page-1">
    <mxGraphModel dx="1730" dy="855" grid="0" gridSize="10" guides="1" tooltips="1" connect="1" arrows="1" fold="1" page="1" pageScale="1" pageWidth="1100" pageHeight="850" math="0" shadow="0">
      <root>
        <mxCell id="0" />
        <mxCell id="1" style="locked=1;" parent="0" />
        <mxCell id="TLr3A2g5SAvAyeFMiobW-6" value="" style="strokeWidth=1;shadow=0;dashed=0;align=center;html=1;shape=mxgraph.mockup.containers.browserWindow;rSize=0;strokeColor=#666666;strokeColor2=#008cff;strokeColor3=#c4c4c4;mainText=,;recursiveResize=0;" vertex="1" parent="1">
          <mxGeometry x="1" width="1098" height="849" as="geometry" />
        </mxCell>
        <mxCell id="TLr3A2g5SAvAyeFMiobW-7" value="Learn ASL" style="strokeWidth=1;shadow=0;dashed=0;align=center;html=1;shape=mxgraph.mockup.containers.anchor;fontSize=17;fontColor=#666666;align=left;" vertex="1" parent="TLr3A2g5SAvAyeFMiobW-6">
          <mxGeometry x="60" y="12" width="110" height="26" as="geometry" />
        </mxCell>
        <mxCell id="TLr3A2g5SAvAyeFMiobW-8" value="https://www.learnASL.com" style="strokeWidth=1;shadow=0;dashed=0;align=center;html=1;shape=mxgraph.mockup.containers.anchor;rSize=0;fontSize=17;fontColor=#666666;align=left;" vertex="1" parent="TLr3A2g5SAvAyeFMiobW-6">
          <mxGeometry x="130" y="60" width="250" height="26" as="geometry" />
        </mxCell>
        <mxCell id="TLr3A2g5SAvAyeFMiobW-15" value="Buttons" style="" parent="0" visible="0" />
        <UserObject label="1 month trial" placeholders="1" name="Variable" id="TLr3A2g5SAvAyeFMiobW-34">
          <mxCell style="text;html=1;strokeColor=none;fillColor=none;align=center;verticalAlign=middle;whiteSpace=wrap;overflow=hidden;fontFamily=Lucida Console;" vertex="1" parent="TLr3A2g5SAvAyeFMiobW-15">
            <mxGeometry x="157" y="326" width="136" height="20" as="geometry" />
          </mxCell>
        </UserObject>
        <UserObject label="&lt;font face=&quot;Courier New&quot;&gt;Already registered?&lt;/font&gt;" placeholders="1" name="Variable" id="TLr3A2g5SAvAyeFMiobW-35">
          <mxCell style="text;html=1;strokeColor=none;fillColor=none;align=center;verticalAlign=middle;whiteSpace=wrap;overflow=hidden;" vertex="1" parent="TLr3A2g5SAvAyeFMiobW-15">
            <mxGeometry x="141.25" y="475" width="167.5" height="20" as="geometry" />
          </mxCell>
        </UserObject>
        <mxCell id="TLr3A2g5SAvAyeFMiobW-36" value="" style="shape=image;verticalLabelPosition=bottom;labelBackgroundColor=default;verticalAlign=top;aspect=fixed;imageAspect=0;image=data:image/jpeg,/9j/4AAQSkZJRgABAQEBLAEsAAD/4QDNRXhpZgAASUkqAAgAAAABAA4BAgCrAAAAGgAAAAAAAABWZWN0b3Igd29tYW4gc2hvd2luZyBoZWxsbyBkZWFmLW11dGUgc2lnbiBsYW5ndWFnZSBzeW1ib2wuIFNtaWxpbmcgc2tldGNoIGZlbWFsZSBjaGFyYWN0ZXIgYW5kIGhhbmQgY29tbXVuaWNhdGlvbiBncmVldGluZyBzaWduLiBEaWZmZXJlbnQgc29jaWFsIGNvbW11bmljYXRpb24sIGJhc2ljIHdvcmT/4QXNaHR0cDovL25zLmFkb2JlLmNvbS94YXAvMS4wLwA8P3hwYWNrZXQgYmVnaW49Iu+7vyIgaWQ9Ilc1TTBNcENlaGlIenJlU3pOVGN6a2M5ZCI/Pgo8eDp4bXBtZXRhIHhtbG5zOng9ImFkb2JlOm5zOm1ldGEvIj4KCTxyZGY6UkRGIHhtbG5zOnJkZj0iaHR0cDovL3d3dy53My5vcmcvMTk5OS8wMi8yMi1yZGYtc3ludGF4LW5zIyI+CgkJPHJkZjpEZXNjcmlwdGlvbiByZGY6YWJvdXQ9IiIgeG1sbnM6cGhvdG9zaG9wPSJodHRwOi8vbnMuYWRvYmUuY29tL3Bob3Rvc2hvcC8xLjAvIiB4bWxuczpJcHRjNHhtcENvcmU9Imh0dHA6Ly9pcHRjLm9yZy9zdGQvSXB0YzR4bXBDb3JlLzEuMC94bWxucy8iICAgeG1sbnM6R2V0dHlJbWFnZXNHSUZUPSJodHRwOi8veG1wLmdldHR5aW1hZ2VzLmNvbS9naWZ0LzEuMC8iIHhtbG5zOmRjPSJodHRwOi8vcHVybC5vcmcvZGMvZWxlbWVudHMvMS4xLyIgeG1sbnM6cGx1cz0iaHR0cDovL25zLnVzZXBsdXMub3JnL2xkZi94bXAvMS4wLyIgIHhtbG5zOmlwdGNFeHQ9Imh0dHA6Ly9pcHRjLm9yZy9zdGQvSXB0YzR4bXBFeHQvMjAwOC0wMi0yOS8iIHhtbG5zOnhtcFJpZ2h0cz0iaHR0cDovL25zLmFkb2JlLmNvbS94YXAvMS4wL3JpZ2h0cy8iIHBob3Rvc2hvcDpDcmVkaXQ9IkdldHR5IEltYWdlcy9pU3RvY2twaG90byIgR2V0dHlJbWFnZXNHSUZUOkFzc2V0SUQ9IjExNDg3Mzg0OTciIHhtcFJpZ2h0czpXZWJTdGF0ZW1lbnQ9Imh0dHBzOi8vd3d3LmlzdG9ja3Bob3RvLmNvbS9sZWdhbC9saWNlbnNlLWFncmVlbWVudD91dG1fbWVkaXVtPW9yZ2FuaWMmYW1wO3V0bV9zb3VyY2U9Z29vZ2xlJmFtcDt1dG1fY2FtcGFpZ249aXB0Y3VybCIgPgo8ZGM6Y3JlYXRvcj48cmRmOlNlcT48cmRmOmxpPnNhYmVsc2theWE8L3JkZjpsaT48L3JkZjpTZXE+PC9kYzpjcmVhdG9yPjxkYzpkZXNjcmlwdGlvbj48cmRmOkFsdD48cmRmOmxpIHhtbDpsYW5nPSJ4LWRlZmF1bHQiPlZlY3RvciB3b21hbiBzaG93aW5nIGhlbGxvIGRlYWYtbXV0ZSBzaWduIGxhbmd1YWdlIHN5bWJvbC4gU21pbGluZyBza2V0Y2ggZmVtYWxlIGNoYXJhY3RlciBhbmQgaGFuZCBjb21tdW5pY2F0aW9uIGdyZWV0aW5nIHNpZ24uIERpZmZlcmVudCBzb2NpYWwgY29tbXVuaWNhdGlvbiwgYmFzaWMgd29yZDwvcmRmOmxpPjwvcmRmOkFsdD48L2RjOmRlc2NyaXB0aW9uPgo8cGx1czpMaWNlbnNvcj48cmRmOlNlcT48cmRmOmxpIHJkZjpwYXJzZVR5cGU9J1Jlc291cmNlJz48cGx1czpMaWNlbnNvclVSTD5odHRwczovL3d3dy5pc3RvY2twaG90by5jb20vcGhvdG8vbGljZW5zZS1nbTExNDg3Mzg0OTctP3V0bV9tZWRpdW09b3JnYW5pYyZhbXA7dXRtX3NvdXJjZT1nb29nbGUmYW1wO3V0bV9jYW1wYWlnbj1pcHRjdXJsPC9wbHVzOkxpY2Vuc29yVVJMPjwvcmRmOmxpPjwvcmRmOlNlcT48L3BsdXM6TGljZW5zb3I+CgkJPC9yZGY6RGVzY3JpcHRpb24+Cgk8L3JkZjpSREY+CjwveDp4bXBtZXRhPgo8P3hwYWNrZXQgZW5kPSJ3Ij8+Cv/tAPhQaG90b3Nob3AgMy4wADhCSU0EBAAAAAAA3BwCUAAKc2FiZWxza2F5YRwCeACrVmVjdG9yIHdvbWFuIHNob3dpbmcgaGVsbG8gZGVhZi1tdXRlIHNpZ24gbGFuZ3VhZ2Ugc3ltYm9sLiBTbWlsaW5nIHNrZXRjaCBmZW1hbGUgY2hhcmFjdGVyIGFuZCBoYW5kIGNvbW11bmljYXRpb24gZ3JlZXRpbmcgc2lnbi4gRGlmZmVyZW50IHNvY2lhbCBjb21tdW5pY2F0aW9uLCBiYXNpYyB3b3JkHAJuABhHZXR0eSBJbWFnZXMvaVN0b2NrcGhvdG//2wBDAAoHBwgHBgoICAgLCgoLDhgQDg0NDh0VFhEYIx8lJCIfIiEmKzcvJik0KSEiMEExNDk7Pj4+JS5ESUM8SDc9Pjv/2wBDAQoLCw4NDhwQEBw7KCIoOzs7Ozs7Ozs7Ozs7Ozs7Ozs7Ozs7Ozs7Ozs7Ozs7Ozs7Ozs7Ozs7Ozs7Ozs7Ozs7Ozv/wgARCAJkAmQDAREAAhEBAxEB/8QAGgABAAIDAQAAAAAAAAAAAAAAAAQFAQIDBv/EABgBAQEBAQEAAAAAAAAAAAAAAAABAgME/9oADAMBAAIQAxAAAAH2YAAAAAAAAAAAAAAAAAAAAAAAAAAAAAAAAAAAAAAAAAAAAAAAAAAAAAAAAAAAAAAAAAAAAAAAAAAAAAAAAAAAAAAAAAAAAAAAAAAAAAAAAAAAAAAAAAAAAAAAAAAAAAAAAAAAAAAAAAAAAAAAAAAAAAAAAAAAAAAAAAAAAAAAAAAAAAAAAAAAAAAAAAAAAAAAAAAAAAAAAAAAAAAAAAAAAAAAAAAAAAAAAAAAAAAAAAAAAAAAAAAAAAAAAAAAAAAAAAAAAAAAAAAAAAAAAAAAAAAAAAAAAAAAAABzNzIMFccC3NgAAAAAAAAAAAAAAAAAAAAAAAAAAAAAAARClXYykVrmuUns2h55rs1vUeYtEimS8OoAAAAAAAAAAAAAAAAAAAAAAAAAAAABWlA3YXQAA0TYyoA5ydLcJEmPWoAAAAAAAAAAAAAAAAAAAAAAAAAAAAIx5tuZdAAAADlJxJdoAiTMxi1JYAAAAAAAAAAAAAAAAAAAAAAAAAAKU4trcKAABAmZlu6gcZO1oA1SNGiWrF0AAAAAAAAAAAAAAAAAAAAAAAAACjITpItA0TdQANE3UAAAAAV0x7FnIAAAAAAAAAAAAAAAAAAAAAAAAB5BqddgaJBksboAAAAAR5O1bKAI0mzn6cyAAAAAAAAAAAAAAAAAAAAAAAAanj27G6AAAAAAAA4Sakm0ADlJIc74AAAAAAAAAAAAAAAAAAAAAAAApSE6drQAABwkhpZ3QHPM6aoAAAAESY9YyAAAAAAAAAAAAAAAAAAAAAAAKMrW5t0AAAAAAOHOabSrQAAABBmfXsAAAAAAAAAAAAAAAAAAAAAAAV5Rty7oADjJzJVoAAEGZuOW6bpifrQAAAA7SXbmAAAAAAAAAAAAAAAAAAAAAABQGt6gAAAACDM6xmJ+dWudVWswumZC7UK6TcsboAZSROdwAAAAAAAAAAAAAAAAAAAAAACkI16brhOESLQIEzIWOmxyLrlubKABGso9YmbvS0AAAQJj1jPQAAAAAAAAAAAAAAAAAAAAAA5nkmp11ssOZmXQhzMRLLGrjG41lZc9Vs83so1KbWN1kRWazvuy7QAAOck5ztwAAAAAAAAAAAAAAAAAAAAAAUJBdJdoA0k1Z75WPPrsAAAADmec687LWgAAOMlk52oAAAAAAAAAAAAAAABTFsbgAAAAHmV63oBiTRmfkNU5zVhjpCsrrm+zsAU2sd5bKaHFPL9ec66l2gAQJj1zOwAAAAAAAAAAAAAAAKoqcdIlz6DWbYAAAAHml6XoBjOJcnZcG5FzqbnY0NwAcE6rsYINzVdMz9aEGZnXQ1TpOd+AAAAAAAAAAAAAAAAedxuPL2XbWPRayAAAAOB5dqdd85LDOdzim69zljp3lAAAAEKzgkPrJdo5ydLQOE5+oQAAAAAAAAAAAAAAAUkVM13zrqbHounPIAAAAPKNSrvbOLKOJyTqsepvPrtAAr7mNZc52AKrWYHTM+6AAAhzHrWQAAAAAAAAAAAAAAB53OuedanRZcsnrxsAAAADB45ucXGZyJksWzcp9Wy577ZoAAAApd469KBhMqBzk5sepQAAAAAAAAAAAAAAAedzrGd4JEdFhb5+l1kAAAAQFiSyYEdLBeZUa1Hy9Bz2MHnt4kyjRLzOxg8725zroYSrktboCpnP2SdQAAAAAAAAAAAAAAAecjfn1hWXOdSFqdZu+nLuAAAAV51zrtLU3NksY41G1uvmfRcem5g5pU7WE3Xud3nQptYz1bqAABHnP1KAAAAAAAAAAAAAAAAVRjl2kywLnhUiNenK5ry5OBkyDBaEKLHO41kcsZRT6nPW9U4c19jYHJINlnNDilF2xOugAAIExfM2QAAAAAAAAAAAAAAABoee59K6y1zq0mhT75+h3ivLIyAACqlsM6iWS5RyspNXpdYSPHfnbfOgAOSUPTE7ehXTNhblQOElm52oAAAAAAAAAAAAAAAAB5vHSXnVPrFtnU+aq9Zv+nLIAABgppbXOgOdlNpm70TlG5K5WNZ3lly6VAuQrp0owgyuqRZmUnoU2AAAAAAAAAAAAAAAAAPO51bc+tNrFznYq7m/68sgAAEE3zrtKI1kbWY96aqBxkmcrPmtCJZkly7FHvHfpQBhK6Z9gzuAAAAAAAAAAAAAAAAAAVhy5dpEvQFLvn6beAAABVS2GdAV+s2lnlWpV2Bykl8rPmgABS7x16UCXM9WJZ2AAAAAAAAAAAAAAAAAAAPNZttz7bgp98/SbwAABxGdZlGCFvFmVJAXdIrRbvjvqoAAqtZ36Yq1ls+mTIAAAAAAAAAAAAAAAAAAABqU/PpOzsVGseg6c9wAAVcT87Ah2S9Z7AAweezq259QAANCF143VmwAAAAAAAAAAAAAAAAAAAAAPPy2nLsOCa9uNqAAcyBnU6UCv1m1sAHM87LacuvZQAABEshb5WupOMgAAAAAAAAAAAAAAAAAAAApyRx79AVXXj6GwACsibneQCDrFnQilTLAm7LFsZoAAAACDcxNZ6XNhqWIAAAAAAAAAAAAAAAAAAAOBUcutlNCo1i/6c+gBoV2bPmgBC3iORM9Os6WE1kgXMWYt83qoAAAAAi2Q9c7feZYAAAAAAAAAAAAAAAAAAB57n0tc7Gpt14zLAKyJud5AONkWdOk6bAAGCsuNJnsWGddAAAAACt1J3TjYAAAAAAAAAAAAAAAAAAAoMbs8dAKbfP0m8ZMFXm2E0AIFm+fRsAAAAcyvuOaJAMoUAbraOgq7zvd8ewAAAAAAAAAAAAAAAAABRZ1Y8+oHJIfXje1BOmddZQBWVJz3AAAAAAAAArLjkWU12UYK3fn9FcgAAAAAAAAAAAAAAAAAUcT+XfIBVaxb9OcaJ2dgAVV1Lz1AAAAAAAAAAAAp7z9LvjsAAAAAAAAAAAAAAAAACEQuXadKAKXpy9AZlAGqVbrMmwAAAAAAAAAAAIqdunmswAAAAAAAAAAAAAAAAAYPOY3cY6ACOkbpzuJQBEs0z36KAAAAAAAAAAAAIG/NfWAAAAAAAAAAAAAAAAAAUEtny7AAU2sXtzuoHB00mwAAAAAAAAAAAAK7fD0FwAAAAAAAAAAAAAAAAABAOHLtKlAGhXdOV3LgirrO24AAAAAAAAAAAABWa4+i1zAAAAAAAAAAAAAAAAAAFBjdnjoABTaxdTWJdSn2t5sCBcy5roAAAAAAAAAACquPRb4bAAAAAAAAAAAAAAAAAAFTHXl26qAOCc6lyil1m3dQKi4t5sAAAAAAAADBkAjpv081oAAAAAAAAAAAAAAAAAAYPN43c46AAACm1m1dcgqri1mwAAAAAAAAKi4tpvIBXb83oLAAAAAAAAAAAAAAAAAABWkXl1sJoAACo1mwdehgq7i1mwAAAAAAAAKu4sJvoanFK/XL02ueQAAAAAAAAAAAAAAAAAAUkZ59Z00AItlbZB1PS57UGuU241z0tp0AAAAAAAAArrmVLySJZuR9cvVXOQAAAAAAAAAAAAAAAAAACniHjp2l46m1xpqdcd7Cbqbzs98bM81ntbZ6AAAAAAAAAQbmvYkS5SRG3XldAAAAAAAAAAAAAAAAAAAAGhxJBkEAgloSQeaz0ts9gAAAAAAAAIyc5zsJoCq68fQ2AAAAAAAAAAAAAAAAAAAAAAAAAebmrXHoAAAAAAAAA1K5yts6AqenL0WsgAAAAAAAAAAAAAAAAAAAAAAAAeeLHn6sgAAAAAAAAFU5XGdAU++fpN4AAAAAAAAAAAAAAAAAAAAAAAAAqjTn6ZKgAAAAAAAAVLlc50BS6x6Ppz3AAAAAAAAAAAAAAAAAAAAAAAABFKnHosZoAAAAAAAACpcrnOgIFzM68p4AAAAAAAAAAAAAAAAAAAAAAAAOZ5/He1mwAAAAAAANk3uIt5z5RmzmY1mSAAAAAAAAAAAAAAAAAAAAAAAADBpKUYXEFBMihkJkJkzZkAAAAAAAAAAAAAAAAAAAAAAAAAAAAAAAAAAAAAAAAAAAAAAAAAAAAAAAAAAAAAAAAAAAAAAAAAAAAAAAAAAAAAAAAAAAAAAAAAAAAAAAAAAAAAAAAAAAAAAAAAAAAAAAAAAAAAAAAAAAAAAAAAAAAAAAAAAAAAAAAAAAAAAAAAAAAAAAAAAAAAAAAEUkkUwcjuSSMSTQgE46gAAAAAAAAAAAAAAAAAAAAAAAAAAAAAAAFIXBSAuSnLwpS4KYtCqL0AAAAAAAAAAAAAAAAAAAAAAAAAAAAAAAApDoRjJOIZeFKXBSF6URfAAAAAAAAAAAAAAAAAAAAAAAAAAAAAAAAFIXBSAviiLwpS4KQvSiL4AAAAAAAAAAAAAAAAAAAAAAAAAAAAAAAAqSzKo1OpqZNTJ2IxJLEAAAAAAAAAAAAAAAAAAAAAAAAAAAAAAAAAAAAAAAAAAAAAAAAAAAAAAAAAAAAAAAAAAAAAAAAAAAAAAAAAAAAAAAAAAAAAAAAAAAAAAAAAAAAAAAAAAAAAAAAAAAAAAAAAAAAAAAAAAAAAAAAAAAAAAAAAAAAAAAAAAAAAAAAAAAAAAAAAAAAAAAAAAAAAAAAAAAAAAAAAAAAAAAAAAAAAAAAAAAAAAAAAAAAAAAAAAAAAAAAAAAAAAAAAAAAAAAAAAAAAAAAAAAAAAAAAAAAAAAAAAAAAAAAAAAAAAAAAAAAAAAAAAAAAAAAAAAAAAAAA//8QAMRAAAgIABAQEBgICAwEAAAAAAgMBBAAFEhMQESBQFCIjMCExMjM0QBUkQWA1RZCA/9oACAEBAAEFAv8AxF1hE9DL9ZUjmlYiiecf6A+yqsM5jYPEZhZHE5oc4LxVjHg04hLFYTmMiTrSkqM33MAoF4IBOFPOhM5pU0zm3PA5sPNbAaHe7lwaoLSRn1EAnHL4dG2EcJiJhU+Cs96ezbWtM6/aYcLDxSZ6bQ6q4ZsjQm0mx3ezmELJbrGj2PGKwBaw47S+fQUahrrlaWVYmaNsmz3TMLJBCUikeJEIR06BmfcYWxe7oM717iYwYjTHn7m8O9qiZ6HphwVLpInuUzyil9r9FiQbhaFq6mLFg5a0o7lmVnaSkNtXsNIxHk95cVHuP9vntXu4W7+2SkTBe9l/mbXaTQ9qzE9wuv8AD1kJ2h6Wwcgrf59dl2gaqdiuuNq17Svu9vzP5+4yzpP+8WNq+WK1GEli5XJmF2QLBNAIEoMTjUMPYnAua0+mlbJxduzUJmqJahxM8oU4Whx8TpbL1RjxisRbTOJeT5rVhrh0trpdi3TBEAQmPsP5pYBQYdtMYMF86zucTOCqpIuDLK1EcnawihX5CIjDlp0Adoo0ZhhW5t8C56fD23T/AB0YQp6yu1AStC9A9bI1LystVHt2bbexXTtD0TPLEycSQHXiCgvbMIYCymsfW4tCstDRR7CWZoB2qJj27fqZlxmeUSLNusrlCvVcz13CEKtYsuYkK+YNcXRZvzXZVtlYng1IOGFsF6ofBdOibtqIiI7BYvAhmXxDlKqbpZfYJyfavejc4rDecfrWLJ6Ffj1q69C1ed3AAFcdDULfAjADiefKmti0o81jgL+T+BfAcoiPC9hR/wAjR8tuPJmoehmvtNUDlq1Ifg55CqPD1qwcl/etM9Ww89CUjoV7VydNTe2MvrBtp4EAn0Ui8Pc7BdtNBlZ5lmUennFryXb/AJPcOd3MsJDda5W7DjYvFdiwTVHy2y1GP09D22FnvW3l0ZjP9Ya3x62fC12D/uLcQFy95LOZR6FoN6pRdvVPap/bLnhYQlcWlSWGV1swoJWPPWxRRI+1Zncucfn0CwTiqPibnYH+TNsyj+vfjcpNjxFGoUlVRPgr/tNQPKqGorUTKBWpifUrYAxYLz21BHIVTozLhM6YXcskXjm48ZYnHjbG9wmYGK8ywuE/GEkaJ41qxWLC1goOwZp5G3XCK11bLVIQFdeMyGPCpPcT7Nw9KVBoXg+ddolqDY0tucLXMcAUGGJjnGjStdolmblrCoJPdwzBs6QGADrpf8p2HMU71SsyHImYjDL1dePGOLEQVqvlziwZisCzcpseIvsxt5mePB3Jx/Htx/HFjwD4wgWAqx5rWHN24GuRFwsTqsYmIIaTdlnFigaI5fWEuDmilaRIz695jzp1PDD2Eo5jl0z4OutdkudOnxd6OYkImM5fVmesvjfxtTNngw4WA8+Hzw5MOGvamC6WNBQee2fBzJVZiYmOLi0Jy1W1T7HT9N7qiXzbqKrKqIlQYzD7HsgyGXeJmICZy8sHz0IXtJYWhehd2tEW6uAvonEPVOCsoHBZhBSuobTtMIbXCYgo+XCZgYCbNjEZc1xRHKOxv9DM8Zh9fDMZ/px8uu0zSta4WHB5mC0J3cFHIuLfs0fw8EAniaVacRTrxiBgYxb/ADuiZiMTzuuEYEey30b9aq/fQawZHBs+Ku+xHq2+LvVb8sQReN4t+zRjlT6rvwtcVI14ZRQ3C1LSPZ3hNGwJCY8DiEZp1sYKo4/KKkauFujFgv4+0WJymOS94G2p0oUO2rqzAfRetgJ8avFcbFh3apiChRKW/hmMeiJah6m+ra42i0oUOhXTJ+NudZDBjTdtFyjtt30r3B4bqMtZuUukygArDOni7z2OgzFYssMvypQpX7FiuFgRs2aeFXa7u2ZoGqmsta+FOdi902Z3GfKOK/Nd4NsJTgsxNuHVLLRqWFsH220kNx4R6cRbuJwm8h/aXBuJy8tVPheiVyBQYcSKAGsMz00/jh2YgJyN2xhdFAY+XB9QHYi06thbQbHuNrJdiPFU8Isrsj2el5C4EMGNfaAeNmdZxHKOLZ0qrzIogYjq+eDohM67qMDmCZkWAfuPr+araiwPZh8macbH9W3HxjE/CK/nLotzyTEch9kgE4LL0Tjw1kMa8wDHjLI4/kZjH8mOP5IcfyEzjxlicbt8sAN2T4WQJRqaLldls+TMeLVw1eXukeFstKFjoX0WPM/9NjrIs/vnhUGK+NIvD2uy5pHJUfGONxRYrvGwl/ms9Mee1+ze5rmJ1R2S2vdqUmblToifAW5iJLomeUV/o/ZshuV8vZuUuy0/RsdD1Q9VB0yPRZLShcaQ/ayzy9mtxs3um3EocJQQ8T+P7lbyZn2W4nfq1m71foMYMMvOQ42H7CRKDH9tnp5j2YI8Pd6bfoWNXPgQwY0JkY43WSqsvnt/rX45JGdQ9lzBcylTIavoeveTVhg1+DPSzPje85frvDcRlzNyl2ZX9S37GZfAOP15l+nmX43+OOXzt2ezXa3iU1LG8HXmcj4QPoxM8oqTDH/p5j+Gv4rxJQMA9bZsF4e72e5UKSrWhsD0NspTjxb7GLVXbTHwgL2lg1H25y+Igf07/wCGj7D1uZiMvCZJ1WpG1YzGY+EdntUdwhuyqZzCtGPGNbjwl1+HZUILRbBnB9ncmpSXVHFL4M/TufGok7uzyzAseCazEUkCvKz1VO0kMFEV0jPGxTTZx/EqwlCkDwDyZp+nYjnXozzp8aHkudzt+nmf6ZRzHLZ/qcV+TOO55tHJfzj9PL/h0WPTzDueZDqo1y1V/wBOn8LXHM/goZ1D3KzGqrQnnT/Tq/m8bw66dItVLuR/by78T9HTONucIqSp2iMaIxojDFQxddOwjucAERoHGgcaBxtxjbjG3GNuMbcY0DjQONA40DjSONMY5R/86NeCcR8YGwBNbZBReNVhtgEzhrwTiPjBmKx8crAMFg/6DmHzH6Efn2/y9sMX/r/xmHzH6b8+eEr0U50v/wBBzD5xYfyrTM3Lnwsre0jv/X/jMPmP03vv4q/mf6DmHzH6Efn2vy8X/r/xmHzH6b33sVfy/wDQbqzZI/SpRxctKYT921i4o2Fu2sW1sZiG2oiwknq3LcDVRKo/8g//xAApEQABAwMEAgICAgMAAAAAAAABAAIRIDFQEBIwQCFRA0ETIkJgYZCg/9oACAEDAQE/Af8AUdCjSFC26gakf0EDoEZuEByTSc0BwzxhEZcDruyraY5ZqOVHTj+ieeg7JAc7UON2RAr88BQEL74zkByyvKgoN0IU0SpzM0SpUqVPpARVCIjiOQB1jWVdBo0K8/S/amCtqEohDMgUkqVblt4zApk0NvoSg6kuhAzrGnmonBtQbyDhbwRQENZwzE26/knX5AdDoKBbjNlPhCs4Jt1/JG6dyNqFZlSTS6yjgdgW3RunXTkbcjUdJoHIb8JwLbpydZXCFk4Rxg6GkIXokqT6Un0pNAothgiVBQEaOt0zSHfRUhDyZ1d64TfBjTcFKv0fvUeqdoo/zwThG2Q83Xgau4hUNSED7rvwHCsRAKIhAaOtxDgGlwvIW4KVIW70o9o3r3KcK2+jtXW6jbawFA1N6icQDNDjwig6Npbas3oJxQMUO6E6Ao8DluUqcY06utyGto4SIxwvqeAUGoCeIiURGRN+M0AErYUDyQFsUHFttq4VCsfGUGDUtleRfmhFuJZQRHE1gjgLAv2C3cpZOIZQ4UCk8mwLaV+yk+luW5blKk+l+yh2r2/eHbflF+oSV+yFDhBxbhwMv2vkGHFqXCK2W7Rth2UnzWLds3wwvU73S0dx98OOGEO58mHaanKNWeqHGAh132xpQ1s6h3rsG2IaeF1H8uo+1Lr4gGeB1qG3PUfaiQV8gxIM0ypJsnNgab0XEr47dR9kLIgrZ7UtanOnFBy3Bb1J0a4HRz/Wvx9R1kC6FLlB+1Ayvx36hsm2oN8o2/Vbah1/6S2h+VFuoLmh2VZbqfZodbKst0twW8Lct63rcVuOVkrcVvK3lbyvyFfkK/IVvK3lbyt5W8rcVuKk/wDJv//EACMRAAEDBAIDAQEBAAAAAAAAAAEAAhEQIDFQMEASIWBBUaD/2gAIAQIBAT8B/wAWJMfGu+NKHxPkF5ImgPw8ombpQPwTq+l6tkLyoD8DnlB3so1OKBEWgIiLBqnKegbXchQ1LkcL8TeoeMZX7qnYX4hhN5jaEbRC9WtzqnIYQTUM9R2eNuqdhNQyv1HKB5De6yAoUKLBqwpFW56Iobz/ACrRrDSFCx0RVwtk2DWOyj6wvZq3iPEReNa5SgZRo3PEeLC9FRSFCn+JutOKCrc9Q5rJUmrdcbGjhNgvOb264ibG9tuvcKt6bjwjXHHGbBcTHEDCB2I6EojkleSkas5q243yprKjmlB2pdYOInglQF48oOodY02HoyvSgKF4rxXivFQoC9VGnONF6tGraeA9oac5tBvPwLvjTc3QjTnTDTuuapqbB2BrjUYsHwDhwts/OoNaRHA3Nh6gtGpIi2FCFIUI9QVmkaotUFeKgUigFT1AvS9KVO1PVObBtD1XZsbj4l1jfiTY3anqGwZ2p6cKF4rxXiFA20KFChQoUKFChQoUKP8AJx//xAA+EAABAgIGCAMHAQcFAQAAAAABAAIDEQQSITFBURATICIwUGFxMkJSIzNAYoGRoXIUJENTYIKxNGNzgJCi/9oACAEBAAY/Av8AxFlWH32ZGJM5NtUiXN7hTH9AziO+i9jRwB8y9pRp/pKkyivn1XtYtRvpYrj91OBGc3oblq6U2ofVgi8mfZb51cL0jFbrQFJwmqrpvgH/AOVOuT0kvZ0Z7lKLBexV2OrDnmcQ+Fq11INZ5/G3JwmFLZ8A+2iRE00j3UQyIy52asq+ARixjWiH8cOsV49l3S1NrVpytsXs3g9Ob6qC3WRPwF7V4n04JrTBGCDhjsTqNn22SM1VfJVoe4/MIwY3vW/nmogQveP/AAFIX4nYm4yG1MtE+LBjYXHmsaKcDVGwWm4rec5wFwPF1ZsKlMT2av2Qo9JsHlfzMnJF3qd8FvhTaLdqq4J1GebWXduZapvvIlkk1uXBmxlZCsNWwbD4UvCL+JAierdPMdTAFeL/AIWtimtEOPHjxczIIl18+HDLRMh45gXDxGwK215vO17MycjrasunAqN8brk1mOKiwszWHDb35hRxhX4tSG0vf0VkEBS3WrWPNeJnoEWF7xn5UnbjsiplwQcLiiAZdVVisJ+YIVIcm4l20+FFkIjfyOXh4vY6aDhjomq12wWRRVyK941WVj2C8UvotXRwST5slIWuxdtb7AeqbFhsm0HeCm02cFlJZey/sg4XET5cWOuKNGif2nNSnaNFarpqmc1VbDqt9TlMtrEZqTQAOiL3wg6XRfu9HbCZ1XvYf2Q1pBfjLSat+C9tHqDJisjxQe6LYkURIcsb0Y0GbbbQCp1y6tnwHDMJvSzl4mPaT3Fba43nZumVVLJONya+vO20Kwz4ZY64rURrPSeA53RM628iMM1rDKtggZ33cRrTdDbPYmtbYBktY7xFOi4Cxq1flbeqrbpaKzIVfPopaiYnKbcNmrqT3nerYJaM8NNWI2aiQ4UUgMzXtHNI6bQgj3bLXlSFw5Dqwx0R+TVGa8XutUWG6I6tCsYi2J7yGZHhsj+R4qnYl5WoQ/Ky9SF7rF1H+VbebSokT6DTJjQ3tsyiNnJBrRIDQZXr2pNYmdpUd+btLocSz06TJF2JdbyKkzvVIh9Zo/7jF8sZv54ZhvEwU6ivtq+E6axvvVY3utXyw02Hg20pxQHDiHomvcd6rYhO82nTvNBlsOg+SJa3kLYFHE4jrUdY2q5zZOC/5GqjP6yUGN6H8SI8XMFXRPytQE5Ca3WTbK9eK28oxDe8psP6lDZ3IIiM/KAZC1LcS7Zq4vcAgYsQvq3cCjEX1+Qvn6LFR4uZkVR43WRTX+h008DKYTHYiw8N0/FWtVUXlSyvUq2i0SOYVUurZJzypTtHDhw/QKx4BINy1v8ADhXdTyGGfWySDx5HTVcYScjLFs1DnlJGH/CjXd+GXMAGJRinsEZIbokvXD/wptKJ+2j9bdJJwRialz4ZuAX+jiKyhu+6ZDfADaxz0zNwUSOfObO2mS1LmEidjhsRIVeqwGZGaDGCQHIaPFycjBqlzniwBBkaJUYPKFUZdorXFpmEx/qbPhSF7rEG6AIdod5UDKU8Cg+GZZhMHXQyM29hQcLjokVUh7tli1NK3XYOwKrOcJI0qIJYMGkUdniif4QaMOBEl6eROle3eCZElbJWmS8dY5NtW5RH/WxFseHUmnUaJ44V3ZF7zJoQ1bPZ5YuXs6KG/qKtiw2dlvU0/QK2mxV/q433W5TYn1QEV9d2ahM+uiy1xuCD4rzW6aQPSNBBuKNFif2HYqvbMKdSfc6S92CNIieJ13QcDV0ZlY+rBEk1ojvEeREZhWXglE0mKdZPwkyXlB6WnTBjDz7pRa4TBwXuRwOzdGsNwFmkuKLjedOThcVqKRuxBjntV3mQQixBKEPA3PSxziahCmLthzuiZm608kpEHJ0wpvbbmEIkMuDwbOqJe4l77XaA/wBDweESLpbE3FTPhFw0GrfJBpvTnZBNdEbePsrPbw/ypOJhnJwVkVn3VsVv3VWjw3RHLW0t1Y4MwCgsHhI0yInpmblODCFT1OQ/aIgqjytUhyRkTyxRVOijz8Ne3S7qRwarfE+xAaZtAWtjW5BEbD/0qHo3mg917oL3TVJoA0Qex2bTJCBC8Pmcg0XDkxl4m2tQdjcVJ7ZjTDo7fCw1n8FzsIdg2GwRde7RHY84zGw/sofbbo7u42JmwIV2mzqqsNoaOUa9gnCf4xkg5pmDpgvAkIlh4E3bL4x8x0CI11SIMVJ9JAHQKbKQ+tmtRGbvYEYojE2JrMhttify3TWshDWdOitDp5STXVNXCGePK5ETBT6LDaW1bdLYgvhumg4Y7bWYMtOwetia3IbQl7qD+TwC03FfskY7zfAcwruWwI3q3TpezMJubd3aLjgjEde/YhQ/rs1nkAdVqqPNsLzPzQYwWDgydYRcclKOzWw/WFuxBPI8sJxYZprsxPTGgYP3m7TYA7uUth59Ilp9pEAUqLBLvmdctZEiV3DyYKoBUc3ycS1kjmF+70lw6OXtoFcZsUg+TsncpezNqZ0s0w6Uy+GbeyD23HYLjgjGde/ZiPzcjDgsMV/Re0i6puTVOrXObtNYbjxc4KrSWVm+tqmxwPF32W5rcOvhek3hTYe4xHKI8L0xNJa64rUQz4MNhsAY2lS2HHogEZACe1aq0ImE75VvNEZvS9SfWhn5gt1wd2PE10A1Io/KtFWI3xN5PGb62h2wylDwndepjRNPjHG7ZlmUBwpOaD3U2gsPyleypR/uXhY9b1EP0W9RogXuYi9zE+yso0QrdobvqrILG9ygXxWAYgDSKVC8TfEMwmxG3Hk0B/qBbsFjrinUWL44d3UaJYusQblsw2fX4QhlHrDAzX8OGgIjqzs9h9FPhdvM5NDi/wAt81PYFIhe8h/kIRG4qEz67T3ZWfFQqQ29jkCMeSxGdEw5WbP+xF/BVaVuzNF3qPxT29FD6Wcmj0fIzGyYZxRgRPeQrPpsu62ID4uPC9D+TQY+Dtx20ylswsf2QcLjsS+Mit9bZ8mczG8Jr8cdktdcU+ivvhmztpMSrWkg8XH4yjv9W7yd8LyxN9u1DpQ/S7SWm4p8B18M7DnNMjgm1r5W/DtiC+G4FAjHkwis8cI1gg9tx2XQ8wmtiiThZpY7CKJbEGF6n/EPZmEzNtnJ3UY+B9rODDieh+x/xs+Enk7ZjwOtYcnsse21pVV9kRviHAIJtnYm9tEyo8QWgukPhHdwm9tEyZIhjw4hQo+B3Xco/aKPZFbh6lk8Xt2d947KVGhSHrcq73mJFcZTUlFmS+btxoVakuqM/lhRQLtYfhHqH+kIaqLUzsU4r3xD1KkJTyahWGrg39+U66CdXFGOaqUthhuzwK95P6L93ozndSvbRxDGTUHQLYjbd7FVHbkQXtKtWoo2892IwV034u0UhmUT4SJ2TKkJhbKwzX8Ni9tSXHo2xOa1gtF6qm9hlyqTgCOqm2Ewf27G+231C9b0SIRlNShsDdMdnqE/hIg+UqHsUmH1nzSC/wBQl8IRmpZE7B+dnNIUX0P+FjMyibFGiZ7vNH9LVDPy/CUkfNsMiDyuQdmOZxR8pTPhKTsRO01CPy8zd2Q7n4K7RFeXTrnYcz1CSbCnOrjzSQaArldwrlcrld/10FadqmtWJzVV015kA6dugVp26KzjIK5yrNM/6CYh2Tu5TfovAPsm9tDEOyY1Vagknsw/oJiHsCiSJG1N7IB0EtGab20MQ7JvbQ76/wBBMQ7J3cpv00N7aGIdk3tod9f6CbVbNBF5bZbag5jZyXuQm1WzsXuQmSbOy1S1ITT5wqur+skXO8R/8hP/xAAtEAACAQIDBwQDAQEBAQAAAAABEQAhMUFRYRAgUHGBofAwkbHBQOHx0WCQgP/aAAgBAQABPyH/AMRS4DORi+4sGAHHHFYgBEBBsR/wNMx2C5lbwCTvLQ6/7SsJMsatKU6mOZgq25jgYbbDdEJ4wrJhNmwr3NBS1jGKNDWJ4QpnAFSZDcYoGZpAwacbwICLiOOIAlCi4SNt8p/IMABAoMNwhhGAhgJ02EIAcDGpWURZ8bKSxK2c1pf6YqGSBlAlTXBHd1CCQUb1OKXBVd6D7cX5PGO5DyqBdKWkJJLNfQABUROKwIkQAx23gEgWbdBI2BQUEwJtHbVUUIMJYuXip1dUQuELqbSQAyUIk3MO8Ws5iPVCQozdPDL8UuE8ntuarZARN1BT1VFbmCbGBLNke6xiiKllKSJTAlwxxIR2wOMSrkP4QsBqscYdNWxJ3iNgHtKp1c8+JAFIwIGAmbIV5+iFNXUOXlRoGp3LXFEN6hVMXvf3iN3BTSSHE4sPXDKPE7RC6GKema4sAcQN9tMwbcRNvUJsxjiACUHoMRKQCOjVzx309h9MlxAHUXV+qPQqgCsC1/svwHmxOZHLDZyzWjKV3TQ0Yq8Oc02SFKpkUDCCqftVcCphmgw3QSCxeOhN0pw8sJrpgrYB7GKNBoRMEZgTbcCXVaREBs9AuF1OrANXlEpjnsiEXeHOO9dM6DC6KlF0gaEdHo4oLrgq7CDhwdGNETLMXlIDgAbgdtjWQm6KcAQWxZz0CDxUlj4lYeYUmiigUKSG6OTFPAxnH6X8QQFjRbtwRTdZwPYMmucJLSVCQ8jAWBQaKYFl6ASuJCu4z3cPB95IQu5UcT3YZABmwEYZYIVJsmFBbGGnp2rFGHlpdsR6ATmEHcu/v4EA8A4t0AQEi47+oWQCGp3BOQF2RK5nTt0Er2My+eesMTlnIOwSxRmkgCxIt0FBnGBoOSWEZh2W1HA4ZiHvNQVwkpGmLeYPwAgGJAQHARhQsitGWQ8DrDDRilBMxgePpiTAuXIy4Y21pnHWdWXNHuQIFpkIzGHlL2F4WABLQLdFQBqGkHQogBs5VUi+QYQYoWVJG0hqK6sxtIl3AFTHM9uBDVxQuXintq9z/so+DPb+S1t4nbv6fxulGBxMwbObG0CQNjfQhsd2mPf5NhPzpSEz2IZ9M4QkHEIayE1XJUOFtQmyA9wxWzyjwEHkBngIROrkH8lVl9H6nOpH51lQOE+UuH6Ys8Zr49lX/wCpljYx1g46YYQ3oWibwhx+dIhrCFfK3QcqNUboCsgL3dZ7Bhnxsmw9DShHSnAb5YfhAiCLaBpnk7wgDuGLiH9yAdUOsPSLRV51w64RKrTEBXAAMpa1qRTZUIg/kAbsBHx4UIAoxB6eWBuZhuAgGCxpuOhgkdIYYDPcBNP/AGP1C44GBacPOsxkK3O8MwkHG0pGDSpp8fXpuVcAJ6xXLRyD1PKDMEIdYzog5uMVxh8TNdLmiMS92X57bRlSAMzDtG2niH/J9ofpADDBXLaYmQGTP8GE2gwsYBlSibhDmpV4G3thwGhso9oeCeC7xd3LEI1lQFTqdhFVOXWMTA7PSPjxGhwrszY2XScBhkJ5Rh9bYDNT6Qq7CxsAYDBCIMALAqU0GzSIfZURvF3BqMBtYStXSLKQL0GGCv7cCMlfbJdQIeeMCsQZkwooBdHDM4apkgG+sUPwNUDw3pMEbAKo/hMMef8AKdgwfqYNRbfcqfeymDXu+4mL3VTTA8fGxeAsZFCgqsG1c2rc9gwmBGEMKNkx03F562ErqTBggAAQCGwvdO6aQu9ABVAuVkBcu/TwLW4EYgGMA1h9kEtEIAIG0ALUBefmEG3vixgYUEZEj0KHYWRpNvDYsM4JYlZ2AgGCCNIMVuMuJjbArb0yDBC+l4dx2gAFDk4BkZVB3K9Wo5wBSXdv1wStvrD4J1ZYjAZ0ittLnZg7AWK7h6WU8DXcoKCIstkAY0ehwxNReHGhlyl4hwIvFBoLDDCuaKUBMjpgXt2muskhAxAsQIGiGFtWEGREAAIBAbDk6CpM5dwqcJD48+AEBABAcEHDurPFsoJgdpQMQB7yx6BhXhIPIDAqdpkcVycIcQQmb1poQVuCwaviG+UfnYOQ/Q5cOnSW/rBxUJkAt+wFgDWViESxWUAigIDgxRPvwgsL0cjFOCLR2jMW0csPM/Rrz7jcf/HCAAAAEBAj0mlOXi3DRNfxPcbvvhzDcCA/7IfMjnVnLBHCDUwujizg21UCNoAgBVifF6ASahKCmue0kEJsIQ7hQ5bCY7ccYO6BoEg50I8ggGFQIfRmOc0SxvkQuHpgWJaUijRyGCRTK14XORgEQcZnYXN3tOLWYFbgsb5J/styiL0t5k1jlWdv0MZ7CjD0pcelKjR5rhoL6Dx99uqGBzlU5rp+t6ykDmMafTc0A33SUV3JQ1BZlhETuejokHeKlhWujnFPtkeGI+wGL/C2mJTyvMt4hLf2IAABQDc0TtwWp5OvtCnt+hXZzEA8WmNi5epUx8hMFsmFYSw45HvZUeE6zQ7TVj920NHfPHzC6MbB3LRAOYjKmg3lgpOUQFBLFG58It1JAACAQ2GXGIGgVgfdEfunqjaGhQwKhQfppevF3hAOrS5H+bQUMCIlCLCrsjcMa3dGAAAQFtzRkoJVHWEyKEyQL7xABACDgZr20qe0Fo7GiOXMwEsdzPUIdaQtpMMxYBsDwccoAbhnwi+dIQARg2OwgQrCCcdVybtN3EJpQF6S8vQ4Z1EhjwMhcxXL0mK/OZ9JJm+zMs8fW6fdJfU8iHvASCcwG0QcyMCwvg2njnnXcsfKjpbCFIFxIEVg3S0arzp+IKcHm5ph9/8AYGCK4BbSAQjYwh54C8y4MQbcPRCAAsdwa3qQ5iwZHKaYFfnTePJhT8obBJ8vPmDKmAY4LnEXHMVmYQN03a3YtcpUIJQHdEcrAOCXLkP5Wa5Nc45G4v04MDG3Tz4N3BtUORmd6Nd1rKGi4/LNc1XLwcGVNP1nmm8MC9AxgiLAwdxawBGv5mjgjwZdYeqJpEXMN0OzCjCRnffHzsaiCLJEOywsfmFkrH514Phf77iN5xWgPNEoMGhy2CLYUYUa3HLcJQoghzl2Nba/jmgihsIGODfDkjESx8vdCW0ucW4OJ0w25ZZc/FudRx5D+/iEgXK3NQFc4wmw/TgxDCMe+Z/16IL7gO4QvJ3U/iW8gYCwOe4y7Ueni4PRO9qPsBk+fQCBAQI6msNm0bAEIABcmFGQE0H4gPQ+SE1mOxUYZkqXqwKeH5524QK5wyIqayw3QFMclTDUSacAEWWEFOQKOJtEw4VfF084BlAAD8QX0/kQmbwUUU+Y50x0CEyeQZMBTV0d4BAGHCA6ZS3NEyjCHAW+gClr0rEFwGZACZcfLKSWlF7QpWLWEyLGwPOBhFHU+tnN152/EGIdSxBLh7zM96YC8aCNKjBqmHxt8K6GqBx2JmA3KsvlIHuuSlYxzO3Tgh86/ieWFI5aEd9w8nKfOvFNLu+dR+JoQUcOTblP8/BxRQX8PiAoIx/EpZluFqgl514pr9e6a2h+J0mPzuCbsHBjrAPE9cfinIbHf8TvhuJGXYnKoPanExYMyntvwRHKAuKAt0IMfVAAWE1jNYzmRtExsoiqbBfiiU7IBbQNKc2a5muZzZzZpTSmltE0U0EQ/wDnM4GkQhIDGGVJeFKS5ynQQHICq0lYEDoNhwNIhCQRjCBIlZUM1KWT/guxM7VsDVyflP4LZwsnZmduhTgU4FgpWhmth7H/AILsTBhAwWRjmAxGUIlAMgKdYZoL1U2cLJ2Znbp2L52eFr/wXYmdq2B7X5beFk7Mzt0u/FdlZ/Ff+CaMragIRyhtAMwJVEBA8P2P3DUYRUp/M/cGmchYwgJYafuBCAAW+oMYkocsFy/8hP/aAAwDAQACAAMAAAAQAAAAAAAAAAAAAAAAAAAAAAAAAAAAAAAAAAAAAAAAAAAAAAAAAAAAAAAAAAAAAAAAAAAAAAAAAAAAAAAAAAAAAAAAAAAAAAAAAAAAAAAAAAAAAAAAAAAAAAAAAAAAAAAAAAAAAAAAAAAAAAAAAAAAAAAAAAAAAAAAAAAAAAAAAAAAAAAAAAAAAAAAAAAAAAAAAAAAAAAAAAAAAAAAAAAAAAAAAAAAAAAAAAAAAAAAAAAAAAAAAAAAAAAAAAAAAAAAAAAAAAAAAAAAAAAAAAAAAAAAAAAAAAAAAAAgEggAAAAAAAAAAAAAAAAAAAAAAAAAAAAAAAAgK7pXJhgAAAAAAAAAAAAAAAAAAAAAAAAAAAAAA0kklskHh4AAAAAAAAAAAAAAAAAAAAAAAAAAAABUkkkknUkjgAAAAAAAAAAAAAAAAAAAAAAAAAAAqMkkk5kHkkuZAAAAAAAAAAAAAAAAAAAAAAAAAAqkFEkhkkkkkk0AAAAAAAAAAAAAAAAAAAAAAAAAGkh0kkkkkiMkmsAAAAAAAAAAAAAAAAAAAAAAAAA0kkkkkkkk2kknoAAAAAAAAAAAAAAAAAAAAAAAACkkkk2khkkkkkmAAAAAAAAAAAAAAAAAAAAAAAAmkkkkkkkKkkkkkwAAAAAAAAAAAAAAAAAAAAAAAHkkmUkkk48kkkkiAAAAAAAAAAAAAAAAAAAAAAAFkkkkkkd8k7t2kkJAAAAAAAAAAAAAAAAAAAAAAAFhUkabkkkhfkkkk8AAAAAAAAAAAAAAAAAAAAAAE9jE7YmnkhDukkkjAAAAAAAAAAAAAAAAAAAAAAAA0kiOUkkkkmwkkkQAAAAAAAAAAAAAAAAEgAAAAAMkc2+k0klcj+kkmgAAAAAAAAAAAAAAAEBAAAAAAEi4g0ikkYgLkchgAAAAAAAAAAAAAAAAOAAAAAAjm06okkkkkmUnkkAAAAAAAAAAAAAAAA910AAAAAUZ3UEkjskkskkk4AAAAAAAAAAAAAAAFLgAAAAAGdihBkkkkkckskdAAAAAAAAAAAAAAAA0nCAAAAAYk5K0gCbkBkukgAAAAAAAAAAAAAAAADy8kAAAAEq9glknv0nMkkkgAAAAAAAAAAAAAAAAADn4AAAEaGScokj4jskkk4AAAAAAAAAAAAAAAAAOUiEgAAGQSPl0kkj8mMkwAAAAAAAAAAAAAAAAAEFskAAAEiSphX5fhPkNlQgAAAAAAAAAAAAAAAAA0MmAAAABSMskzikkckh0AAAAAAAAAAAAAAAAAAECkwAAAESRDkjskklkmIAAAAAAAAAAAAAAAAAAAHkiAAAEqSgkPfkkkn3gAAAAAAAAAAAAAAAAAAAACksAAAaSkAAhkkkkUAAAAAAAAAAAAAAAAAAAAAAMjAAAiSVAAl8kkkk8gAAAAAAAAAAAAAAAAAAAAEUlAADSSYEyckkkkkNYAAAAAAAAAAAAAAAAAAAAHkUAA6SQulIzkkkkkkHAAAAAAAAAAAAAAAAAAAAUgIA6SVwJJJvGkkkkkqoAAAAAAAAAAAAAAAAAACklAHSSwJJJJMsazm34KAAAAAAAAAAAAAAAAAAAUkfAqSUJJJJJJJJJJTJqAAAAAAAAAAAAAAAAAAHkkMaSShJJJJJJJJJJJJwAAAAAAAAAAAAAAAAAAgkkASS+JJJJJJJJJJJJOAAAAAAAAAAAAAAAAAAEskniSQRJJJJJJJJJJJJKAAAAAAAAAAAAAAAAAABkkm6ShJJJJJJJJJJJJJgAAAAAAAAAAAAAAAAAAgkkwWAJJJJJJJJJJJJJJAAAAAAAAAAAAAAAAAAA0kkUghJAJJJJJJJJJJJwAAAAAAAAAAAAAAAAAAHckjEjJOJJJJJJJJJNJPgAAAAAAAAAAAAAAAAAAmkkkklJpJJJJJJJJJxJPAAAAAAAAAAAAAAAAAAAjkkkkhAJJJJJJJJJJBHMAAAAAAAAAAAAAAAAAAA5kkmMoZJJJJJJJJJDepAAAAAAAAAAAAAAAAAAAAe8dp0AJJJJJJJJJJyPgAAAAAAAAAAAAAAAAAAAAkgEMA5JJJJJJJJJXkkAAAAAAAAAAAAAAAAAAAAAAAAAAJJJJJJJJJIkkAAAAAAAAAAAAAAAAAAAAAAAAAApJJJJJJJJJIknAAAAAAAAAAAAAAAAAAAAAAAAAARJJJJJJJJJ8kcAAAAAAAAAAAAAAAAAAAAAAAAAEJJJJJJJJJLklgAAAAAAAAAAAAAAAAAAAAAAAAABJJJJJJJMTexQAAAAAAAAAAAAAAAAAAAAAAAAAihnS7kBH1AAAAAAAAAAAAAAAAAAAAAAAAAAAAAAAAAAAAAAAAAAAAAAAAAAAAAAAAAAAAAAAAAAAAAAAAAAAAAAAAAAAAAAAAAAAAAAAAAAAAAAAAAAAAAAAAAAAAAAAAAAAAAAAAAAAAAAAAAAAAAAAAAAAAAAAAAAAAAAAAAAAAAAAAAAAAAAAAAAAAAAAAAgkAkEkAAAAAAAAAAAAAAAAAAAAAAAAAAAAAAAAAEEAAkgAAAAAAAAAAAAAAAAAAAAAAAAAAAAAAAAAAgAEgAAAAAAAAAAAAAAAAAAAAAAAAAAAAAAAAAEgAAkgAAAAAAAAAAAAAAAAAAAAAAAAAAAAAAAAkEgkgAAAAAAAAAAAAAAAAAAAAAAAAAAAAAAAAAAAAAAAAAAAAAAAAAAAAAAAAAAAAAAAAAAAAAAAAAAAAAAAAAAAAAAAAAAAAAAAAAAAAAAAAAAAAAAAAAAAAAAAAAAAAAAAAAAAAAAAAAAAAAAAAAAAAAAAAAAAAAAAAAAAAAAAAAAAAAAAAAAAAAAAAAAAAAAAAAAAAAAAAAAAAAAAAAAAAAAAAAAAAAAAAAAAAAAAAAAAAAAAAAAAAAAAAAAAAAAAAAAAAAAAAAAAAAAAAAAAAAAAAAAAAAAAAAAAAAAAAAAAAAAAAAAAAAAAAAAAAAAAAAAH//EACURAQACAQQCAwEAAwEAAAAAAAEAESEQIDFQMEFAUWFxYIGQoP/aAAgBAwEBPxD/AJHCZaUw+8rH6RE5lMt5gBEuUaUyu+py70vdRrV3YmUeNaLlNox3IXKefDWDeyjcKKYLErtQuUbFrdR5RntR72Jcr5eVS9osiJz2nH4SDzAG5LiU12YUV4VTiZbBtTyD32IXKPPkrFfj4djQbm/UPt4FWJUqGEePh2HLyuVE/mWyjLpdk5gGKEG4yxzLLjclPYGdQJswaZSVlZliAG5DzDyII8eE++w9WqXVBG9AqoCrSCuFSvtC6zqy3ln9QDlhhZBXgeOxo2gS8FV3BHjxpZUMreBaOwOdi1PZD7YZbjlqYaEDBEfW2xVT62qHmU2gw+267HRVcNiMsU8ip2LbOWLicECHK6gHG1DzArUoZmSuplTq9H7TBE4g15Hq0VEMGjljlqPENeNzTC8FGqDsFPQgrRMKTiMQw4vyDN6LbEuKkEqfactQ42oOCekVt9EPt1SxDMAzjcN+RwiohglNEGBU+8OPHmDwCMdvQqo43MrRg7EseOqctzhKEmSDcWiCiYbIzdahVIJsyt2F4OxsU6JUwqqDFLAFGh8g04caVnEeTTDMGy9aoolbFItlrOq9IFdXKy9EJf0ThkiU14jnRalfepnU6bbEHmAaqBbDLbwP16UBybM5vxctKzqtQ0XrZPTy3KBbMq3jVadqo6Vck5SGLJUZ0Pictl1AvLo8QUVFolGaf7IeyU+4h7jaBrcPA3v0inpVWj08sFasuGTY8Tg0QeZ+U/KVpxbrsHUVLiDzrdjwjYvWi9bHicG/i2UxV56m5BvjU035XW0tnpYsQKK38L0Vi/XWFVanwAzs4b7G/Al4liuudDUWV4B4iwAFHhAZi9cGy9TW4F7eWzhCVFwnHkWj9GJdWr1Yr3DawFwRHMDqWXuXEI8eVDzFOOpWNUuXK2Be14iAsAON6MmIn6QHuCPHk5hzErHTrOz3bBuBRXiQeYrxKuGUZTzFvqfxP4l/qWxS9QuyytLinTqthLKiU1qbRZPiBaCZ/kCGdmA6Yab22FmhzuFp+Vgvp3Y22Lgbjy+UbR069bRSofTteIaB8sUjpnW4NrHb8wV092XtSyoYa0BYoLYhMfMGR6f1bhkYDRLiwr1sa0lqL+Obt0403BsvaLKlwzqYP3ZmnyBtHUVY8OFOzn+fk4pHUVvDHGqtPi5xoocwxBmQeoFGyHtIOYcBMg5YQoqzmZyfE5ZxRnDUB7XHgRf56ka4g+9B+kWg03qhBWpYT4nPKSiWyzlMVdjbsWR8TNTg2Gl2jo/Ecm2PaBpv4vsbBke1dj5COO1WPxDZC1/g3ZEPcS4mCv3LS2kp2oXDP3n6+Hwf/wBZ+s/efrP0lv8A5Nv/xAAmEQEAAgEEAgMBAQADAQAAAAABABExECAhUDBBQFFgYXGAgZCg/9oACAECAQE/EP8AyRrSv+IL2p+NP08fwLhjxv4BYrbjs/ELWhSK6VS/wl6IIi3CMS9p8T2B4EjxoLgiezL+savjZRgn+Io4jrT+AuNQiZ8Y03ATuDblFceCocE56AOYJ722mZ9jUUxEpe96NUjGtPwFMEMzLFi4DVVztFMRb1YvEx6n1nMMzKs8hq8sZghwQzHb48Uq6dSocs5WmZ5Ij5ryGig1AIjcYJk7QjllD3tEAHgehwnJE5iTKoq8gix5lOgsWBBXjH31QjKpxpDjQXHkUMy25wyoaHjY4rlfuV+5WrvYKK6p5IW7iDZFVt0XkOmc6XxqFkStb55lDyQFjoprY31gprQbK+2ZcQbL8TjQLl6jX2bBTEdYLagorwX0onYD4rxYaXxqcw1Z7DcC4hDrT7gjERUxXjyGG0K22rif9EXKZb6h94g4j3330xvR7+UXU35tLSf2n9uximCmNaOfCtg0Nubf79dQiVqrPKbmLbvVMuXL6xLvVc+BxsM76CvANRWX1xvUNN+BeIELbb4UgXrkp1dm5a2mNihKxDnyDIfeDdWdS5rct1xMU6lIlxETPlEYgOepPOuIrL2O0iXL3/1LIr1ETyMZ6jHZ6Ni2mfJaWsmjX7n+pb7lvuf6lfuf0lan66c7A03BsvV2+n4gH3odis6ZLNtDWjjdh8p+unNbVxF3Z/KOHpz72jTcfvaZjy/LMdMbNy9bV+Zh04praNTJelwRaj+Dj3uXFRWhxOXOwWx+Pn06WVEpraNNyl8a8tj2fkHD1Hs8OVfIZ7Rs6i55DgB8TOOqJH66hLKYm0JxKmYueNPSAJn8TKOYIZn8SlhTqUuJ60j7wLRRp9nx+UeUua+iXvtcfiGZm2YHaYfog9Nj7Vz8TE2PntcviYmx12rP4VMvG5KyugF2tEpKSsrKysrKysrKSkpKSj/5N//EAC0QAQABAgQEBgMBAQEBAQAAAAERACExQVFhcYGRoRAgULHB8DBA0eHxYJCA/9oACAEBAAE/EP8A4i7QdA9KEEiI5nioErAU0N7IK7W71KUkHfAsUEN5RImo/wDgSgnq3DPnCk551YaxJ81h8Zwe1DpQ1IHQ+SpdTkBov9Wi01MZqPaXvDlh2aE5aF6+nHDhRBRkMIcIqXfY+C3f3pQ/gRK4uNLlfIfYq/bhl2cjbaoVQP8ATEd64MdLug0HFUZZ2GsBVb9nR29cKAFgMV1dvem6Nhf0CMLaYHnYoWRQQAQELAeQEARxHOt66CPt4OsUQSNOpBPbnAfcJ9bUmRk2ck7UmaCVXNh+OP5chluxRkZGApJeXljwWCaQz7TQtEOSESc9asBJKrPNf1drkhS7uMeHeghjwDDuKRIpxV/BdNxJVHC1TyLAYTxQCII4jUXwZgJny4hxXMit2KhIudBmvlYLvGHEodRpybnHDjj6q2wx2vhTst75A0YHFLi/54ogBirAVfAwSQXoRJGR8pAKyq9fyrpN2Ary7KEAiI3E9UZVDhAWty7vIPKhEGGtFWqKCCD8kfkCuEuRTwQJSFDWPKhlbcv5RqNwrwyF03yzoQEESRM/UlZhCdgmhm+PXD/f0gIvAMDnT0AIWLGnmDtgHNalShX7z/5J129SzZ0YrZXjgf5WAuRarvf8OFhlkhrQtQJXueTIeUxLFk51gx+OREC7pYTz7PUTQNwS7b6u2BnTG2yiTh+8PzqTcjahPxQ0i9DAYPz+NVmIGX1DHnz3bkS8q42gSrlPmSAYImRNKViWY2dfwXpc7STaf5Vk0SYzd3phyrAa4or+ydPxk10HqG/QG5Ee7+XL0USg6WxaCm7AYPemNCxwnSWp+UvmO04u74FWuA+7Xq1ycJjstIREnArwM6atQmRDSWDGIWtFx9orO9CSwxk5g8oJIDI70K6EBhqBt7J6eaE+zj3Sn+kY5+F6krMMZFBb8g6Xv5Gv0k50EvzVs5sroUpA5jY96lirOUO1YEQJAa7cWiwA5Qu/Bt5lZw/Z3C9Xtz0nkb5Y9SnXcto2jL8LA7EBnWR6xz2qSsx1Ek9OlYXrhIousTLwXCPuMlRn4iCy1PBwpEhwuFAAIAg8FIiDE+NYiZN4H1lQJIAlZbwWoCUYAB0qcPLAhZFSgy4YXeLezUmBaIaBMCFe3aPFBy5YY0LTtNOH5CRytHzSbgbPwUokhm2jtE5tMxNBEzEhiXTak+PoVotHX8BrSC7UNuU92JHZ9PkSJdg5uXzFC7t2GVdPK7CxFK0fiFJnNRzhucQ/xqO7WVTH4zel/OpGoNwysL/dKESRk862xJG62DrQSYsmyt2j0KOmTTGc17USKxAQHCNfyJfBUYSY9zp5Fy2O9TZlmQGrG2JlVayWud37rRGyWlno+OtXWzhMffnwcgQVqImXXPpSEZRluzZy8oZE6VCcDONNBa8ODETBf+eOfoU2TUcqAMMZFHlB0rTDwiXQ804AsDN+WXXSjVkAwAwPQV7S4Ed96Os0Hch7jNPbKDAyo8HbWmCdwtC72Tl+N2XAWZF5R0aEBBG4mfjEhPBVp93owVxjMHIfHWmxhQmN8e3vSFMZHVf77UmMeVxlyrOZTtj/AIeCARBGyOdS1aAhdbeVB6YiK2S9BnXJg8MqXL9YtWYesDyHlPOoRuxtQX/PG3GjFAmU6/74nFLQ3i1BNGrKwQd55+hDCyJziOinrXBsfwU8tDxP/SlObgxlC/y/GiQGHVZJolXSXcU7PueE8mhSBY4Lq/4UyvTtxhw/vOgnwONn/v2pxd+ALke3WocYfNtv9qYjuJv+MZ6iJCSh81KuhySuzjryoZUVmxl/yPF9sqUJR8jnQgMhvHQTkeguay4HFjG14cfmhJLAIEhGOFBBwkG//TrQIy4wHuoZyet+PsdaEAMiSP47rYAM4Q9/BaWX5aFIugDjCZUMFYiyvhoUkjE2BOhONBDdcOT5qYmRe3z1pS9vt5YqxwjH1s0RQNzU0BDsczysT7Ia3n4qNTAszMIPwJ2EGpl6DEv/ABn9tFzhXmMBPJagyxJbSPs0JPG21/mKInK3ZpA9qvEF1SxfiQ8/xcKmONOWlK+xwY0weTAVcoAbS5tRolMEJc/7QiSXKl5BsPPWlF2AI2KFcLZsg+lABAsNwyt+MgmSLdb+ufkOGTBUj5B1LvhIxxpXSCKWXT35GvoKy5SdU/xRoWO9DD3SiN2aTRt7ULDvIvYAOpRtSECFzO1IjkyuGl3jn+MaQ9EhnVvvWEErmWr91aPZXAGYb0VwsIQGL31miMSwGF95cKHFztVolDMQ+aYf3lSpYt3jUCKFjifXXxmrImgEtCOfESRcZBV1rRmoy14xRmsQKVy7bT48RFIIyC60b6LAcrAfHLxHCAR51FjbJELn5FGmwkWwdv5QODgPd1d/QS2USnNfDTVXyp2ls+1PsFJCTAh8zwoAd42ZVz7eCZGUqG6IOV+VJaylxQ/iRJgkYxn/ADnQFlz5sXvSCIkjiUp5kOKxGKfcqaINKFylBGh8DY1oE11jp/fBMkmUZpv93qCMrbJ4HfeAkRxKVCkgkuTGd703AFwoHWcDj1ijLwTAXaGdKNB3R+6vjfaAR1Lzx9hohbYb7/gIeLOOvoUekQBi3SdFqwlIEuC0NpKi9mSCuErGTzLd6QSvhcOUU51BMxGB0Z9qDNEkeGdLcko3wThinxPLGIt1R9tWNV4XRyX2ViBXUp3e9FxrZ/sV7mzRn3dZ/wBpuVDAKaAnQwXibEVf17o5z7eC53tw60qDgJBnif54iomRxPp4TpgDUajgyYYH65z5NDrAutRxKABKkUHLPnQIAEAEB4QKisZvIN2jw1XlBy+3/BhHTb7v3o1L2eh4NvQv+ugVG8nHMHelNtVobT7ERTs+gAl92hEk8GyYzmtiepQ0VQWQVLEAkd0H8Au9U6P98JNUMJuOduviseDiMipFy5uPgccMFSUAE/AxX8ozoAg5I4T7+bOcO4roGbRRaLon2+38E4tilF106Ua4oDBPIKEFDiWO9Qwjmi7k9nohwVKXE+KW2MF4cYx51KIQLpxwgFpMKCTA6HCfAcmG6YPmsT8GBLWEWbaCL+RUY9cXY1oW5l/Pd8L6wGVMUeZkY4Ss0ANgrBioqQLN3OGrJ54YP578qg1uKI54VBgbf2p8hjIV0L0gSLEo7uftQ+LhHUy5HNaLI1MX04YeKRFxEjRkwIAIA8AElkZFPI04gG4v7TQz1oWOJf8AaO8cDADA9E1hAyjAfe/gjAa8wxPifEMlS1YPxQQHECfwSUMTMYcX451aFtDdcW/HxVsK9sNYzpO2yiw1j4pWSJvI3u91Uj0Lu8Nj5D7qVkbxexpOXp9k0WA8BDoeAv8A0v5YThmoKTEEMsH3m0X882ABB6MR7NMY6BxJ5xSESPZOPXHnRs2COCYPiLSLGE/Q47PwyBSED1fPbySabpjIZfdSjLAgDIq4wocMscnyAYy99SAc11J8+iCp5Ee/kGqXAMaR+UgBXaxWc+0OLquLz9IPOQLjuA+5mZRgVkrJ4wQldEubvL0fgakDiSq1BKAJSwY+LhwCroUJN5LkPscvA1AQKQZCfNMGdi0joe9MQK4oi8oe9MH48R5ye/WgENnNKojpNDq08QjzxPVFG6H3KkBkosqJk1yoKAKy7h0rLCmZ0Bv8caAAAgPSn/EGkDk1AhALxaVJZzPENrTdCY94pM5K2ySefGIfwj26+RCq8czHtNCQQgPHPv5WC6CM2gwijLkRqHxv+Cbkp7JFIZEi0MsOp/mVLT8AT6biia2V8J+sPG2cvIC3eKiqmQdMnceZhYct9qYBf8OT7w8hz4Mdj/j5RErMIFHcDCojMP5i5xUfjc1mu7+EObdWbbbbVDWk3Ze7nHFokFWb23Hl6YuKxjEhh7LQ4K64T46Cz5TmHV8x0kMQyGX3ajBAABkeQ54AbLH++L5PZ5PgL0maYQQfd0qLAhZI5hgTy50KPpZgYwzO+v48bNLLf9Ys8yrsJ+tk7VZsVHvGqE+xR4zWiv6E2eT6SDpMXxVFIJcR2hR2jxmUBiZjc+KGxL1wnkd+HKgC3j2J90PJhQg2eDsX+aUHJEMWZf4RvV15HfRR+eVTrYis14YdqMCCwBAeBG5KzZynX3omwYFI8H/HjR3POdziYnP8qqfkOHmfNa4oaxuz+2pjlixTRPSMoRI0wPEY152Y0iRHwIWZeM+R3BEpkfq9KBEEAZB5LpQxuMWpLS42L3f5FQVhIF6ur5npEhCRrMvRE+m0VYs5Ozw/xqNGbcRzPmK3vwHs/HMY0FxpwD0c51qf9c61jZ9HyG3ISB7r5BpcKNHB6eyhwDEGyOfgoMAq6FAzd58j9Dl5WyBJ3+KMHAug/FsRofdWhwkkcmayrsIjqz7VgTzNCe57VhIDFR7DWcLi+QqHBcv9qf2B/a+ZX4GskNF/cKy/uc0fW1DW6y2oYfNKuL4Q6sOwz54fcKsZnajmO429GOSqW5c7jyDPMls5Jwb0lCOyeTHC3JNPB1bIjfHtWQMju59/LBFyZfqHihCABrU25DNuKTtythva3iiAQhHMpj16fLUcvd6MRN5O7HuFKDICOo+Rq+coMDEdc+S01sAie5Yqtfyh7eZmALjfR/aJi2Rzbg9IpBQRNRJPRY4JSPIdwqbWed7PYPK55BHVbHxwoRJCxuHHy4pyXAp2J1fvP9qxEoDZc7lM6lvMQdo9FQSHCnsWHv2w8ofbbhlNL9CQLfCHfTpr5ZoNgHNv2mrPQjPHP9pJIamHMDdY9GZ4CuV8T18xM7BnVafjppRfzzZiSeS2MroJJ/cWSj2qQfL6NAWRuC8dcOdT83RdLT3J5+WVopbNThmKc1tHWeTwRiQo7c6WjFiZ51H4Ntm/7mWAs1nDv6Okey2TJe/A8xR0cTNz6T2oRmQkcxWNS2BPUSKl7Jkzax3nqeRTLcVCjDlNYiXEzgT3/XK2xHQmPeKT6TtqJJ6MCOUMx2ovypbpGDRzOTbyww3BOWIesVLERELDFxtHiIq775w9vIMbeA+pTD9MWSCxdi/kt1KTkW7xUuJRtqg7R6MCAIkI51JFFOwFx+PLf8Opq2g39woZBMHxirflT/x7fqBDKMsc62oD5MDw40x7Po68Mq8hBlOj7xSgp8dDJaz7D+BRNq4C6DhSKYrPQ8AwtKIAoh4G4IZdv1JhqOw+a3TPY8GQviIdWiujJcwccHlSnkEvtr0ZoMkno6FxpLDQd469KVQw9srNNTyuoPmS8i9PqhZKA3DD34VICHDcmwco+KE7Augo8eIwoSW0MKkDCVgN2Xd4Vs/DAAg/U4AnVuy3ZRghzbJgiHrQTMiT+nehNjwm4p/rRBzCES1M1hxscaHAQAn0gli0WP6t+s0Ssam7gj4moam1d9qLYLgf+ferjjMcsaSR7tSFrohHMYV1uWRu9sax1hecBWvzVOcf6yoYzWOWczQeF4Yojip+ojek+iNHY0FCBApQtkbmXHvRjM4KT7woMTWvkTLhyoa19jjGJ7xy9KXrGJA8mtsHo+1YWPEKwSBYOefOaagDwBHtShwxF+It3xuy24TZ+X6ma0+8rb7pEeTIAJbK/wAeqDLn7jKfqAv4KuZTtYqnOfnyaAJTdI/v1Ry9gTpJPuaO4gCfqdPXjb48g4MMONvVOCZg+QntNSIyyeMQ/qbS718jHs4dJH5CrpIngk+p2Ymy4yir8xHSf6mXw/v5BgZYnMPxSIsv2nL1Mm8BdmnI6Lv+iNgnlWAdKsccyg/RqhCcZ49vEAP+qnmjmi4iaJwCEoXK4c/U8aNAdwY6FKZa+xadYc6dcc6/6Nf9Ere662eqt51redWtz1a+xaCy0H/OgsA5UBgBy/8AzmCiSt1hz3ocAASaHyaFRuXmhxpiySHntRtkUFv9oOHARPzQyCZ0CjSt1hz3ocBASaEjmHPYpxb2P9oCNbOo6J/4L7navsNK+s1aABBEEeKgWQU+2Fd6967Qr6nUr6jSpexem6x8UHkXEmXedaJCVY3gHu/+C+52oGAAOIRwpAyWczMlTlomplapfpyELFzK71712hX1OpX1GlfXaqMK7T/wV9ztX2GlfWatfeavDvXvXaFfU6lfUaUYdhH3UYFCCuAuz/wSycdhMUxSEInKn99iwRWKiWxJhIrFOIAt2VHPyFkZoMDC3UTcSGYxahAwAJVBEOV2GQnqobOmCZeMzFQ74UGYcdf/AJCf/9k=;" vertex="1" parent="TLr3A2g5SAvAyeFMiobW-15">
          <mxGeometry x="384" y="138" width="612" height="612" as="geometry" />
        </mxCell>
        <mxCell id="TLr3A2g5SAvAyeFMiobW-37" value="Start now!" style="strokeWidth=1;shadow=0;dashed=0;align=center;html=1;shape=mxgraph.mockup.buttons.button;strokeColor=#332738;mainText=;buttonStyle=round;fontSize=17;fontStyle=0;fillColor=#908894;whiteSpace=wrap;fontFamily=Lucida Console;fontColor=#FFFFFF;" vertex="1" parent="TLr3A2g5SAvAyeFMiobW-15">
          <mxGeometry x="128" y="346" width="194" height="82" as="geometry" />
        </mxCell>
        <mxCell id="TLr3A2g5SAvAyeFMiobW-39" value="&lt;span style=&quot;&quot;&gt;Log in&lt;/span&gt;" style="strokeWidth=1;shadow=0;dashed=0;align=center;html=1;shape=mxgraph.mockup.buttons.button;strokeColor=#332738;mainText=;buttonStyle=round;fontSize=17;fontStyle=0;fillColor=#908894;whiteSpace=wrap;fontFamily=Courier New;fontColor=#FFFFFF;" vertex="1" parent="TLr3A2g5SAvAyeFMiobW-15">
          <mxGeometry x="128" y="495" width="194" height="82" as="geometry" />
        </mxCell>
        <mxCell id="TLr3A2g5SAvAyeFMiobW-40" value="Start now" style="" parent="0" visible="0" />
        <mxCell id="TLr3A2g5SAvAyeFMiobW-75" value="" style="strokeWidth=1;shadow=0;dashed=0;align=center;html=1;shape=mxgraph.mockup.forms.rrect;rSize=0;strokeColor=#999999;fillColor=#ffffff;fontFamily=Courier New;fontColor=#FFFFFF;" vertex="1" parent="TLr3A2g5SAvAyeFMiobW-40">
          <mxGeometry x="318" y="165" width="477" height="590" as="geometry" />
        </mxCell>
        <mxCell id="TLr3A2g5SAvAyeFMiobW-76" value="Sign up" style="strokeWidth=1;shadow=0;dashed=0;align=center;html=1;shape=mxgraph.mockup.forms.anchor;fontSize=12;fontColor=#666666;align=left;resizeWidth=1;spacingLeft=0;strokeColor=#332738;fontFamily=Courier New;fillColor=#908894;" vertex="1" parent="TLr3A2g5SAvAyeFMiobW-75">
          <mxGeometry width="238.5" height="20" relative="1" as="geometry">
            <mxPoint x="10" y="10" as="offset" />
          </mxGeometry>
        </mxCell>
        <mxCell id="TLr3A2g5SAvAyeFMiobW-77" value="" style="shape=line;strokeColor=#CDA2BE;strokeWidth=2;html=1;resizeWidth=1;fontFamily=Courier New;fontColor=#FFFFFF;fillColor=#908894;" vertex="1" parent="TLr3A2g5SAvAyeFMiobW-75">
          <mxGeometry width="429.3" height="10" relative="1" as="geometry">
            <mxPoint x="10" y="30" as="offset" />
          </mxGeometry>
        </mxCell>
        <mxCell id="TLr3A2g5SAvAyeFMiobW-78" value="Full name:" style="strokeWidth=1;shadow=0;dashed=0;align=center;html=1;shape=mxgraph.mockup.forms.anchor;fontSize=12;fontColor=#666666;align=left;resizeWidth=1;spacingLeft=0;strokeColor=#332738;fontFamily=Courier New;fillColor=#908894;" vertex="1" parent="TLr3A2g5SAvAyeFMiobW-75">
          <mxGeometry width="238.5" height="20" relative="1" as="geometry">
            <mxPoint x="13" y="40" as="offset" />
          </mxGeometry>
        </mxCell>
        <mxCell id="TLr3A2g5SAvAyeFMiobW-79" value="&lt;font color=&quot;#b0b0b0&quot;&gt;Please enter your name here&lt;/font&gt;" style="strokeWidth=1;shadow=0;dashed=0;align=center;html=1;shape=mxgraph.mockup.forms.rrect;rSize=0;strokeColor=#000000;fontColor=#000000;align=left;spacingLeft=5;resizeWidth=1;fontFamily=Courier New;fillColor=#FFFFFF;" vertex="1" parent="TLr3A2g5SAvAyeFMiobW-75">
          <mxGeometry width="357.75" height="25" relative="1" as="geometry">
            <mxPoint x="13" y="60" as="offset" />
          </mxGeometry>
        </mxCell>
        <mxCell id="TLr3A2g5SAvAyeFMiobW-80" value="Create account" style="strokeWidth=1;shadow=0;dashed=0;align=center;html=1;shape=mxgraph.mockup.forms.rrect;rSize=5;strokeColor=none;fontColor=#ffffff;fillColor=#E6D0DE;fontSize=16;fontStyle=1;fontFamily=Courier New;" vertex="1" parent="TLr3A2g5SAvAyeFMiobW-75">
          <mxGeometry y="1" width="156" height="30" relative="1" as="geometry">
            <mxPoint x="20" y="-40" as="offset" />
          </mxGeometry>
        </mxCell>
        <mxCell id="TLr3A2g5SAvAyeFMiobW-81" value="" style="shape=line;strokeColor=#CDA2BE;strokeWidth=2;html=1;resizeWidth=1;fontFamily=Courier New;fontColor=#FFFFFF;fillColor=#908894;" vertex="1" parent="TLr3A2g5SAvAyeFMiobW-75">
          <mxGeometry y="1" width="429.3" height="10" relative="1" as="geometry">
            <mxPoint x="11" y="-57" as="offset" />
          </mxGeometry>
        </mxCell>
        <mxCell id="TLr3A2g5SAvAyeFMiobW-82" value="Email Address:" style="strokeWidth=1;shadow=0;dashed=0;align=center;html=1;shape=mxgraph.mockup.forms.anchor;fontSize=12;fontColor=#666666;align=left;resizeWidth=1;spacingLeft=0;strokeColor=#332738;fontFamily=Courier New;fillColor=#908894;" vertex="1" parent="TLr3A2g5SAvAyeFMiobW-75">
          <mxGeometry x="12.5" y="104" width="238.5" height="20" as="geometry" />
        </mxCell>
        <mxCell id="TLr3A2g5SAvAyeFMiobW-83" value="&lt;font color=&quot;#b0b0b0&quot;&gt;Please enter your email address here&lt;/font&gt;" style="strokeWidth=1;shadow=0;dashed=0;align=center;html=1;shape=mxgraph.mockup.forms.rrect;rSize=0;strokeColor=#000000;fontColor=#000000;align=left;spacingLeft=5;resizeWidth=1;fontFamily=Courier New;fillColor=#FFFFFF;" vertex="1" parent="TLr3A2g5SAvAyeFMiobW-75">
          <mxGeometry x="12.5" y="124" width="357.75" height="25" as="geometry" />
        </mxCell>
        <mxCell id="TLr3A2g5SAvAyeFMiobW-84" value="Username:" style="strokeWidth=1;shadow=0;dashed=0;align=center;html=1;shape=mxgraph.mockup.forms.anchor;fontSize=12;fontColor=#666666;align=left;resizeWidth=1;spacingLeft=0;strokeColor=#332738;fontFamily=Courier New;fillColor=#908894;" vertex="1" parent="TLr3A2g5SAvAyeFMiobW-75">
          <mxGeometry x="12.5" y="179" width="238.5" height="20" as="geometry" />
        </mxCell>
        <mxCell id="TLr3A2g5SAvAyeFMiobW-85" value="&lt;font color=&quot;#b0b0b0&quot;&gt;Please create a unique username&lt;/font&gt;" style="strokeWidth=1;shadow=0;dashed=0;align=center;html=1;shape=mxgraph.mockup.forms.rrect;rSize=0;strokeColor=#000000;fontColor=#000000;align=left;spacingLeft=5;resizeWidth=1;fontFamily=Courier New;fillColor=#FFFFFF;" vertex="1" parent="TLr3A2g5SAvAyeFMiobW-75">
          <mxGeometry x="12.5" y="199" width="357.75" height="25" as="geometry" />
        </mxCell>
        <mxCell id="TLr3A2g5SAvAyeFMiobW-86" value="Password:" style="strokeWidth=1;shadow=0;dashed=0;align=center;html=1;shape=mxgraph.mockup.forms.anchor;fontSize=12;fontColor=#666666;align=left;resizeWidth=1;spacingLeft=0;strokeColor=#332738;fontFamily=Courier New;fillColor=#908894;" vertex="1" parent="TLr3A2g5SAvAyeFMiobW-75">
          <mxGeometry x="10.5" y="250" width="238.5" height="20" as="geometry" />
        </mxCell>
        <mxCell id="TLr3A2g5SAvAyeFMiobW-87" value="&lt;font color=&quot;#b0b0b0&quot;&gt;***************&lt;/font&gt;" style="strokeWidth=1;shadow=0;dashed=0;align=center;html=1;shape=mxgraph.mockup.forms.rrect;rSize=0;strokeColor=#000000;fontColor=#000000;align=left;spacingLeft=5;resizeWidth=1;fontFamily=Courier New;fillColor=#FFFFFF;" vertex="1" parent="TLr3A2g5SAvAyeFMiobW-75">
          <mxGeometry x="10.5" y="270" width="357.75" height="25" as="geometry" />
        </mxCell>
        <mxCell id="TLr3A2g5SAvAyeFMiobW-88" value="Repeat password:" style="strokeWidth=1;shadow=0;dashed=0;align=center;html=1;shape=mxgraph.mockup.forms.anchor;fontSize=12;fontColor=#666666;align=left;resizeWidth=1;spacingLeft=0;strokeColor=#332738;fontFamily=Courier New;fillColor=#908894;" vertex="1" parent="TLr3A2g5SAvAyeFMiobW-75">
          <mxGeometry x="12.5" y="322" width="238.5" height="20" as="geometry" />
        </mxCell>
        <mxCell id="TLr3A2g5SAvAyeFMiobW-89" value="&lt;font color=&quot;#b0b0b0&quot;&gt;***************&lt;/font&gt;" style="strokeWidth=1;shadow=0;dashed=0;align=center;html=1;shape=mxgraph.mockup.forms.rrect;rSize=0;strokeColor=#000000;fontColor=#000000;align=left;spacingLeft=5;resizeWidth=1;fontFamily=Courier New;fillColor=#FFFFFF;" vertex="1" parent="TLr3A2g5SAvAyeFMiobW-75">
          <mxGeometry x="12.5" y="342" width="357.75" height="25" as="geometry" />
        </mxCell>
        <mxCell id="TLr3A2g5SAvAyeFMiobW-90" value="I accept terms&amp;amp;conditions" style="shape=ellipse;fillColor=#eeeeee;strokeColor=#999999;gradientColor=#cccccc;html=1;align=left;spacingLeft=4;fontSize=17;fontColor=#666666;labelPosition=right;shadow=0;fontFamily=Courier New;" vertex="1" parent="TLr3A2g5SAvAyeFMiobW-75">
          <mxGeometry x="28.5" y="470" width="15" height="15" as="geometry" />
        </mxCell>
        <mxCell id="TLr3A2g5SAvAyeFMiobW-91" value="I want to receive news from Learn ASL" style="shape=ellipse;fillColor=#eeeeee;strokeColor=#999999;gradientColor=#cccccc;html=1;align=left;spacingLeft=4;fontSize=17;fontColor=#666666;labelPosition=right;shadow=0;fontFamily=Courier New;" vertex="1" parent="TLr3A2g5SAvAyeFMiobW-75">
          <mxGeometry x="28.5" y="504" width="15" height="15" as="geometry" />
        </mxCell>
        <mxCell id="TLr3A2g5SAvAyeFMiobW-144" value="" style="verticalLabelPosition=bottom;shadow=0;dashed=0;align=center;html=1;verticalAlign=top;strokeWidth=1;shape=mxgraph.mockup.forms.horSlider;strokeColor=#999999;sliderStyle=basic;sliderPos=46.364;handleStyle=circle;fillColor2=#ddeeff;fontFamily=Courier New;fontColor=#B0B0B0;fillColor=#E6D0DE;" vertex="1" parent="TLr3A2g5SAvAyeFMiobW-75">
          <mxGeometry x="76" y="417" width="325" height="30" as="geometry" />
        </mxCell>
        <mxCell id="TLr3A2g5SAvAyeFMiobW-145" value="Knowledge about ASL: (0-10)" style="strokeWidth=1;shadow=0;dashed=0;align=center;html=1;shape=mxgraph.mockup.forms.anchor;fontSize=12;fontColor=#666666;align=left;resizeWidth=1;spacingLeft=0;strokeColor=#332738;fontFamily=Courier New;fillColor=#908894;" vertex="1" parent="TLr3A2g5SAvAyeFMiobW-75">
          <mxGeometry x="17" y="392" width="238.5" height="20" as="geometry" />
        </mxCell>
        <mxCell id="TLr3A2g5SAvAyeFMiobW-71" value="Log in" style="" parent="0" visible="0" />
        <mxCell id="TLr3A2g5SAvAyeFMiobW-133" value="" style="rounded=0;whiteSpace=wrap;html=1;fontFamily=Courier New;" vertex="1" parent="TLr3A2g5SAvAyeFMiobW-71">
          <mxGeometry x="357" y="279" width="386" height="293" as="geometry" />
        </mxCell>
        <mxCell id="TLr3A2g5SAvAyeFMiobW-134" value="Log in" style="strokeWidth=1;shadow=0;dashed=0;align=center;html=1;shape=mxgraph.mockup.forms.anchor;fontSize=12;fontColor=#666666;align=left;resizeWidth=1;spacingLeft=0;strokeColor=#332738;fontFamily=Courier New;fillColor=#908894;" vertex="1" parent="TLr3A2g5SAvAyeFMiobW-71">
          <mxGeometry x="368" y="290" width="238.5" height="20" as="geometry" />
        </mxCell>
        <mxCell id="TLr3A2g5SAvAyeFMiobW-135" value="" style="shape=line;strokeColor=#CDA2BE;strokeWidth=2;html=1;resizeWidth=1;fontFamily=Courier New;fontColor=#FFFFFF;fillColor=#908894;" vertex="1" parent="TLr3A2g5SAvAyeFMiobW-71">
          <mxGeometry x="365" y="311" width="325" height="10" as="geometry" />
        </mxCell>
        <mxCell id="TLr3A2g5SAvAyeFMiobW-136" value="Username:" style="strokeWidth=1;shadow=0;dashed=0;align=center;html=1;shape=mxgraph.mockup.forms.anchor;fontSize=12;fontColor=#666666;align=left;resizeWidth=1;spacingLeft=0;strokeColor=#332738;fontFamily=Courier New;fillColor=#908894;" vertex="1" parent="TLr3A2g5SAvAyeFMiobW-71">
          <mxGeometry x="371" y="333" width="238.5" height="20" as="geometry" />
        </mxCell>
        <mxCell id="TLr3A2g5SAvAyeFMiobW-137" value="&lt;font color=&quot;#b0b0b0&quot;&gt;Please enter your name here&lt;/font&gt;" style="strokeWidth=1;shadow=0;dashed=0;align=center;html=1;shape=mxgraph.mockup.forms.rrect;rSize=0;strokeColor=#000000;fontColor=#000000;align=left;spacingLeft=5;resizeWidth=1;fontFamily=Courier New;fillColor=#FFFFFF;" vertex="1" parent="TLr3A2g5SAvAyeFMiobW-71">
          <mxGeometry x="371" y="353" width="357.75" height="25" as="geometry" />
        </mxCell>
        <mxCell id="TLr3A2g5SAvAyeFMiobW-140" value="Password" style="strokeWidth=1;shadow=0;dashed=0;align=center;html=1;shape=mxgraph.mockup.forms.anchor;fontSize=12;fontColor=#666666;align=left;resizeWidth=1;spacingLeft=0;strokeColor=#332738;fontFamily=Courier New;fillColor=#908894;" vertex="1" parent="TLr3A2g5SAvAyeFMiobW-71">
          <mxGeometry x="371" y="384" width="238.5" height="20" as="geometry" />
        </mxCell>
        <mxCell id="TLr3A2g5SAvAyeFMiobW-141" value="&lt;font color=&quot;#b0b0b0&quot;&gt;******************&lt;/font&gt;" style="strokeWidth=1;shadow=0;dashed=0;align=center;html=1;shape=mxgraph.mockup.forms.rrect;rSize=0;strokeColor=#000000;fontColor=#000000;align=left;spacingLeft=5;resizeWidth=1;fontFamily=Courier New;fillColor=#FFFFFF;" vertex="1" parent="TLr3A2g5SAvAyeFMiobW-71">
          <mxGeometry x="371" y="408" width="357.75" height="25" as="geometry" />
        </mxCell>
        <mxCell id="TLr3A2g5SAvAyeFMiobW-142" value="Log in" style="strokeWidth=1;shadow=0;dashed=0;align=center;html=1;shape=mxgraph.mockup.forms.rrect;rSize=5;strokeColor=none;fontColor=#ffffff;fillColor=#E6D0DE;fontSize=16;fontStyle=1;fontFamily=Courier New;" vertex="1" parent="TLr3A2g5SAvAyeFMiobW-71">
          <mxGeometry x="370.5" y="453" width="89" height="30" as="geometry" />
        </mxCell>
        <mxCell id="TLr3A2g5SAvAyeFMiobW-139" value="" style="shape=line;strokeColor=#CDA2BE;strokeWidth=2;html=1;resizeWidth=1;fontFamily=Courier New;fontColor=#FFFFFF;fillColor=#908894;" vertex="1" parent="TLr3A2g5SAvAyeFMiobW-71">
          <mxGeometry x="362" y="495" width="333" height="10" as="geometry" />
        </mxCell>
        <mxCell id="TLr3A2g5SAvAyeFMiobW-138" value="Sign up" style="strokeWidth=1;shadow=0;dashed=0;align=center;html=1;shape=mxgraph.mockup.forms.rrect;rSize=5;strokeColor=none;fontColor=#ffffff;fillColor=#E6D0DE;fontSize=16;fontStyle=1;fontFamily=Courier New;" vertex="1" parent="TLr3A2g5SAvAyeFMiobW-71">
          <mxGeometry x="371" y="517" width="88" height="30" as="geometry" />
        </mxCell>
        <mxCell id="TLr3A2g5SAvAyeFMiobW-143" value="Home page" parent="0" visible="0" />
        <mxCell id="TLr3A2g5SAvAyeFMiobW-152" value="" style="verticalLabelPosition=bottom;shadow=0;dashed=0;align=center;html=1;verticalAlign=top;strokeWidth=1;shape=mxgraph.mockup.containers.userFemale;strokeColor=#666666;strokeColor2=#008cff;fontFamily=Courier New;fontColor=#FFFFFF;fillColor=#E6D0DE;" vertex="1" parent="TLr3A2g5SAvAyeFMiobW-143">
          <mxGeometry x="953" y="131" width="100" height="100" as="geometry" />
        </mxCell>
        <mxCell id="TLr3A2g5SAvAyeFMiobW-153" value="Profile" style="strokeWidth=1;shadow=0;dashed=0;align=center;html=1;shape=mxgraph.mockup.buttons.button;strokeColor=#666666;fontColor=#ffffff;mainText=;buttonStyle=round;fontSize=17;fontStyle=1;fillColor=#A680B8;whiteSpace=wrap;fontFamily=Courier New;" vertex="1" parent="TLr3A2g5SAvAyeFMiobW-143">
          <mxGeometry x="940" y="236" width="126" height="25" as="geometry" />
        </mxCell>
        <mxCell id="TLr3A2g5SAvAyeFMiobW-154" value="&lt;font color=&quot;#a680b8&quot;&gt;Welcome, (Name).&lt;/font&gt;" style="text;strokeColor=none;fillColor=none;html=1;fontSize=24;fontStyle=1;verticalAlign=middle;align=center;fontFamily=Courier New;fontColor=#FFFFFF;" vertex="1" parent="TLr3A2g5SAvAyeFMiobW-143">
          <mxGeometry x="49" y="152" width="277" height="79" as="geometry" />
        </mxCell>
        <mxCell id="TLr3A2g5SAvAyeFMiobW-155" value="&lt;table border=&quot;1&quot; width=&quot;100%&quot; height=&quot;100%&quot; cellpadding=&quot;4&quot; style=&quot;width: 100%; height: 100%; border-collapse: collapse; font-size: 28px;&quot;&gt;&lt;tbody style=&quot;font-size: 28px;&quot;&gt;&lt;tr style=&quot;font-size: 28px;&quot;&gt;&lt;th align=&quot;center&quot; style=&quot;font-size: 28px;&quot;&gt;&lt;b style=&quot;font-size: 28px;&quot;&gt;ASL lessons&lt;/b&gt;&lt;/th&gt;&lt;/tr&gt;&lt;tr style=&quot;font-size: 28px;&quot;&gt;&lt;td align=&quot;center&quot; style=&quot;font-size: 28px;&quot;&gt;&lt;u&gt;Beginner 101&lt;br&gt;The ABC in ASL&lt;br&gt;Deaf culture&lt;/u&gt;&lt;/td&gt;&lt;/tr&gt;&lt;tr style=&quot;font-size: 28px;&quot;&gt;&lt;td align=&quot;center&quot; style=&quot;font-size: 28px;&quot;&gt;&lt;u&gt;Lesson 1&lt;br&gt;Lesson 2&lt;br&gt;Lesson 3&lt;/u&gt;&lt;/td&gt;&lt;/tr&gt;&lt;/tbody&gt;&lt;/table&gt;" style="text;html=1;strokeColor=none;fillColor=none;overflow=fill;fontFamily=Courier New;fontColor=#A680B8;fontSize=28;" vertex="1" parent="TLr3A2g5SAvAyeFMiobW-143">
          <mxGeometry x="110" y="261" width="387" height="547" as="geometry" />
        </mxCell>
        <mxCell id="TLr3A2g5SAvAyeFMiobW-156" value="" style="shape=image;verticalLabelPosition=bottom;labelBackgroundColor=default;verticalAlign=top;aspect=fixed;imageAspect=0;image=data:image/jpeg,/9j/4AAQSkZJRgABAQAAAQABAAD/2wCEAAYGBgYGBgYHBwYJCgkKCQ0MCwsMDRQODw4PDhQfExYTExYTHxshGxkbIRsxJiIiJjE4Ly0vOEQ9PURWUVZwcJYBBgYGBgYGBgcHBgkKCQoJDQwLCwwNFA4PDg8OFB8TFhMTFhMfGyEbGRshGzEmIiImMTgvLS84RD09RFZRVnBwlv/CABEIArwD6AMBIgACEQEDEQH/xAAcAAEAAgMBAQEAAAAAAAAAAAAABQYBBAcDAgj/2gAIAQEAAAAA/VIAAAAAAAAAAAAAAAAAAAAAAAAAAAAAAAAAAAAAAAAAAAAAAAAAAAAAAAAAAAAAAAAAMM4ZAAAAABhnGQAAAAAAAAAAAA+OfetY27zzD46jq20AAAADWhoGGfN+nQAAAAAeNcjNa/8ArkAAAAAw4F9e+z5x0p8wv3d+nZAAAAMc4hblJjm9mvn2AAAABiLof1ObVDiuySwAAAADHNYqP9Cs2bU0phSpf9FAAAAFVrE1NHz9aNRiu3AAAAAc21btlho1rqAAAAACE4RZYjYkAxES+Yi2dXAAAAxyPoHPLhJq7XLFY6ReJvIAAAAiqrYoDRZ1LdVum/QAAAAMcoiPsVuwZfcbI5Vvu8yAAADHHejc6jbpYw+av0cAAAAK3q1ySms1f48NXsAAAAAFH5LZkbI5+Put7E4HxeLuAAADx5L0Oh3SowuxQLR17NY6IAAAAHjS67dzy+6rGdkAAAAA4X75a2whteSmqLY4CZk0x1PIAAGKNE37b4/eKJsSNs8+afHVILcugAAAAY5n5bO/Kwmt6afUMgAAAA41FxFjpXrMRHZ5CmQVTumSqfpP0AAA59WrDK2Wnck7ZXpST8aRb6TjtH0AAAAGOTTGMztOtHrz/tIAAAYjJQFe4Ra9fykLrA2r0gtqJ5ZbNlUf0t6AAAxy/wCIy7Ubs/5xvdxQcx6afFrD3kAAAADly2KpafqnT93AAACrfnu4d9Cu8Unfuw69h05j6gpCsU+cr9h1u6ZAABp81mIK18xvEtQ+jqTYZOgdApPUNwAAAAHxzC2/MTMKj1H6AAAGPzr7139SfQcB37pT560NOpXlyH6lSM7+AABA/G9z/Vk9K8c7umzyyo95591LnnVdsAAAACgyGtzbq8d63UAAAHFKNaL10IOOS/3Y+Y2qycz97NP8VslZs1du3WAAAPPktZ0/XbvlW6Jyq/yenznSvLqOQAAAAPjgPWPTRpnS5sAAAMcS0bpWupVTXbWxYKhLc91euVWpdEqEbulO/RckAABUK3UsRd361SueWH1jfa889tHQfoAAAABjkv36LXH3kAAAHLeczUzdZOdYpG/M85q+vL9G+6VTZbSmIC+9NyAABSvGg0fy/Ve3jHHb+OVdv2wAAAADW5bdhVOn5AAACka1XsNpnjWpFypdQxE3uMxO82sOKf2+25AAAQ1Hjb9Q+wKzzi7SY5d7SFuuOQAAADHjS6l0H6EPIWLayAAAY4d0zm3bforcl8QXOI3Q7TuHI4TtNs9sgAAHzxjolQtO9zCR8ZiyHnyW7TcJV+n2YAAACJofnPUWVm5nTr3vZqv57173AAAMQ9K3t+4lFtlVuHtq8a6YKhvdEzkAAAPzh2qhdW4f0nNWr3U/RziK6b9FF6fOgAADFcp9ufEDG6u7s2PPjAykhTelSIAADj18pHW1UkN2sSlCp93uYQFa3egzWQAADjXQKJ72H2K7V+qQ9D3L8FJ7QAAANbl9zB8fb4p/rZYuuXiB6XkAADkl2qHTfehW9Roa25rcN622W+jxptpueQAAKBye10e+3UV2D1fbX6TkKN1/cAAAY5zPfYBDpX7fFK3ekbIAAMcutunWbtiU+eez+R51qGfVV3ut0LsW8AABzqjTtkqdxq9uK1XNbpGyDW1OjAAAHKbgAedJhpul3e5VKy+V2AAA5tO+9EnrohIjeAA8Inp4AAHNpH286L7WiQGGQFa6uAAAqelJgKtB7u/WpOsdfpl1g+hgAAaHLb45n2LNV9gACs9XyAACmMue+XRsgAI3ogAAGOcT/wBvj7EPrWJH0nRm7rSL1DX8AADHIb0ru1aKNOfPz6AApnZMgAA5xI+jk0t0MAFfsCu9UAAAxUfb7QE59oWDu4psZvLb7RN/AAAUVKqBf+ZdAre1NAD4+6L2f1AABSNORYot7ADFFvaodhAAA8+WXEpO/V4Hp1gPGj2/W9frc9Ia/gAAHEukDnl2o14yAKJeo316AAADS5Pcyp7s+AHP+gKn14AACrx8l8U2KtsZ9W9SfSSnPsqll9oLoYAABXuYdLgqB5vLq+QBz2PrHbL+AABxW8EVQupADNAvyrdbAAAoUp9xG/j2qS10e1yQKjbcwXQwAADEZzyxblHvtItIAc36BH2K0AAAchthzuWtwAj4C3qV2cAADnk19j4q8bA9X9AKfb8wPRAAAABzz73gBQel/Na6YAABU6XaOb9q5xawBUfS1Of9yAAA5xPfY+ICH37WB8Uy7ILoYAAAAiuX3MAUTpCjdeAAAVir9F2eQ20AUH1vKo9HmQAAc9mfs+FFuW2A+KjcUB0TIAAAB88kt3yZ+n16ekHbvqIs4AAAY5bZPkPozSNq2PCM6SAADV5/ZGvTfS3bAB8VK2/db6UAAAAAAwZxkAAAAAD5+j5+gAAKRCFu+/TP19fefR85RMv96suAAAAAAAAAAAAAAAAAYZAAYZAAAAAeePD1e3j7ZAAAABjR3NXPv8M58vb1AAAABjIAAAAAADnnzES/hIwXWAAAAAHHvLa3K967e3DS/RpIAAAAEbyu0eM/CQcvedwAAAAAHONXzlNGR8OigAAAAOQwtr2ajN+Mn4+nQdsAAAAEXTJDR9PD4+OjbAAAAAAIT6gvry3fi3gAAAAYp+1r7GY/c2/WPlZUAAAAGv4xfj6SUJuym4AAAAAAAAAAAAAAAAAAAAAAAAAAAAAAAAAAAAAAAAAAAAAAAAAAAAAAAAAAAAAAAAAAAAAAAAAAAAAAAAAAAAAAAAAAAAAAAAAAAAAAAAAAAAABjOv7Q9fsUwAAAAAHx8e3x9MgAAAAAAAAAAAGPPmEb9ye1swfj136AAAAAc81feFltaw3D6AAAAAAAAAAAAOQ2GKgrp9mhPWkAAAAFZrVlrltMVGct4AAAABjOnW4vU6fjIAAAAB5c1l8UuWmvU0uigAAAA5Zb6/YNhik3KqdLyAAAABjX4bCzn18+k11rIAAAADn2ypt+zRLdES1Z6+AAAADi8/P0uQ34ubm6j0sAAAAA5XEfQfPasgAAAAOZSqn9DUva0J6Dv8AOgAAADHM/mVrlo8qJveNh6XkAAAABw7SnvVr6Gr1uwgAAAAOYS6p3+my8Zo+fj8dk2gAAADHPY20bB8qZ69UyAAAAA4T79I+itU3pF0AAAAAcwl4PdsUPpWVC1u1UvsuwAAAGGcc23paqWxVrTU7JbQAAAA84Ca2eI7Fuk/OrynNu97YAAAAGOdxMJYpKdHHL3K+UP1TIAADWpuhi2ztNpHRXjC2ByXvfoAAAAPGnwsP1rlU1BX30qGav1eyAAAAAI3mPj0GmW+NRleu5U+x5AAAVrT1q5O39zeyNHwk/mPvIAAAA8qb4SXx88q6r7ezw9+W9KtoAAAADHHdqc9avsXPm/tbyqdiyAAAgoyF07PN78JW4+O9LrWul+wAAABr06Rj9z3+PSrWitzG55w3QcgAAAAMcmn6mkLlCxsVbvH1qfZMgAANau4nK/Dy1x57utvQiOogAAACrR2zoyP3anLLfX425VPpGyAAAAAY4n6TvrofejfOfW6pWjN7yAAAxS7LEyklQb7RdPU8d7dvmQAAACuRelL788xTPiSeNF7KAAAABUNH4u3NbjG/MPN76h2mkXeO6SAAAYjah8z1l4X3Xnc+K/0UAAAAeNVsEZYsnzzjV1dew9EAAAACs1e9ybSgJzHNdm2lY1ZbY0ejAAAGvyi9IfzvNbrtpFOtdh2cgAAAIfm0LMW66Z1ea285/wBHngAAAGOeaHUslQn1VirUFRj7XD9O+gAAFU1fGN+9OS1NC6+iPpV3rf17Wez5AAAHzyfxhvGO/SDl/tZSnVrt26AAAYqmxZIxv+hAwdqqGzVZOdxDxD4iLp0XIAACgQvnAbv10dUfD38oCXvH2QUnb8gAAGlw3VmpW2QurX5ezSDnuz6/G90DdyAAFd4v7WmkdR6BlimlXtTRiG/A+9t+KJ27IAAChTFMr1qmZB8eNXWTa+x8Ve+SoAABjkfvr7fjZ1Rt1H9fjd+rL9YqfQp0AAMcNj9Cx27R6e+adMw+ttGMg114yAABzufUm6gACrdOyAAAxy23Uv7shUdnTm4v2qnTskB1DIAAaHErLOb9Q6t6wraxTJMAYqnXQAAMc5sSl3MAA+Kl1YAAAx+a7lqr2IWa+ara8hUeuegAAPHmO1q2HRv9YmVAlNoAKj1bZAAA5rZVN3bD9gA+Pus3aWAAAY4redSr3MCjXkGjL2kAADFW5h0zmDqkx88sugANX2uoAAMcpuSm2n1+wAxWrNr+dyAAAOTeX3428GKZdAIro4AABHcFlLhodG0aFagHjAWUhulAAA0+e2lSfW35ADHHex4jL0AAAgqbOqhm3BGfMqIWaQvS8gAAI7ltt9ICC6Lz29AHPugZQnTAAAU/091Ji+kZABRb1iLvYAACj+uVVjrz9BWLOKXPS1Y6yAAAOd+u8h5ih3vICl3RiH6UAACgzJUad13IAfFH9dKf6UAAAouzhW4G7bgU64ig3LcrfSN4AAA+eOXQVOxbQCm3IhOl5AADn04VKOvmQA+OcT9e7d6AAAKNsYeEDNbYj6teRUbc8fO+AAACoV2fyiPmZAU25EH0zIAAUje9EdRukZAD4qlvpnV8gAAIGH9Cuym8FLuuCo25nSvwAAAxzLbknOrpIgKfb8/MN0vIAAaXP7Q1uXdYyAGKlb6j1LIAADR5laSoT8gFTtgqNuNK/gAABjnkLrbdy2TGfnHzAy76i779AAA57Mx1au2hJZ9fv7z9/X1nCHldGw/QAADHKrI86DbZUR0NahUbczo38AAAAxnAGQAAAPOn7Vqa3v8ATGQAAAACiwWfG+VWYGKfcTFZtf1mLv4AAAAAAAAAAAAAAAABH4kdWP3H39/WcPr6yZAAAAPjV984+/n49MPj7eoAAAAMZAAAAAAAAAAAAAeXNN77gJGVonZ6NASMz6XYAAAACjVq1RHSwAAAAACteUR0EAAAAAKREKreoOv92537Y2Pq8gAAAAxz3Ymqr0rIAAAAADl8RZb/APYAAAABiH+dTc19vU3vHbrkj6zgAAAAEO1Yu7AAAAAAFehtXogAAAAAYADIAAAAAAAAAAAAAAAAAAAAAAAAAAAAAAAAAAAAAAAAAAAAAAAAAAAAAAAAAAAAAAAAAAAAAAAAAAAAAAAAAAAAAAAAAAAAAAAAAAAAAAAAAAAAAAAAAAAAAAAAAAAAAAAAAAAAAAAAAAAAAAAAAAAAAAAAAAAAAAAAAP/EABoBAQADAQEBAAAAAAAAAAAAAAACAwQBBQb/2gAIAQIQAAAAAAAAAAAAAAAAAAAAAAAAAAHeiIABnwUavUAACrH3XaAAEpByAAFfz9Sej3gADH4pb9CAAFgjJGIAMflasduT6eQADzK5wj7IAAlKNWWeyXIACKrz7oW+f74ABjo676IAI96kpwxlq2cgAKpy8tJn9oAAjg5HbeADPO0hzz7avUs5AAU8n4O62rP7gAAzZnpAAZ69iNd2Wm3erADBbppyd56EgABRj76EgAU5fQQjflzX7YAA8+7V3zI6fQjAABPFllvugADz90qZ9wQlqukAGDZq7iwereqgAErpwBnADDdbVGHeRS1yAC2bldnXKAAvsFda2qAAz5dfKgLdAA0cdAzgBrGbze6d0KgBHzbZAJ6gBo46HO0cAJ6IM/nQ3bewqADLlvtqDstQAv7zoc7RwAtmeRfr0IQqAAMQdp9IAWyquDnaOAF9iFV/SEKgADJE7KrbIAO3hCdUAC26CYQ5QAAAAAAAAExzgcAAAAAAAAAAAAAAAAAAAAAAAAAAAAAAAAAAAAAAAAAAAAAAAAAAAAAABgwVc9jYAAUeVnezrAAAAAAj87pZNftgAHhxz9s+hAAEcvGi0AAU/P8ApSzc9a4AB5NkZV+sAAK8kO6rwABX4uxGGX35ACKWXPGWy4ABEwQnqvAADw9UnnU+1tAEIzef3npAAIwtj56PoWAAB5e2qvzq/b1ACNdksufRqAAQrtliqnvAABRDPHPT78wBDNfbiot3gAI1Wyrw3bAAAjTVU7n9DSAMtUvVxVaNXKogBVnvv55dvqV8AEKGiVUaXXLrwBjn6M0JkM4AVZPVnyrtnYVACjNo0Z4wCeoAYbPSmBngAO9t6c65QAEc1sYRBtAHnz9WYIQqAE7HQKOABnqnHg7zXIA8uz1rQVcqAFs+dOd52qAARyO8Hea5AOeZL0dgPGvvAE7Q53nYVAAhRZSd7zTIAwPStcHl6LQBO3nTnedhUAAAAAAAAE4WkRyIAAAAAAAAAAAAAAAAAAAAAAAAAAAAAAAAAAAAAAAAAAAAAAAAAAAAAAAAAAAAAAAf/8QAGgEBAAMBAQEAAAAAAAAAAAAAAAIDBAUBBv/aAAgBAxAAAAAAAAAAAAAAAAAAAAAAAAAAAWz99rpAAJ3zqzgABK7ynwAANVsokMYAHu2xGrIAAW65RjhAAE9gJZaAAW65QT5oABo1XV0YgABqtith57DGAJPdtk6IYgAC3bPyrAAD14tvo32QpQxgCyMd2qqWXIAAe9P2fPzgA0eUJzdGq3LKrKALley3yFeQAAaNseYABptwl1l9lXjFEAdCnL7vsr54AAX7/OZEAF2zmpytushTmiAHSoxedieTlTtAA9s1aI58sAAdLneaKJ7roYqYgB0sGKPR6XGyrbwAlqIyI5vABvqot266YPPebUAI1VJW0DYAGiwBRUANWvFLrAYeaAMckQNUgBsHt9daqgAS6tE9cgUcYAY5IgapAE9KM9E6KJVUABr2VS2BVXyABljKISjpmAXXR90wr8KqAAPfe76KK+UAKIXZwlHTMA0WEZBXnAAO1M8ppweABHKFtd1oBfa89BXnAAAAAAAACfvsR488AAAAAAAAAAAAAAAAAAAAAAAAAAAAAAAAAAAAAAAAAAAAAAAAAAAAAABt22y5OQAAnotYoAAAAAAe/QUeaMvIAANlyMcIAAbZ+ZagABb3ccbfeRAABr1Sqz5QABbtn5jzgACXYp9n5bxPAA9817Dn0AAHvvQurw0gAB2a4+6rePkAE5QdOE+UAA9sql05OXAAAOljvv1S4+cAe30ea9OfGAAnKvzdfVzwAAXWarJW8KIAnqop6GijnAAPb6Yz6WfEAAEtGqaF3LpAGq7yq2dXldUAAu05s7tUciyQAnoZfLpdmLyfLxADbKADJ4ALd3GpldCEbbwBo15sujV0Qz8QAdH2kBRUAIwoEomwAJdCqHTuPPHz/gB1GcCMKABVROAGqQAdXXnutFVnAgAdiGSQIwoAFFUohKN9oAW9udVoqs4EADsRzeAvyZwBRUE4Ft4ANXQz6h5PiQAOkyWxRNGSoAVUSiBbeAAAAAAAAFU6gklMAAAAAAAAAAAAAAAAAAAAAAAAAAAAAAAAAAAAAAAAAAAAAAAAAAAAAAAAAAAAAAAP/8QAThAAAQQBAgMFBAYGBggFAwUAAwECBAUGABESExQHECExQBUgIkEWIzAyUFEkM0JDUlM1NlRhYnElJjREYHR1gRc3ZHKQJ2VzRUZVY9L/2gAIAQEAARIA/wDgGc7hTdfLVp2o4XUyHRi2/OI1dnNf2n4I2F1f0hCqfyi9ptlP8cfxMxgf2iJ2rQ4zowclpZVW9/760yWlqKtbWZOEkTb4Xnz7LLteZQ1AIMTf4DwM+yWglCXLBRZNcR/CswuYYvGAyQbIq5o3NarXVud4dcORkHIYj3+SMRd/XypUeGxSyJAhMTzdDyrHrGW6FBvIciQ1rlUV7l1tBnEr6fE5tidGNdz+u7VJn3YlFARV3RFXtW2dta48v9y5lmNAjDZDirDxPIkmhyKmySGyZVTEMP8AbT8EKZgWOeQjWNTzdKzPE4jnNPktaxU80f2j4l92NadYT5CqMstrPJ0rD0yw4ha4kkGnlYPhV7kaiua1v4IRzBsVzlRNvFVyjJpuayDU9Cdwacb+CXOg1VfWx2R4sQTGNbpYUNSNKsMCvT9rRRDOxwijaRjvBWxqSrhxhRhQh8lhnFY3wRPyTRRDMN4ijY9jm7PaDGcfjFcUVPGRyu31Ox2msAOCWvCz5sf2Y28uVVTqewPzZVTJ6fmetyvMpMGWyjx6Iky7Mzfgi4ACYVs/Kp5biaqtVUhU9RXcKwaqJHVrdkX3MgxOTBkLkOJJ0tqJzXvBT9o+NWFZVypM8UE8gro7gMewjWvY5HNXxRfwCzta+niFlz5LAhYni72tl2Tuc6uZ7FrV+5ITBqQ72ktuotDfxAoaOI1rY9NAEiaOeFVxSyDPFHjjbu9wb+N7fm2tNAnXEo8ZkQKZZW3k6FBk3VkjpxbGIOBCrLaBbrMSJI43xjOCdv4DlufippDqaoi9fcOTfkpd3s2AAVkUCGVmxkEEQGNEEQxsTyb3xsieew6B1JPG/nOYr9ToMexiHiSEcoyN2elVSx6lS8iTMLxtam3dLxMU6+mzJKk6Y8ce2qu/u8ElxWTbIs+gKZonKj0cjVTyX1eY5C3GsfsbJERxmt4I7MKxx1JAfKmqpLaevPnmbeQ3XxaNeNJTYbZae4rkRWoqom67J3R7GDLkzI0eUIh4zmsOwuD15ry2kmAAtbZRm9TGxuROwbJI2MTjvNTzuL2WZq7+udqbaWORXR6+qkli11dIakyZAqJl5Ze27+O5vKe7oIHe5rCNc1zEci+aIiImyIiImixIE8kCU8bDOjPcSO+0H7CySov468ApRW19gxv4BktmlLQXFl840QxG6xatJEgdbKfzJ079Ikm1be3UaB1R0iqjnc1tWKwDDE2xkjNJ3cr3e8t7VMlzIhpbQmjcKkRFRyNVF3RfJdXlettUT4DVRHGZsxez3OGWAo2P3SvBdRRcCtTy9VnjVtMtwOmViuEkg08rdZxAlxy1WUVwObKqiOUoam1h3ddFsYJOMBmcbV7slx8eRVzY6yHx5AStPFPR5JcwLCLj+UQHpLe5zI09+NQlyMGQBKUEloXCM3XaBV+0sXnlEjklQm9ZFfjdol1QU1iu28mMx7vXXM1K6otJ39niGLrE4PQY9ViX9Y8LTldqwyjH6ovImWgWG/lJm1M77grF6fn9M6v+x2q6+lfN8IuP3J3fJCxcpyDiDM4KiA774ocKNXxY8SIBogCZwDZmxRlxaYYL2v2KBRuZ9we/5fgHa7YgbjKU6cDpdnKAIIxDQQxCRNkYxrET3LTKaqsKWMpHGmN4USMF7yiE9w1G5zGqrClGEbylejWMY573CewwI8gS8QTiaUTtTKeqsCsNMrwGe3yciIiNRE2RPLvyiAp6506N9XOgfpMU1FZhuqarsxL4SY7C+pXQHrc9qlvLVn1NPWthscurxCWGe4vAUjkDEiHsFbNp7jD7EttjIVPWlfzJ1VQZVS5IFroMlEOjfrY3d/l/l3qxCo5iqqI5uy67KVcmEVolermhPLEz12YBfIxXJAs+86ukomqczJFRVmYvwvjBVNHyAcmTdtM8celhMJHkzKempaqMxKyAIbXta/j31uqfPUiJlgjlLBvIhRue5WA9pZoLwfj0A/8AiNGyu9a6LNPFqoxG7EbkCVcF2IYqBwwDkTg7Mb6/N8wBikALmBWROlPcOHGgVdhKn+3MhldVZPb8De6bcVdaRgps8QXuZxoiKio1UXdF+euAfHzeBvHw7cWssnpX0M926cZmdONCvn1N1QURyosZlAFBt917UeN7FXZHMcir2fQJtViFNCnKxTBY9PUyTMAExiORrWMc5V7MmIXGfaT/ABkWUyTLO7RWMN2jMehU4o2PO426vMLpLsvUuE6JPRd2TWl7RMcThcyPkET5OD2nUAn8m4jT6k6ebKcEe7zHJhUOUy4yFd7QjGsLvN6xlXGsuSxfbkKOk1NJtu3fwTXZeZx8TAdyN3fOnO9cVjCjeMibtc1UVMaDCjU0ONBmulRwKQQygrY1vkM0xhN6KskcEeP3lMAKbmKMafm1zCNa5j0c1fJZH9dqTfy9ly9tZXSRo7i2nNeWbLsa0QVTy9fmCobtFgMKvEgKR5Ap3yIUOYrOoiCLwu3ZrZE8ETbb5at7odXyAsjllTJDto8QTO0OQLiFi8QS7+VHg1wa4i3WTzQEfGdxxoecUM2zDAtapN7Kve54mNzSnE1zLDnwpQ27FiwZrJ8QEpgjCaRu6NPaZDXy5TC0yzo6vcsctSezkxebZQxxyq93ALuxTLH+3DY1YhaLcfMri+ltsukRC2La+vQ4oXCkk62uRVxqqdJOsnruP9BqbIFxABNAjmtf5tOFhhEG9OJj2Oa5MAK2qW2w+SRerq5JlE2yta6nivlWEwQAsTdXYYGbZ2N1lU4Tx9fwigsscStLqymnnZVPFDc9vIiUGLuoCvcmQWcxjhcCB0UQzDcwrUc1WuRUb2dSIBHyafK7CNJ+LZcxjXLsEbJs+nfZV5gS3uCYckIpAl3YVjSMXLrFKnGbubzOBzYhEGvZ1AWswnHYrm8Lljcx7fWr5awheCrnxF8HxbaaIiYu5VNlCL47XknVhV3FlNdtekiQUY3hFV1i1bDsWxmSkerVTus8dorowj2dUCU8bOBi1uMVlLOWTVo+KJzHISJa1cuTZUdjCKJhochyEQhfb+ZQIDFRYNQrpEl/r+1GtLDJT5bHa56QHODMHGsIE3hSNLERyiaXhmwL9LLq62zE0b2NYSP4/PWUXFGUMiqPLk9Ujmqjcdx7PLuGx8rIGwg78D0tsMm1MCRPbnFkNgWcwy4uthVmPYV+IW1pJM3ZZ9XJlzIEc8yvWHIejuZH1d3WUR7HoabF+pbymv6yybmdkB9bdYvXSYktGiKaemV4tYVNK8kKayTxMiyfcytSQY8K+jeEqqkskMWMZhgCMjV2exr0T0Srtq2V2QXzahpiNhxGc2VoSomIxYIl+ObZuFrnsNeWkvi3HTw+BmsceCnxaPLnmYAaCdIK+NLjTgCkxjjMEjdxkzDDouQsHOC80e0hscsSVGtIh8YwOfkNeGwJJnlASWAwDhEaORrwvY1RuyqyvquAA1HUpPkOkNY9lOexkVkM1nFZHmOZuYOjuIwB3iHxvaxysbil3mFrMlMvMdbAjsFuN9hBFZQJkE/6uQFwn6wO76cb8StXoO0ruIbUyoa5TktHiYnK6OJ7Z9pprUajURERE8k9avlrJA2OMXUy8qljPjTWiSbHx6rPVwHMlEYSUeQaRJdkV2tBXPnJXSpio9qcGPXBb2sFPLWHhK57kQWsph5hMJCTHrWPDGiO5ywmy2RI7ZZWEkIJqFIR3LY93h8Ld9RWWKWPZ8CwfvYkly5UlrfUOu6htl7JdYx0nqzjbFb72TWEWqx66mywMMIEQjnCxCkHV1rDvENJMr60i6PKBG4Ueq7r8uSY0KVaNIgANXlhUtfKqZNWkTmntVG6RJFVzvaUCLLQfBzG78M7OcTrZpoMu6YKQF/ARoijMNhRPR7Hta9rtXOSUdByvaliKOpPuNqrasu4jZdbLacCq5nFleNjySuaFp1BKjv58Q7cmn1ks9ZfU52ywMaquhSxTokeUFHIwzGvYndkYz3kqrxaH4nsCtU7gsYEQxsTZrU2T0b14U1VkICjyi4TxIcx3osKIxtpiMHbdsaC6S5DyOHGrAyvVrrC0Ijlmti5TiVrDq+AiGiFisTsciy6hmTUs2YqyIM5rHRiOYNivc9Gta3dVNJqsYdkNLb8olLYqeXVSsAkpMw6gfxo5WxuW7vqsgqreEWdGkI0IikGRWPYVjHsejmObu12p8wVfBmTTfcjheR+qGru+0SXTWOR13JhxAvf1D6s+F5xUXSTzSAXMw0SWqLv652s+A0ZYU2ZziU5Amh2Q8RtFtIE13VtO0E+SAb9Kvhuq6vsqgVMB5Y0iPJlucxkeMnijV223b5az56pilpHb4kltZEEmP4mtTKfY2Fg6wsFC0Azeny/IW4tQy7RY6me1zRiEatsL6d2gntmCjXkUMadGdgFrNqrepgnsZUqBeVjJMV7fdympdeY5dVbHcJJMQjBrjtk+XFdClR1jzoXCCSAr2CG97vBGt31GiHWDFREXrrgvAxZI45reBWs2ZAqAtkSNNM9lPeX5UVDz+IcZtZFWDXw4y7cQxNR2p2O0dnLjzZ1WA5wcXLciI1GoiIiJ4Imr3HKjJIzY1nG5jGv42rCgw66MKNDjDCFiNRG5a4pT4vADaPhvlWw9c7rM5yuQJUUYhRo3Fqjl3L+sjW0bhKB/wAEjXZxyG5ll7ZjU69WBfGX0c8vTwJ59nLy45H7FH0/Z+ESsVrioNdMjFTJjm5TvgqWsY+AB6Aw2MYJd3zjnK3FU5iX8tycKHszcDabJDx+2G8gRqx6NnPaA2u0ydIBjaV0XdJFtNDXDfAqoVfXQq4IWrHjCaMaYY1KS6yrHH/AjJfWxG903s9xKfOfOPVfGR3GVs6xqqCCIkw4okVjmCYrCMexj2PRzXN3R3aLJK+qh0UV+0q4lsjM1FiggxY8WOzhEATRjTtNAhsLti+RI3JOF1bJbMrq47TcbTRxkV3rnNa5FRURUXzSGAVJmN7VsE0QZoQzozdKiORzXIiovgqQqKjqyc2DUQoz1/a7pjPbeXUdY34g1/8ApGVpfUdquU2c4d9QwasZoVc6I+bMrCsPnrX+PKusaCXUczouG4zZqv1mP37hPVq7o33V+7q75MvtKtDRhoiRa0QJL48Fbixj17V2En1slZECwhWEu2jxmSlaEYI0cE3nRnVjuaKxs5281b0olt6GpExEDG4Svb3WD5ooMx9fHYaU0TlCKFa5rPsIAiYwGBFY/wDTS92cnsJWV49DqTsFKhRjyXvp6oVPD6ZhXEc57iFL3w0cztBxB4F2K9kth/SZaZsXHbNzXrxKFzd4cETquFFMBpGMCJOGSaPDFzpUkIBp5undqOMiM+NWDmW0hquThL2nrWujvvcUs6+KV/AknFLHC8ku7W6qWvSzWOMcjXaMjfafZ84rXcpLxm6p5aziMWrk1eXRQcx9Y5zJbIUyPYxI8yKRCAOxrxuXxTwXb++yFlGNCY83aDFSKQvAN8Srk5plMePNvjXFdDZxzSxwR6+ICOFEHHjhaNiYy12U5PPyp6K6DGY6HVrrtKkq6gbTR045tvIZEjMgRWQ4UOKxGI0AWDRPX5zWnWLAvYTHLLqTqbaHKBOix5UciPCUTSDdZxJU6G+PGsHw3uc36+b2ZyTyyuFkZXAIrV4hM5IhCR6u4WNTe5tY9LXSJ5/FGJsxmFUUiqgHm2K8VpYm6mY/07tRY40yjtPpPPqmCkIlZM5EDsxu3/ehzDVZ3VtQybI7S8XKzhBIkNlhXs3vjWdAkOb8NjVv6OWz3F+7q8x91FYX111KlDYHGRRgjScdxadMYiLNKxpSKKVe04QSpEj2pBexr3PC+ovY4JTWBOxrmvR0mWSTNubKLs5znu6bWIXRL/Ha2yMrecRjkLrz1H7T6oxpqOq7HkMNwBM/tKql4Gx6a7O9XfdxvIomT1zrCKAwxoZw9lVETdV2RPNaqSl1c5Dfp+pkGbHi9026kVdyIM0C9DIE1gS6ymfLq6aRNirs8bwqusDxexBNPkd6outkAayMD0ZhiMJwija9i+bbjNLO3sjUOHMYQwH8Eyyt8RHXhj2FpXWWUyuNyyXJkp40MttWRopsZc/p5sFatlNMTGmHWRj+QRDJA12PV1lKnW1xZKxpokdlSjO02skT8WPJi+EquMywDq2yQpjdnd3FluFAmy+VIZIkwhFBEknEj5XMYMRYVr2cSDyK8D5uOke55YlPf099HYetniMjm7qyRFjzBPBKjiMN3mxVqqOG7fpYMVniqXFtY5pDnxaFXxqkYXrKsaS6JRdkLJwVVJC84QNBkwsBxSEyymOKscLWaxKjs7Gy+lmQgRkpwuCuh/gCojmuRU3RU8UqbkuL3mS18gKpRAtHiEQRRnGwoSNexybtdqwsYFVGfKnSRhC3zcwE2+e/IJwHhjRGPJVw8anmtcepZx1apDwhEevqMlSbXdpYJENRMLZ0bwRnU/ZhAC1576W+cVTOPyJOWYtAJyZF/AE7y4aafEhdoxZTSMSFf1w+jPd5BUY5BJNtJjQBbovazgYo7DLeKrnD5iBTtSrC+ELG7+U3Zqq8faDaH41jYBfEEi7cVbn/AF8uJFfid+BxyNGr8p3n22P1G/wPK6QdJ8yHBiHPLexokbsusSBOZInvQcmPXK7eMCfXV9UC5sgsUakiPQjILVFEjp5Lwb6w2f7BvrLHpROCNMe6XWrq9x4s2sixqaZ7NNENzYupn/iLawW1DqiNCeT6s9lT1cakrIVdFYiDjiaxNZ9fHhQxU1aRFs7L6piQIQK6FHhATZgmNYnuZJNZaBLj1ax0uylcI2Bp4j4FXWw3uRXR4wROX0efWx6fFLeXEa5TqPkA1j8Cuw/GoYpBmAawTSSjC7RpL8hdHiwGzqmTOBEiSZgI0HJ86jNRrIs3HXS5DZkpjMX7KCSjowiTIj+Ps2R060zW7jq5sCbYtSLp7Ec1WuRFRU2VL/C66yxyRRRACiiVNwpkcDJ4GLVN5bMES0oLFpUeW3lGzmqiBkv6GRRvk8mzwXGrI7pLoCxpC8X1xcHtFa8QM/vhhc5qo2P2cY4wySZ3V2Uj5v5TEE4LWta3g4Eb2aAFLxQ9ROjCK6DZnjlEPBxGyct/aTXzVZw9DGX8CoUHIyXtGRzUcNbMTFT6KFryvNj9wavRzt3xHxs5e3gbb1I//wC2vxAApTLC3sJNrNb+reRiFY9i+Tkcmuzk6PxKBHX78Mp4hE9R2lq+J9D7JH8KRb8CPW/g2D8hskyaBe2Va5/HBFgtlh1o+VWwsaFDkD4nqHtBrGPxnq4wmtPUlZMjJb4zjmbQ66VYw+cx0fmRiUWPVeOQhQq4CMGxu3Fw64dKmpKMfm8f82Vjl1ZVK2cytcUqdNHe4jw6yqzbPkNqI6qrBva+U62tI9PCfNk8Ssa5rNr2pjWkVqGkpFIB7SBl0+YmrngqMuZ0kvbYU5rmPY17Xo5rm7o7+7WQZpAqH9BAZ7QtXP4BwaqA9J1jYWM8Uu2e7lynTmSCwpjIz1YdwSIJ1DInyKwHtCIQEkf1ZE1ZZJUVsaQZ1hGe8bXbC7LsebT44CYcCsn2CukyX+k7RZVjBw27l1xiCkBE16PSPCvKqKk6KKQA4RFVmbTxVtljRq4SHkU5XHLAk/SnKp1+WFj0wK24gACa/ob22kYyK4AyG+SYNfAroMSLAix4cUDBACNoxD7l2TUc4L3tFnToKo+LV1nRvN7k6d9Ac2W1N/RF3wskrGlRpoAyYx2FCRiPG/8AAZMoEQBpJyIwQmOe92DBK6usbYzFa+2sTzUTv+eqCQmP5bbVZl4Yty/rIS+o7Q6Yt3h9zGC3czRc8SY1ahu6OpsBP4kJHbzNdnkdGxshlGEqTD3cvnvywoAYxfPkbKNIJ0XWLfDjGNtVrkclZERyd8g44sc8gi7MExz3LjkMksp8gmcaSZbncturGZb2NySkhEbGG1jSFksjx4hpUQJWvcAzhlUwASGtacTSNR7XomTiQ2P27FXZOmIuqiJDvMVpGWUMEhj4MZ6sXAa+OhUqbe3q2vfxqI+ESJS7Sc0yAjPhR7KTGqTHhuZWwGCVybPLTf0tmX/Xj982zLkshuPY4qnkndwST0eE4zQBjshVEfnCY1Oo9LkNa25ormuf5SYZRprB562WJ0h3ffbHaAmsrjvi5BhlxGEqnSxbCK7576xzfIu0G3tvvw6YPRxV7r7MMfxkL32U9iERN2xizsxzleRyC0FQv31qamvo4AIFfHQQB+Se5lIIl9meNUphtMKLHPNlCBi97jpXlxS/UAFdulcPtCySt4/b+Ey0GxPjPUZ5il25GRLgKF/k7p60phAG4hitY1PN0ztAoxGdGrWybaTvw8kJbPtBAhZ8hsOpbIchK5rWMY1rWI1rW7InuXlLGvYLox3uG9r2kAcd2KkpohsgsBIROARzxJcWcJposoJhu8Uf6ZdlTxTfQd8AyiTVyU4KO2kOPBP567T2SFoIpkIvRCnAWeJnBws4fu8Ph7l8kOzG6ldNURjNaRWsYwTGMamzWpsiSDjjAOcq7MGxz3riMdzoMmzMz9InncZVuqDKqbJLuZV0/tKBZG6hqHD2iRALLNiAXR0+J4rqyBY4jKlRFftLDywpXgfEgQY79uMUcQ3+4dsmNlmYCaB5kdGDYDF9OKN7GtjKeRKf4MiYxVOSDFmWEFRSyM4nAHHAHfliYzdd19O9N01gL2Rn5bSoqL0F2fgTWY360lc0EROZZzndPABh2PsxehgVyOapWt45BL3IKrHID59pLaESLsmiXOa5gipBa6hqneKHpMPpqR/PEB0ia525JprYuR49aGxqW8cwbniHrFb4eRU4ZipwSGu5UoPeV7BDeV70axjXPe6hsOazLc4kI7lG4xxG45Pl2lFVz5oxtPIjtI9NWuOUd41yWNYAyq3bjbDzHDXskUlge2rWcLSVuK5XUZXCWRBI5Hjc1kgHqbi6rKKG+bZS2AC3w3NkOWX/AMNJXMrIrv8AfRYdCM9p7mZLtpHnxSOOtgFWvr0K4bNxxxCS1lyLnFbDo7NHbT65MvJATa/o5kFU8zQsmxyyT9EvIRF/hQwnJuhRqmpNpWQ2udJsYoUTzV+d44r+VCklnk/ghTcks50cywG11cziUjXNR7XNciORfBUkYbRFI4wAFhGXxUra3Mq7xq8xdIYn7lmbWtX/AFmoHCGn35sGfDsoopcGUM4CN3YX0mQ1orOonxXxgGcoSOGmG3Bb3HK6dIViyFY4ZtZHX+1aG3g8G6niEREwG0dcYdj8p71cXpWjIvyTucu2qNVs7O2unIvA53TRu7LSk9lshi345kgcdNACwAQhYmzWMaxE1LlxYEY8qUYYQCbxkKCcTtBv4s0AlDj9RIc8Hu5PWWjiwL2i4PatdxcDMazrGr0yjfwQLTi4CxUVvy9Q7WG1kw+cZNeRJDFhOs7COdusYhgkdp2VnmBcQ8aJEWI6ZLBAhy5cgiMEAbiEdQQZGYz3ZbeiRzH+FbD813Xz7oWOLW5DNtYUzlxpjN5MO1U+GZA7IAMctROVrLMQijMNhRPRzHta9ru7O7EspIeKVpP06zXYq5VHA8dBg1azZshzHma1rGNa1iI1rW7Inff0cyFLbkmNIgrQDfrQ0F5CyOph2cN31ZWeLfT5Hfxcdg9QRrinK7lxo1dRSZUsV1kRWSrFPEIu+1xurtTClPY8E0bdhzFiZvX/AOy2cCyH8mgryXMvlX+BVrGcDlWSuBYYq7/RyImo+G4nEc1wcbr2uTyUQhhZwBG0bU/Z1Ikx4g+bJkDExP2lzHFkdw+3YarqFb1Vku0KxjHX8lT801JrZWMSC3OOAVWKvMnVlZZRLaDGnQy8YTM42r6N2sTa2uvM3o2+DAWfVgTWCHdUZFluMk+FiSPaMJvdlk8ooLK+Kv6ZOfyGJXww18OPDD9wTOFO6c1svKKGOqJwgEeS5LrKKDHWNdaWoI6r9xkntEtrX4MTxiRJG7/fsixbNboDJ8+3DOkjkNJ7LxfKqe2Z7PEBK+ZG+rJXe7dYxRX7drOuEZyeRR4dd0zXrjeZ2Ef5oBmX5jQ/1kx5kqK3782lv6jIYjJlZNZIGv3vTO1g7h9dnTGq3duSS1VuqeSOF2pW4yyhNSZTgexvabIJOFRYwAr0fbTW85AhFHEIARowY2NYNvfNt6h9q3HZ4nK+VG4xpAmyMAmsqrBVfQHK7opjXMe1rmORzXJujr+9hY5VnsZr14W+DGUACVka1zPJF5c2ULjVuGRDznzcqngVkqz4eQz3aQjMXz18Dj4K6+Y4wmt9NIOGIA0gxEYIbFe91I12RWD8qmCVGvY4dWH7Kdd2NhYyKfH+UhI/Ck2dEw2oY/qLFC2cvzU7IsQTeEUQLG/lYY3R2jf0muDx/IpT3eHt45Jy2lQ13xmAcEkApACNIEjGvG6oKuP5O6tXwgWyvPG9I7UoSwO1Aq7IjLKlaqLrIY9dXWNRlsucWMlVxIVRFGcQyiej2PY17Hu1XKl1f2Fq5FUEX9Gi97SqXJrsrfIUYcZHVWEY/VldJ6RZUp335G2yNRPJO69xWmyFGrNjbHb9ySyNnOPIwUGYC6ht8mN7Rq6KrA3tXY1Z/mkC+pLVjXwLeIdF+SKipui7+444B/fONu7tk1dYwx8h1vQSFrrhifAXEco9vxSgmhSNbxHcE2L6TtQsZdVhdnIhvcMz+AHMxVmR4Ulu1cTlTQSitKN7u0GQgGubg+RONs3dmTUeT5nZMs/o8lawERzGaxZR39bjeRTON9iKudEUvuZLjsfIoDgK/kyhu5kWTT2zLoUrGMmhtZZDFwGDHr8rw1zwUgEtqpWuUcSux20s57L3LjhIQHjFgqq57aN2RFx+BI34kRERqImyJ5J7vaFGI7HnWEdF6iskhmiWumDn10GYJyKOTHGZq+lzUy2Umqxcbl2mu583TWsY1rWsRrWt2RPsb01gGqlLWgUktzWjClJUx6OuBBB48PiR/e5Ec1zXIitVuypTgXHL2RStevQTGOlwG5ejxUz7AKbnrjBmDUBhyAAOJeJhGNexfR505IOS4DZrs1OuPDIup8KPZQpUGSziDIE4ZE7OLaRD67D7N36ZV/qCZPYuraWcdj1aRzOWLVRBSsrYUVE8WC+PucqNTdV2RNY8vOjzZbvvSZZiKvukYwrXNexHtXzSfheKWbuKRRxUd/GnZxTBUSxLG2iqzi20fAivRvJzPIhr81+g8wpubJzjICeG211VV1fObElPzWyRjOPfGMWp58nqZOHT4rR8BQn8dZcORTSIGXVw/r69WslshTY9hDizYxOMUgbSDd6PtY/qJd/5C1FzqTCiCFcYpbgOxjUe6tzAdlOjxEx68ApHOTmzWc2HMZxq3iCROLs4/qZTf5G1IOOMA8gq7MCJxH6wuys7miZZWJEV8kxiCb35HjEPIQiVxXxpkd3HGmR8wn0Ctg5fDKJzW7DsXybHtBVkeII8GgR36TIhw4kCMCLEA0QAsawbPemxxyocqM9N2HCQb07KZT5OE1on/eivLGX0qrsjlXy1ju9rY32Rl8Vlyemi/ZEeMTHPKRrGp4q4+YrMMWNjtc6xczwLLhZZksiwfFjQIdtsx3G4wsweF5515V1YUbu/Spe25Xpj9/fz1a7xm0dzctsRUV7GB1iQeo5+sqVI8jF5yeYbcA1WZHSXElRnpuhQkGuuzua+bhWPqR3xhByH+k7U4hS4oWaBqqWulAmt1GkCmRwSQPRwjMaQbtZnUTHJDyGn8LWqVxGICcHNYGNWsF7ViJI5xx92RzFg0lidv3uVwN1XRkhwIcdP2BN3+2kxwTI0iKdnEE4nDInZXLV2Onpy78+nnmhu9J2uFaLBLVOFyqV8cbNR92xwIu6KjG+GitV43tTzc3ZNdmj+LEYQV23jmOJddok58PFZ4g/r5b2RBJWQWVddAgN8o0cYt/cVN/BfFNbbfYfNuuzBzBDy+A1HtWLfydmfL0maWjqfGraSz9c4XJBqogMq6uBAb5R44x/Y29vP61lNTCE+c4XMIafih2iZIlJJyCa5+3BGxOTORjshmtKNv6utmPyARfZtDURAAY1qJKmMxisMwuR3q21jv8EdS5Xds3BwUNc1u/HiFwNcyt4DLk02KSM3pj6zJed9GYLfvyLyIqJv47/4tdm6IGpuov8AIvrAbU9HZwh2NdOhE+7IjkEuuzqUV+OsrpPhKq5D4UhndEVcJzRAeVTfl3Z35SE8uPAiiZxNfLGpl+3xHl1+d5hA32bOixJ7E9HnpqYGNHfdRSmi9RHThXz78amArsjy2hKRg3Pn9bFbnDFm2+EVqoqtNZ816f5/b4ZAmw7TNJEgCsHLsRkA/wCXpMz/ANIXeIU/mzq3zjJ9hd2w6WuLLcNSE+FgQ45UFrIxZE0iFsZj+fNL3WdfHtYj4kh5kG9zeLTlBSS31mI4ex8pvDzZNvDQQmPzG9fMcR31VVR0ks86LdWUYMRQR3AgQP79Q3pkWT+0BfFAqmPBHLrB/gPmYfyviv8ASljJjvaLM3cjIt/G42d+UUI8jpZVer+A36yMXCMhXIqCLJOv6WLijzWuM1qee6/lR5GzJQSpHTEjlBJJHKDTnI1rnOVERG7qoijMNhRPa9jm7sd9pLMlf2iYjJdsjZcSXCVfR9rjeLB5727fUSIxdhP5o2P224mtXbuzHGwWGXUJ+OSJZscwEPZBkPzzCwukcaRq6WV6/aV9+KwvbynbGcx1e0PGXux+zmC7QLurNKK6MWsBIAH0hZVXOtZSBaN8uCiRyv77i1LAPTRY42vkTZjRInfc31ZRiY6af4yO2CCug2l3biubmGsUEVm0CF7k/IpMyWepx0TZEofgeSq41g6OnXNv1FpIRyvkJn+NPCBwpinkEY1UiPFkGSt5UgT6mtd+sZGjR4UcUaMJowjZwDZrDvC2zdP/ALsN3pe0KlNa0ayIPhPrTNmxXUttFvKuFZRV+rkCa9E7oEKbSZzYsjge6tt4/UvXQGJS9os2MPZka4gtk8GswmJBxe+keO6QyMZrHYC1dDUQVXdwIgWKv2XMYr3MR7Veibq3WfKsSsrrljNyVVnGmJoJWGEwjHbse1qtX0XaWxkjBcla9iqrYripqpP1NVWyN0XmRAk37vHbz1k7khZJhVg7drOpPEIv2fz1jaM+lmfO2TfqYSb90D6vtTjOd5EoHIP0hHtGxz3LsjU3VcIR5qV9kT9ZZzJM1695/wBJ7QYDF8Ww6U5USzyF4Jbq2qr3T56NarxMTK73IJVRY2ookaNGCeQ2opLywtZEqk4a2GKccSTanG6+qK6UnMkzXt2JM7znFGCU5yIwY2Oe9yntcwfwxlPX0nzPAr4dXFFDgx2BCzybaUdRdC5VjXhkIjdkWsq4VREBFhAQbBt2TVnPBVQJk86OUccTiPRj0exj08nNaqd2G/0tnX/VAelVNR2fQPKy05uFlLblceuf5eHuZkiAu8DnNXZ7bR0ffWcsfKj0Na1iqky3jMenz+zgJ/8AUS/X/wC0RNfLVzXstqqyrnKidRGINNdmtx7XxGsYXwkwm9HJZ6KyissIE6IVu7JEcgntwGSU+K1rDLuaNxxCe5mtQtxj00QUXqQcMmM7Grpl/R11km3EUX1ifZ4TwOsc1OxPB909OLu4VXtLxpURVRKmbv6TMproGLX0ka7PSGRrNVMNK+pq4bfKPECLuVURHKqoiJ5q/LXzpJYuPVRbJw3bEkWtxk9UN882LV6SiNZEEegpx0lewHGpZBHOLKPVqgszypi+b4laVNYYnJrZ8VfvRrSaNe+4yssO2h11TA9pmXi6oC2WYzl4I2PggJ/OqqmZDJIkT7iTOOdjWPT3M2XbFbv++PwaCnCETfyY1O7Df6bzv/qYfTZNjlblNUesntXgd8YyVN/PxaczGssVWK34IVn4/lq2ybH6NHe0beOFyfui9pEu3nArMYp1dIOxzxHNieSOucZsp9yaxOCc0h9W+RZGbMm1eNA63kROCQGXjVrUZRg8+5uSTZ0uUdHt+f2ZXQ4PaQ8xpDAofHfjXJLijnlYVvaOkSKgtnx23ULGIs21x7H7KVzG8s1tgOLysagTHzJ4pMqfJ6ozvRKm6axdjq6+zelcngCz6sXuXNvGoq2VZSl+rAzfbszLNCy/r58bkGbJZLQP2SIirsq7Jrs6+tpp8tXoqyraWVU7mleztJx5ibbEqJqP9J2gu4qiBE/tdtDB33NSK6itiHkGGBSteVseOCIEQI4mjGxuzGGjR5CgUwmv5ZWkH3HTps5hF8mzah4NUa9NkuVwF8OMoJg0MYUcRTHK0YmN3e58+zzBeTUkfEqN9iz6yqr6iM2LAjNCNPP382XfHyh+Z5kIWttvDuwzwvc9b+dlHX09xSVd5BfDsoI5AX/s/wDhRWtY0Qsjv2RvJI9P2f4lSeMalC4nmpsow+ryiEIMrjCcLt40n6D5uUXRSc72i/zcbxqsxivSFAYuyu4yl7UuCM3ELN6fDEvA8bvm77O8qa+y7QscFPjCkAPVyWPFHo6SKRpI9PCE9PJ2ZQ2zsVvwLsn6CZ6awyc2zxPHZaP4lfBFxr6PJw+ye0Kgs+FWgs4hq8ru+BHf2h5KwqtRcfp5G6aa1re0vJkRPvVMJy/Z2sxIFXZS14fqIhiawGP02HUDPDdY3MXvnEWH2i4RIe4SDkgnRkX0eaO5lvg8T5PsjHVPeySPI51DPjAeV8SxHxtyx0ujn12TwoyyOSx0SaG2r7mzssXTIZAnhlz9lqmMYJjWMYjWtTZE9/L1RWY4Bf319ETS92JfDkucN/OREf6vw7u1GA6dhFzwI5Sx2DlD1VzGWFbXTWLu2RGGRPs8kRA5fgMpWeHUyQK7TmNe1zHeTk2XXZKdy4cGE9yq+DNkxnN9HmOPLktFJhjNypLXtNFLjuSJZcddZMSJcRfq5UQ548YTjSDjExrd1dKsbTP5TqbG3vFWI7gn2lRVQaSvi11eBBxwM2a1/wD5n5N/0mL9nnhuTiN8u6JxRuXrC7SNa4zUmAviMLQEb3ZwqxpWGWLeBFi3oN3Iu6ejyr+t2Db/AJWPv2uQsppLWyqyesVWNXq35zVzB8qkjybSS/7gqikmpMbb3UtJE/gc0QvsMq+K2wYP53Tn9+NfDl+Xt/iDAJ629jdZRXMfhYvMhGZrs+I4uHUKu2+ELmJ9nlyo26wVXKiJ7X807uzdFhX/AGgVXly7FkhrfR7b6yHD8cyZjW2Vawj2J8Bm9keIPIN8ls+W1jt2siQ4sEDI8WOMImN2aPUgZ43apaI7h4JOPiKn2faW8bcRmo56JxmjMZqlCynzTNKVuzREeKwjt7s5ryWWL2zRP4TR2dSJcfsWW9JUWLHNVJMURF9HnTeRIxa08kjWrRv95VRrXOcuyJ5rc3BL9zqGgkK9SO4J02FDj18OPCijQYACaMbPsbpOdlmGh8+X18he+ldys6t2/wA2pjPT1pERWuRURUX5YNU2VbjwYsuCQJGyJPwckv8ALfpWvTzYqa4V/JdcK/kuuWVfIbl1yi/ynaQBlXZBOXXTSVXbkv0kCUv7rSV0lV8UamrvDn3MmhM+ag0gz2SlakAeybvdroBb+btVmOjgZBd3LZLnLPDGGovUWQjO7TWPaN6t+i+uUVE3UbtcL/yXXC/8l1wv/JdcL/yXXC/8l0jCL5McuuSX+W/XJL/LfpI8hfIJF12jVcqXisprYJivbIA8bciCcPaTj8wYXuZKqTxSLyS/y36URE8xuTR46yAnAqLsRjmLrsnKRcLhxiK7iiSpMVfRy4wZUd4SiG9F8kx21kzwSotiNorKCZwJbO45wRhPPIOMQ2t3e/2/cXz3MxyEjIyO2WzTCokxzS3tjMtCefBHjR4YWAjRxhCxuzGfZN/Sc7cvyhUu3eJyR8/qXO+7KqpIvWqm+tk1w64dcKa4U1wprhbrh1w+5w+r4fHfXDrh1w64dcOuHXDrh1w64dbJrgTfXDrh1w6RqNTZERE9JkmNzjzAXdE9g7ILOEwvpTyE4J1BcAOngrPa+R2CcNTi5x7/AL+NiBpRWSsglFs5CO3aJsYyNRrQqiI3ZESLIX90uuikfw7aSBI/w69nl/ibr2cT+YmvZy/Mukrm/Mi6SvH83O17PH/E7Xs5n8btezhfxO17PF/E7ULG48Oxtp/UFeSY8Sqns8P5v0kAH8Krp9NAJNgzXg3PE5nJf/xXtrh7/wDvr/vr/vr/AL6/76/76/76/wC/4K+TGC5jSHYx712bpTxhkGIhxte77rXWNaxXMdPjNci7KjZEZz2jSQJSK3iRhZMYLxjJIExzvuNcRjWue9yIiN3VQS4UheEMsBXI3i4fwA9rWxyoA9jHGVf2XEGxnGpERqN33jWdbMc8cWcApG+bJNhAgo1ZU0IUXy0kmK6OklJIlF58wNjAK5oxzQPcvkw82EByjLLCJ3DxbNmReS47ZIlGnwqTqI6B56nGgeHfmPsK5nDxz47eJu7dBOCSzjCdhG77fgG7f4tbprdNbprdNcbd+Hfx1u3+LW6fguY8DLrFXOc1EQ7nKt2YB8vxZQmGRE38aispLC6yX2oMTuGW7l6QYg9oUFgk4WMgcLEzdqNybGET+cPXaE97KiIwbnNaaWg36vaeLjdhjcqrRQvIdrH6Ty9e7WN0kPIYF9MmjUkp8h7GPuB20LEamvnCULlnOGqZJXQMZl47LrhKJyFc0moECJe5dkD7IKFZG+rEOE/k1edV7E+oGu40saWBExCpt44HDlq4SqWydX2OS4+S04UjHqwkLqkrosq2yeurNnVxYvAi+1JE3HYOOt+GUs7p3tsKurXMauvlsGkRlc1m1XX1tbEQVcxjBPe5+3rrlNqe3cjttohdMhRImHxbgJnjno9qsdVke/NZqkVfGuAqtySKKZltBEkovJfHfxpMFEx7H7NYrHMG0RFRMHNJBWWte/4pEYu7NVFWG6qpJhyiJejK5z3W0Ic/LKWLP2c1a1VIkCFGro7Y8RrmiRzlRPwTNgBlWuNAKziEQzmPSdT1tRl2MjgRUE17lVyUlJVXFzk6T4nOQcl3BpyI3tGhonkkJNZp/WPF/wD8g9douyVtc5flPTWcvapsVTiTdZTVajfXu1jENZeOXLEsSRHgnqdzpUmRJxWqPJOQjktnbu7QeE7scENzHPKUnDrGXILLsqA/4XvfxIkdjlj58VE+Hfbe5eidnlO1XNRVUWzVgBkZLi8OaBCD9jBY8dGJtVmVjVw+PpHB5jhwq2MTtCnqrfhEx0hG28CJY55CiTBcwLofi2FDjwIwosYXLCNNmN9ddf0Pa/8AKl1iGOVEmqrp54nMP8S6jf1+s/8AkAayWJGsMuoI8hquESO/iTLQMr6GBUQhPVppbBsZUSJUXKpvWQHxVlQGvQVq2JOhfS2le6NIA5yubOBFv8moeqEvKPVcxWxYwYUcUYCKghJsxPwSzpAWkuulFKVr4j+JiTqSLOs62xUhWkifdabCoZZUqUyzniecriPSXhkWUcB1sZrCDjjCjzYNCkMjoWznOeFzlY8eJwGwZkKVKlSWHVq712G1sCWCWQ8mS4SfVInh+ATcIqZMw8hhpAmlduUQsWq2VZ6p7XvA8ylTVdhldXzBS1NJOQX6pLbFK20l9ahZEY/DwuIDFasFPLrBKVjD/rSxsGqQvApzypLRL8ArfFYttOHNdNlBKwTRpqnx2BSIV0ZCPKT75Q0gBXcu3aQnNOLlubbYpFtp7Z7p0oJmiaNNVFW2piujpLOdFIr0f66UAcoB45N+ArHMdqsro9VCDDA5yiFxcOpmL18+eWe+VLEd7GsVZOJ18tYjyS5yPjCcMT2YzAYSC90iWV0Uzij1Iq4smyhWT1e08ZjmN0fDKgxikR8pgyv4yR7HGK+wkR5TiyQvEHlCSBDZXR2xxnORqOcvH/8AEsrmom6r4a6mPvtzx76RzXJujkXVnkVDS/0nbxY3w7o1O03BFXZMjD/7q2/o7du9dbw5P93F+BcWiyAhb9YVrE/Ns+HI34JgXr8m8WuoAng+QNF/ha5jm7o5FT/g55BiY973o1rU3VZWaWd4Q0bE4o3CY7gfafRR81ebfX9lYlXzamEYptt7ED/nUUcGhkFNWukC42cDhHrq+TMdNPBAWS5rUU3IBw7KAW35TsVoJ68ZK4YzJ9w9ffW2ISo8O9lknVJyNECeioqeH4Bvq3v7WxspNHjqsG8CNSdYAwajX62zQ9pJX75y4RiRfD2DFYvycfCJyyIoQZTa+ykfuWE3BMSRNnUzCL83Ew/2e7n43ay607fFBYrlDb1s6FMYMNlBJy5QP+C18tZDKJll0eijmeyqgPb7SeEIo4mBCNrBsbsxt3Zy68IGwa4suVILyxMZi9pP+vu8kmOe7x6djUENjEVVRrWoi99nBBZ182CdiOYcLmKmIe0UxupHaN2liByy+vyS/ZQRBPaFTy5BWghxmVOUTTClWuWSROR7XdJGiRofP6cIx84zyk0yoyGJYMkx8jJJjvNuaJ7lhiMAx3WFU9ay0Rd2y8Wvj24ZcOeJgbOAXlSxfgSuREVV8ETUedBlOKwE4BXs+8y3z3GqUrgGn82V8osHtLxk45yzylrXxnM4hE7Vsea5jxwbV8Xjaj5fF+BImi/qyfFw+C+NJUCpIPStKpXuMQxTaVyNRzlVERPFVhvs8wktkRZZoVIA3wFzqOVcckSYyq00IoZjNAMyQER2Lu0jGvRe/HbCY3KMgqpMlXB6eNLiNb612rGTEndpVdFdIY50GmORgpMmPDC88k7RCb95+VFsItaywryv44RmyChiyo86NHlRioQJWNIN/fZ0t3EPKtqS4mFkK9xFrwue8QnPHy3OY1XMsGpWZfjloP4UmcdbJ/AjFFHEU5iNYMbHPe6ztp2bEe5xzRaJHbBAbGuCbHdVHSujdMQErUCrr6sXKhRBiT5r7MrurfNWEFZDuHctpXjtIborykG1XjfxMXJBLuLMbLVPmNtBsYtdkKhNHlEaGNP/AAHtEnyodNXBhyHiPMtokdHd2XnOdlXQRXq09tJ5D3Ro4IccEYA0YETGsG2QAcmOeOVN2EY5j0xI5QxJFFKXaVUl6de6JbCk2tpWcpzDRGhfvo5krc2xWW7wHMHJgEVvrXaximh26SraVzG2IMhnlU2dIi4fkG/yiOVNC+IAFd4qrG76SHc4mU76eN19U8riLAj55jJVa2ROfCL8wvy7Fxt4nZBX7aiZzXWl1DqayOaRzWOI+Rb3DKg1ShhfUy5fTvNuicP9/lrLvAFC5PvNvq7h038B7R5TpfsrGxlciTnuPL01rGNa1qIjUbsie64sMLgOllaMPOCivTw/APnrOUQ9/g0TzRJh5Sp3RU67tCkOXxbW1LUTvyWqsBSo+QUzEfNjs5ciPTXcC9iNkwi77eBBXlHImni2VZLSNZRm7MfFWS+KB0sY2SFY3mtyutPZU5Vi+EuKUcuKuP3UXIKaFYg2Vph7ub63kyaDLJYhR3GgW7+eus7dvjpYSL8c6SCINLS5q6QDC2ExgWr4DT6YTHpzo+HXhI382O+Jaw48lYyqMwmvRpYNRBEeT7Ljog2Oeq29mO9js52EX6iC7jDLqKcV7EjnNlFlY1zuJHRMAx2u6GLZGfLLNjmOJUvFSfkeJVDPic2W6wMn4DblSXnuSF33bFhxIzNWkyQBIsWCxHzZhuRGaeqi43j9hLl2J5JQsdIKfHKKZ0TJVxLUp5DWk5D8am+2JstsxOleEIwx8lgyamodYRCcx0YoyHZeLLpIkOweJqxXSRikLdRkmVFkD+OOTbWLWLrfGqKyeu75MCOR6+v+espXbN8U38lhz0Tu+esMTqrbNbPzQlm2ONdSsasbacctrkEro+N3JhVNDApFP0T5XCXh3bcYhEsJPtCBLLW2Sf7y1ueQ0ax8OrnonhzZ9Bkl7LeyVburYDOFBsoGWNRdWmPzbEs0YwhkxDPNIwW0kW8YLy00x/HYR4kuNOjhkxytIErGvG/1hwLGzOyMGVHc+TUiVQR6W3n20O1v5MV3SNd0sR8aMUojvjicQfFyyd+6b7b+P5I1G/dRE3dvqVEuMenz7OojtmRJTubKg0DJdnlMe+iQDAhyalj5JfwGRv8ATTNGr5uPEfqhC2Vl8s7kRUgQBjZpWo5HI5EVF8078xAyTimRCcm6dAd6aQ6exmyHL4dDxrrs8E4GD4sN6KjvZgF/Ac6Tp7/BZnknXHiqushugUdaWS74jO+rjBxWpfSUUKEZdz7OLIXV0e6DGYlNCCeS8rWb1FbkkaUp7bIxyxqxyLH7n1sst9HsXTXJGFEcNkaMVk7NbySPxHDhghK5zUe1zXIitc3ZUDJN2eS3SBMeTHJBW88IDCkCGYL0ex7Wua71dr9R2gwFVdurozjYtM2yDCYC1lBkTGOdxvXy1CxZY8wU4+Q3Eg7X8bk7vodj7Z7bFkQo5SSOfzdWSz2y7eas9ns2NUFY8GDAfHw3GBEbs5K4HriEYNrnvcjWom6quW0bUVRzFMu7t2x5AJYRSAER4iMa9jtZCN0LP7Dibwssa0BBawj66dlsj/17BIrrmnEd0Z9rDadHbKLRSMEN5XvRrGtc96xs5xGbKFFj5BEeUj+Abb2dGr6ifJlPRoWi2euQqq1BYwfAktw4gUiRgwokWKJNhgEwbE9f8k12mx3Pxh05ifHXTY01urOFd2Lo5qzIehA4Td24PWikSrSVblNMuIE58dSxKXJH2TLCwygqNaZypBFbELkcyoQDeWCCGQpe/dETdV2RPPVFYZfaguj1zQjBPsTvFOp6iPSQBRAKrl4nPKXRgiOJ4TMR43tcx7cClSKedZYjLKrxR06msJ6WbNHCimlH8BiZxLqTOsVjik2Fo6uEZ3wCso1gzp5km5lS6/ZvGpVnRrWFXNyORyDsdyVqJ0oxJcCe5jpMZWrzNZfSS7AECwreFbKskc+MygtHzszt+dXy4ZiVMZXg7jSI8dGKc4xo53AinyGIy7ragHCcklhiEXXz0CJb307LaaHAIyHNtnMl2AQijgEETOFjGNY1PWEIwTHve9Gtam6qzm5KZJUndtWxfqAjkcyTZLXhY09mbp4usxya0xGwxakomCK1g29UyvmPnwIkokMsUhBNc8HaBaY/ZRp4mzJLLKl3kNPi1ItFV8gknnnOYkg5sll4NTzoce5qoynsXuXjYxghsYxiNa1GoiL4psvlqiyrHMhnTa+vGvOh+L0zivl2eMzwQxKUrXhMgo0KbdEpruvUCJEMR4o+NXL7uvcc4GhkhkmjSRfgFvCZZVVjBe3dsiMQSphst8vGalSLuQLHRyac9KXNYZ1+GPcR+nIurOFewr99zUQwS2nhjjnjiUjxCcUfA9WNVzbu3jUdZKnySMRBscrG0duC8rI1gERRIRHbszO19jYzaSkX6xRcoKdnLFZh1Sipsu59/cvnLXXmIXLPMdi2GZU9LljmvhwI7fuGsYzH6kZDCBZvgGT6tGtYpIwRRJV5WNTaKsbqGspwQDCjsuBJ+mRgPingsm1uTxQypPNCeIQITd2XiWuynE7hvgN7i1khdKqIrUVdt/LU+ur7QHT2EIMkPFvwV9NT0zXpXVkWKjvvq1yORrmqioviilMOOJ5yKjWDa5717PBE+jMWaROF88x5qp6whWDa95Htaxqbq4pi5OVoxI5lS12735DYoJfZonqJnTuLKLjFa8YPaUgbWlkDagh5tDqpOOWwppgR1OBomScRyiFkdcJBEc6WCIBZSZHEfyM9qFmFjnESXaMFXmQ8CEZPFHxxv0WPHO4TjAERWLuNe4UaMEhShjCG8niR2rXJKp2SygSmdRKqjMSsh4ZTy6alYyarVmyTGly/wLGRdHJy2Ang2PfSVamT1T7ankBB8MoTmyIrqG2FeVEKwH4c0X1jbSeSuhvkir5MxyPanJbd5bao5tdQx4afMtbiTGy2WV3PJaTkXcbtXrfpHl1TStXii1bevm6wT+rEL/8ANJ9zM/6GB+ftOBwemyOGeVWNcASvIGUArG3sOYdIEmEBpCRZbTqGREs2tsZ9jJjRRS2NGVkXHDypUOSyKseGB31YL9qcmten3x2MZRrPuaqtc1s2xjR1cm6IEwziEYT2PG9rXtflFOl9ST69ruA7k4gEx63fc1rCnFypYnOBLDe45PsbattoNq2OaGF7BCk2+X1hGhlfR17lbxovS5PkcTglWNdFgyGbP1GjAhxo8WONGBCJoxtyxSTosWgjkVJFsXp9wAFGjgAJqMGJjRsb6uTJDEjmkHIjBDbu93LNfqyVYooK/fcMWykTK8QDxo7SRhfrhWsevm09vYAVrlPB/Wxspr3RoyR4s2QqCbvpZtVfiLUz4JW88TuKPi2JVeIQjwq9pVYQ7ivdkeM0+RAcOdD4isYRBFwuSsnGKni/WAE6MVNW5siiTI8mthDmxeU5ho0A0uRFEWbD6Y7vvh097BMe9y7Na1yqvZ5WsbUOuihb1VnKkTHP/AoDeXledj/9dGdpSjRHuUjURv31gwgRgWkmPJNBq5MlxyOfXxQcEmUyRFAdGoGAIBKizrjlhxIbJTXA5Gr+6j0FXKnm+JWt2ELEaQ9VXlPOXjsp5XSJr8HX/QDRL5hnTRr3SJAIgSyJB2iExu73oqOa1yKiovii5G1ZtjiFS3xWTchK9E9LIA2THOB6qiEY5irQySGr2gkf7RFe6OZDQyTboTzjVY8QPGLuN/pO8hRWeIoLuokLm2CBy2VRn+BqxzvYd2HWM14p9Ha8HXVL2Cc7WSVM2rnkyWmEpXPa1ljCrLWBbxmyIR0I3yek6oqrFzHT6yLJVn3FCEUcTAgE0Y2t2YO1uIFKDnSyqiu8BCwZD2s+9urOJyp45PRDE31mTopR08d/6k9iJhUsrWDzJVZbxlRpHMQKVb5MKfKqTnUzGhaeM+vq406NNiP4kix7Y+wVsZBZJoVVBGbkbNKSBRy0svallMaWQg3DEPurQexMrySmV2wpTvaURNW+T0lGYQLCWoyEZxsaLOaQz2NCKxJxOaiLrLiHNAj00NypKtjthtWLFHDjRowWcIxDaNiev4tcXcWYse+7RDN8HpJiDZqPX1q8c1ylZWhRgyaMpQkjzZ0dCzS/BX17RFgSeFm028kt3eW7rIkaE6PIN1VnL8VkS8yxiqjia63DJIjGsYGurLG/tI97exOnBGbvXV6axVOnkZXXr5x7s70TWcuRuKXKfN4mDTQG8IRN/JjU1W0vUZEC8fI4mxYhACF6aakmPk4OiRm0mNxym6u5EiNWHLGfwk4xsR1XWR6yPyQo56uXjI92pjkg9o9K9vg2yp5IC93aDuyjhvTdHttoCpqyxiBNl9eAhoU7bbqVgZmBNgZBAOmvZubyfhPksKO356qsWrq2Q6cV5ps5zdlmYYqNn5oP5pbtd63KGKtMYyN3fGKyQ3V/CfObXnHE6yON7nvjs+kL5zrGNVhG1AtjtBFZ7EqZRpZWuejjSDOxyK6HVx0K1Oebc5l78wpZE6PDs61u9nWF54EqrSLcQRTYqrwP++3W6/no5xRglOcrRjY1z3vwWwXKcsvrp4XpHhRxR69vrlVETdfLVpnmPVr+lWa+XL+UVL3Np7eOBhw4w3eRHwe0uR96+p4n+GE2WKJHZKkNNIaJrSlucciS8hPHikfxzSsl2KuqYT3wFUXwxP1LEr58NtjYN2l2RvgFpEj41XPMVymlFX43Y8+JZttJJipJldQ+NK1Eq6yCu8WvjBX8+421dm70XwZawGvYusrVbKdj1CLxWRMbJkd3Zg1X0llLeu7pVzPLv6adKrK0L584gAsEzZx1z6Abf2XQ2tk39krc4kiTeZhl0Fv8dTltDdEdHhz06lPOPq9vb4XaXSQfZbJJo/UrE03Wcmac2LVTPEsq2YZW+5jr0i5nlMJfDqYkKYPTfWHCySEoSN3Y9rmOSj5sZ02oI9SLBcNBOVqom6psmp1US0NEYUreiY/mFGmt+9U1dVjI1wY9FYAj2xwtOeG7KCwmf6Wx+xjOTzcud1Zl4YFfazS/JiVN7lJmlyEaQq1j2vHWYdwJfZu1ERFSbG8PW5JlNdjUcTpDXmkndwRoqY7kuWPZJyee+FC82VNZTVVMBoK+vBGGny4dcOrCaKvhSJZl+rExzl1RQzAjlmSfGXMfzzrpyo1HOVdkRN1Wyu4zByr+Y9GxQI5kJmF1kiuo2LLThlTJBpkhvflVGS6rxLDJy58QrZEItBeivIrlVihlgdy5cbpo/U9VyB8/lcvm+euy5yfRfk/MFjPG/wBNIOGKA8gr0aMbHPe6uiEy+QLIrwHEDjc6rg/5d1vRVd4JjZsZFezxEfG7ixh230aupCyCKBx4M1zI6GWU8YkIjOBSLmdAb2iyBOZPkxRcTotVEsp9kbILoDQyXi5EWN7mUvJSkhZVHRFLWtcw7IWbYxMaxFtgxyqn6kE2FJ/UTY5fWXFtBoq+TZTXIMQmpvowrbMjRzXsJ9dTj3VkE8ihqetrwPuMZXn79VW22XiZx1WT1N+FP3WP5gy3mlqZ9WeutBi5ro/dJkx4YCSJJhiExu73kOyX2kTXCXibGoAsVdeP59xbGbjeX3D4tcsv2lWAOIOPZDW5JFfIiPc14ncB43q+0TLZeIQKmdHYxyEnsGVuAgh2/WZPJnsn2x38BX966vf9IWdXVb/Vo7q5Cd1jKW3IWtiE+oau0s7MSrFtfaUsh5TmK3pQ+7e40s6QK1qpPR2oU2Q1dkzHzXVFxH9n2jU3QSawN3QXGYUzvlOSeFPS5dLgRqYgpwikBMKKG5g5deCUyradrTsjNIgY1zAmltBRSc10Lh5unZAsnEX5BBj/ABLBdIGK6uDwsafcxWDc5scUjhyR3In4fbi+8C0YLe0oQXUp5LKXLPGVrdoNpi0KYKG6Aja+XD8YkiLlZq5zIWUx0gyd+BksRRnGwoSNexzd0d3WVrXVAHSLCYKONPmYpckK2xsWLCx6ErTsaYMKzAzngDJC9jVRD4Dhx3cf0fiif/EzF5MJvDVZTcxGp5DSzz2nc1SBgXcZPPVHlVTfPLHCQoJg27lh+nVURN11GjkzF4LmdNOsFJfPr4UyyBNkHx3Ka1I7Zj3MiGfe3eJ2B6eZHfaQ2xHSwyZBsCtggn2GPy69SMaRkutsqqtzXGpdRkK3XUO6BQJ5aXWXOddZDTUHH+iAZ7RnNo6osOffWMlWOPNkt4PczWKR1O+0jSGAmVfFLjlfMPjTsVyuQRU5oY8W5WFOhz44pMKUI4SN3aXi14elvcypaAkcEopzSDNcrAUuWUGQo9tfYtcZv3gcWjXlNGsBVp7WKOW9u7QWdRU3Io47GAGS0RWlGggDC3gGNjGp5J33V3GpxCcQbilK7hEKhkEtp9pcPCo0dwRxN1cSJUywdVBOoQNC0h3xxDiDYIA0YxvgiGyHIKcpVtaJZUTjdwSYOaYvP8BXIBv+YmToBU3ZOA5PzfYQBJu+fHYmpOYYtDT6++hIqfJc+r5C8FTUWti75K6dmk9GtZEgVLX+COFhFQ+PMbZqWxlSfE0zrLfCnMFZlLPp1dsObXwBychq7yLMRG9IUJET0vaK3/V+KT+C2r3azqjjW9FPN0aEmRo5Hxn4rVVVeKfa1bwMrZ0YBGCqJLIHZUc8lUYxYkvl6ySZEr+zZgiyRLzqwEYS2ltXWr8Xpq2eGWdZsY5F7p2SVQJEyuuob44VfyxvXCKeM55a2RMq1XxVPo7etTZma2CJ8tPxq0VrnSs3teBPPQlwConc4KutrRPJW11xlBWGvQJDrWPa8db7lzRAtenOwros6Mu8WbjGQEtWngWDGgtYnCkoPpp6PWBO5a/H05NtQACkdnWPWzbCVDPV1fMYYsi0DhNWy9eFDEs4T4x7QNRkuaR697myQCqDdS0UebmNtZQxWB4lNXFbHKhFxLDYgFe2FXhYnAPT87nzHO9i4nYSWfI5Z3aFYMViHqatjv28XrW12S5SN0o8kqMhcci/dY18iFdQWGkMitIOXDrbSDbxWS4Elhgu+fdfSWZNOZjcJ6vjDKwtofN2MXFbRdk2GwJESRiNO8rzweprjuc5ecJue1O/RX8W0GnkGL2hJGegsko5dU7+fAsa+zA08CeCQJf2vRZbCsrDGriLVlUcwodhLXQ8WkIItNYvoL0CcoobKwgGkCg5vVdDK/3a3i2+U40AbzOdkFUibpIZZYfd32Sxp8lhUuDRiQD4zeuiAjUd/PjMth8TR923eox2OTWLiNR4ocYYER+OCC9xKyUeC9fFW75RH8FHAlonzMe2jWM6ykwlCwsiMF4u6TW181NpUABtOw7FHruuPw/HTMOxRi7tx+Fvr2VCiAKtfVwmFRjuUjo2dyW8LrSqhN1W4lEjSxWE+fMsprHbjNojGFY9j2I5rk2VsP8A1EuoqK9y0EyRwN0zZU4vS9o39XhM+b7KvYml89HwakKc72PmABIfxyImLYzUSTXLjjKSPCvJbIsSFhuN18tsuPVsQjeJRpDrK6A4roVfGjuJ+sXuXxTZfFF+UmNHmxzxpImkCRjmEYzC6wCcMSwtoo/kJcGx4zuKcKVOVNQoEKtDyIMMMcf8PvZFBmsdFvKgaOs4HErGUtrDuq6FYxXqoZA+NPTbb6xYAa02SYyRiK2JMeQI4+B4nGkc9tOx6o1yNZYWFRhYuRAxorULy0Y5kk2BYxXw+UyTdWJyKMVXjiBk+1rc/X2z2/HI0ugqkbNpol8OuqwlZ3XlNT1XVXobE1Qf94bGcjuDnFX39cUJSseSJJDfZLbxzzoVJDJWEc9ghYzNonRn11ZG6J8XwNBzNEXFb5F/sj9M+4z/ANre5U3TZdTcc6KQ+3xzaFZtburcfvI+Q1MaeAbxq7dpg+hXWV1NZS5Bb299SJOp7LkudLr4keUI7MTvGS4qN+tpq9FrLHp6qSagnud41WZUMdsSHkQK4XtKukgkmdMgUmUVwnSI4pMcwmvETGLKxprT6LW0pZCPG4lXL7nqjUcqrsiJuusaRSxZk933pswxU1MjMmRygcQrEd+0OotI72KHIpTho5qqzI3c+XSQU+ch0h6d+/vnChwlEqNXiTw1hN/MtIs2DabJZ10h0eV6XtBdxsxOInnIv42v/wDPdhn6jI1+a38/0OOPfRZRZUq+EOwY6fCT018gQdoWOGCVvMkVksEhmu0BFTFZ50/cFjH0FR3uRyMgGUJ4Q4bI9c/vyyMVgYF5FYrpFUbn8M3K6aJGjmCdZZJImvjR4FNPspwrnIGMQg/9ig3N1Co4rJc1ScDjDEmqGXMZa39PLLzFjGaeM+8x0FvypIDuiWIP1Ey4s7mdXvxyfSSWz5b2A6nwTwRNk9yiO+kzSTCd/slyF0kSeiuKyJdVs6smM/R5InDc0uMWjZMeouGHQ8djn1uQ1Qb+QQUW+h18+MxvMDYWV3T1T44bKeGOsjiQeo3TIASReVyETYes6A9lOK3B4SamSGYJwSMOEJmeT2NendkUpYdJPMz77mcoeoMdIcOLGTyGFrO5dkRyquyJqHZ1l8V9nBQjmsUkRpfsk0c6UWa0th90Fox1fJ0nl6TKf0nLsMjfICTZi9+I/VHy2Ovmy+kv9DlZPZ60F15dBaCUit9Kv3dUlbeHmR8tgihypRZE3qRFm9oZ/wBTWUkbUmlzC7ing3F5ADEOzgKzD446+zy+tC9zgx5gFZ7i6qsepqRx3V1cEDjOcpHac1juFHMR3xbpqErD5pdvZ4pHrI0ci/L3sweSFChXQU3fVTgSV0IjCjY9rt2ubui+iKIZ2PGRiPY9uzmysXtcWKWZjG8iC74zVFbdUWTR3jRjHvb4Ghx8THU2gJtLNJCjq/8ASoNhBFZ182AfflyQkE/WEXcpUkY3bqjbKuYiI9hBkZxMe1yfnkG0mdQQP2XSnSCp3ZnZyzvi4zWE4Jc9jlOaHDj18SPCjDRgQMaMbfs82jPPjc0wv18RzJglgyhzIUGS13EwwBkT0hXdVn1m75QqkQe+o+oy3LY/lzmwpKayw0sGO2hYT3tOgm8Dk8vt8wh9di2QR0T4lgmVmqGX7QpKmZvvz4gSb+kXVHXPPGkAFNNH6LIpqqmps6HWx3yZskYAt830DmPyXNHt+680J7PsMFR5odzPMu5pdvLe9fes4bJ9bYwnpu2RHIJdYTOdPxHHzufu9YjGE9LfYhQ5CrSzIXDJb9yVkFdlOHHrXxsulEqjGaApRK8UdiyTNc5om8wtkpM4s4r6VSxY0Er2PuK+dBwm0kOp5RZNWFRMtYxEJIv4cpjFdGSudwE05yMa5y+CJ4rrEkJY+1sjkeJrKW/lfazQJJiSgOTdCBIxU7O5Sy8Ox9713cyPyHekxUqz7DMLZfFJNu8Q17ir02fQ18km0xmaPIBFE4xztENvDuT7RPFzU/xapLzrKjr7EoA7STgV2jiQ0eQFfFHiIxddnxObh2Pb+bYbRr6VdDDCvI0yVTTZleh7E5VKlBdv8DZnPVNRsPpwymTZXPnyWeLCzCpW5fUv22ZaRDRnr73z1hq8r6Swl8495J2T3+zgqih5BVP84FzJYxPl6Tw1axIU+umRJ7GOilC5CpTQ7PIojos60c/HYJnsEZsyflKOgY+9YFKL6ok6upqyrr3V8WI1sdyOQiYpONS2L8UnFVzGscWqNqxVUgTdvPkk21hL2uxOhVvkkRqL9idCvCVoX8BFY5GOxW4fb1bFkqiTo73x5bO7567MFVlHaRl/3W6niTS+isZLYUCdIcuyBC8irhkVYeL0zXJ8Zg9QTvydOnvMKnp+zYkjPXOP6sWP9742l8/tE89QXDsHwMfZs9UyGbLlN0nnrs58MWhs/lSZY/S5JPWqx+6sG/ejwykbrGoHszHqSJ+0OGHjXuy9vACjn/OHbxn72bi1WS1E/qH9NNToJAvdtK1bMIBJPlRuAwy8UOrBCsLacIjuKc8byN9y9tvYla+dyObwlCzh7scVIecZFH8knV8aWielt62NcVk6ukK5BSguE91G44HT8UuRCeeGFrGKEIgCYEI2sY1NmNXWQUvtqGzklUE2MVp4kis7Q8gkHkV5sPISbF4WnaaSshjU5atRfFzcMV8Al/QF8HQZ7yB+y6AVZ2iAlB+FLSuNzW/Pu+euzv4DZuFPJl+Vdfn6LPTdPhuQvavxvj8luookBFjgamyCE1id+e80VA2WAaPJEnxDsbe3ce7xKxcwbwnFJjCkx18/tcMgxAmyiWwDUkkupIyF1suuz3wpp7P4Lee30vaK5Ewq+T+MTR62Rvwp5J4d+aJ/qvbvTzGIZU1lM6JdYZKt4BeNjOTMC5hEKxj08nNavvVcyRJyTKBPO5QRukEIXuZ7u6gaFPM0+ENNVluC2fY9OMnLjSXR0Lqzetbk2JWyeDHSH151b6bO6iU+NFyGrbvPqnKTgr50eyhRZ0Z/EE4mkavdOpK2wmQZxxPSTFe14javXexsqx62TwBM4q6Uq/Y2qJ9NMSX59PP711gbeG2z5N//ANYGuvz9F2juclBHB8pFtAEvuZ01XYjd8K7KgmKi3VrJZVTKi6AAdm4sQjDr5/afPVAB8yNlcUNg+KRbyTsVaCYxdi5/ZJ/dLqcfANzrbNZpGbeKdl6RfYM1IS7xfasvkP8ASdo3jh1j/fIht077zv8AN3fl7eLF75P/AEJtS6lkHEsqKw6qCbAfJYGvXigQnfnHGvvV36PmuRhX/eoMSSz3c+jHsIlHWgPyiS7YDEfXwI1XDjwYo+AImcDE1lgCHx205X64IuoEtZOFaVtfYB25cqOM7fTKiOaqKm6LqDH+imSzqBztoM5xJlb7ubw+rxi2VqfHHY2SJYR0lQ4chP3oRv8AsbREXNsVX8ok9U711gn9N5//ANUD6PtGXaqpnfJt9XuX3M5X/VW0b838kaa7QK+NJoosko9zQ50YgnL5/afPVHjNBcGyOTYVgjm9ty2I9uDYg3/9vw11leOY/V18CTEpoYXstoG6sG0TWtY1GtRNkT0naP8A1PtF/hLFfp33nf5u75MYEyOeNIGjwmY5hG5SxkfEb4QURrWVhmMSB/sMP/lx+7ZmnggyC18NsmS1v1YbNz42ZYlJVOFZcaXEInuXfx5JhYfyLNP3mEhgHEqbo9jma7NCK/BccRfMcbkr6fMscXIqxWgdyp0UrZEI2O3TLuBzXDUUsL3AlgTvv0RaK5RfLoT6x7+gaTfz6EH2M/4s4x7/AA101fcwPxus+d+VqFPR9oglJiNkVrd3Rngk6E9CjY9vk5N077KsjW0ZI0lX8CGCXXaTapFr6uuYnESZOAr0X7zvtPnrDvGLeP8A47yevdnCcdRDGnm+2rmJ6bJIUCwo7KNYmUUVwlUr2FYZjCsejmPbxsXvy9FXFcj2/wD44+qz+joH/LC97JE4sgwZqfeSed+l8/csvHMMXT8oc9du5PNuuzZEZiyi+YbCaNvqMso5tdO+lNGLmGQW1hDq7SFcQhTYR0IJ7e/PbyQGvm1FYnMmEhmLIdUs5VVWs8uGIFPsT/Fndb/hpjr3rrAf6Wz3/rLfR2MIdhAnQiN+CQEgV1h04kqkBHkeEqA90KS3ulSo8GMeXJKgwiY55Hz4kq1xnI8umR3CWSkZkAW+67/aNTdzU/xawdeKkeb+dPmk7sqTmvxeOv7y/ha+fpbKK2fX2ENyeB45B6ws75GK0al/WDjNAT3M9shVuKW7n+LjhdHG2p/out2/sgfemM6nMaRvyiQJcj3bHdMyxlfksCenemuzz+iLP8vbVj6hU1bYWYU59vjUscGWXxkxi3t7X8TLXDLJHJ+9ZZZjfLyKfGjV7HeCzbXEGUeEZICKh51lMA5ZMiNVyWxo7PhTYTU29mH/ADZr2Yf82a9mH/NmvZh/4ma9mH/NmvZkn82aWtlJ8m6WBKT93vp1BN+kIrb9hsB0bgWOdPML9cg38omkiyF8gu1htTY1s3MSzIzhsl2yGAvo79a7Fpb7hIRkBYSGJPkCKMw2FERr2ObujrW5q6QDpFjPEBqeSRaqyzmXHl2kY0OiC5rww8vgrLxW8iDam6wSoxKiaywqq2axd0kRAk7kYR3kNy6SNIXyEukhSF/YRNJAN+bdJXE+ZG69mv8AmVNezU+ZV0lcz5vdr2eL+J2vZwv43a9nIitVCL4apcbHS1kWvFKcRAo74/Z7v5qamY8CbKqZDzkRYUvqGN9NToyBa5NUKnCoZ7pYm9xSjCN5SERjGNcr3HiGyetvcjOxUr41bNZUhpF3pqlU/sYPdsLBK8cd6xJJ+ZIGLaA7qMuyF/mkaHEjJ7ttv9LcQ2X/AHex372+bddmy8eMKX+dZTieq4dcPdw/YcOuHXDrh1w64fSPGMrHsKxHDc3ZWk7PsWc5zwwDR+Jd1bX4XjNWdJEWoEp08jcOnIj2q1URWr4KgIcSMEYARhDExuzGoxE8kbrh1w/geW1M5Twb+pi86ZEY4RgQ8vxyYxyragjkb4EAfL8Xjp8eQQlX+EFbPzSQFZUU8SgZ8aiyETW4zeiG1GolZJaxtAu9FTL/AOhB7vz1i/G+zzQ7kVFdbuYnubKup0WSXLMeO2MVwQw5vG9AnXyETXTSV/cE0sWSiKvJd4N12YsVuE0TnoqK5hnqn/FCpqVU1c1/HKrYpn/nHqKuI7ij1kYS/ntqZGFMiSYpeLgOJ43ag0sCBDiwxMcrABYNi9BE/laSBE/laSFFT9w3SRYyfuma6cHyG3XSh/ks1yBfym65Av5TdckafsN1wtTyamtk1sndw6RqMTZqbeqe9g2q97ka1G7qvtGv/t8fTJACPcNpxucjeJzWnE8hBNKxXt82oYPO5POZzOHi4eaJCIJSNR6t3RnNFzeVzG8fDxcLJEcrHvYdjmt81GQZmNIMiPavkozhMjuUVj+FdnaFIjvQqtOx3B4OQMuGd6sFKE9zfNrSicVwUMzjRu6tYULyuChmcbfFW+v4tbprdNbt/i/4NkxwygFAcTXjI3hc0FBTvzWbXurxLGbBaRBVfKj5zdta5GMbEEjUola7N8nVHNVqsZ8XXk+nPtP9x1/RazOeevyOknBRVcIbnvTmjLmTCidu19JxIsGedtLJqYjvr7CxcLUCIOviRooU2YITWJpkhmNX+SCcvCA0Z00WpIpFdhsVOJWGs5rSnXJamBQCo5tYDkHbJYxzofjnlv8A8gHVT/X69/5QXr18tBn+w8hvwSHK4Bo/XC1JSYzC2TTHLz5lg0qrYVI6KptplYSRzumcm9bTOfCpLWmnmJI4xrK038HNkCxcnHTkazllj8QyLkj45MndJCzl1vL4UdkeQQo0G0nQIiQTvY1URd/wOF/5jT/+mj0lXAtc4vQzA8xjQse1KIUWqybKGAZwBjx2qiItj9Heq9lE5XtDrOrntFYZNj6E2cKRWyN0xhJQMmPBk/fhwTR2rBhPDWnvou6nhWLVVI0ocqLHOFd2EG16O7QoQyuo3rujiH5Krng0DU1bWpswU1iaz1eOvptvFVmD21Bcjc8tEd4K6uDtqr4XZ3kWyoqJGE1Xev7QYDTMqJLHOY98jplXOAjj40AA04WNkgaxBRa/HIE6SSRKeDhar9ShpjZoN9UFVK6a9nPjfg+SQ3yslmuBv1EarHIBos8dnU5pMH4NOsJ+sp/qLXf+yPoP6of/ALW/gbacLLw9y0r+YSO0SsBSgj3My2YUikkMax7CY1GfLupLZRWunj5b9exYnsNabifyuTyUfHx8EeVVSUklc6FHcBmnUsdLd1q1y850bkPStx2JWwZ0FCEKKS9yv1U1iU8EUJkghWDV3AtzSAuWw+aYjOnM0qasq6LawjRJbOIT9RsMix5UY0ixlTEju3Cy5xmLbHBMZKPGkibwoaloIlI06iIUpSu3Kb191TiuBxhPkOGgJQzot3TivYPRvO4Kc1pOOLRmGyUKbcy5wjhcNRCwtgnRhmtZZ4oCcYorfwdlbKblBLRUH074HI1FxJQDyeGr2tjTnNWOpaPJrGFCqJ3RMhR3s4zImyf8dcOuHXD/APL9/8QATBAAAQIDAwgFCAgFAwMDBQAAAgEDABESBCExEBMiQVFSYnIgMkBCYSMwUHGBgpGhFDNzg5KiscEFQ1NjskRg0SSQkzSEwlRwo9Lw/9oACAEBABM/AP8AsDsAbyD7wpKEE89VyRbHUswlyjpKsXP2b8YwK111YIFOM4t6qrjo72bHAYsokJMEU6aw1jGfDvQS5oyLhFylfQDhIAp7Sht0TNBHFZDCkjNmSpFL6wsYM3HiQdhUxm3o/hr2cUOImijAwLYQlenoUlkiQtpCcWRs3zX8KQ6vl1VsxGZoKyRL4VZTItXoRdUCsvpCzvBqJXrxEusoVtJ/GWQkmi+yDSuk94asMhJNFGCGuXLVhDYIBiW8KjClNTYpqaLt0/J2YN90ocJQswcAtDdKGmQBUHZMU6ILSzaw1iQYVQ8RCrL4DUYERJdjisIs0X0CS/JNq+EPgh2x4d4WiuAYtrpuj7A6iQLAJ+0XAKDANZmzMgBVLU85SOksWZVFhh0nUKqeJkKJisEiooGO1C9BJ9WymonVhhFRsi96+AFERPYPQUPJoId+e7kFZLjVjD7yuoIhu7MrbqgaOho+26H1VXrJVgU9YD2xUnW8eiCQWKmRKVPhTCykQEVOjtIegq45BLTbIkqGpINL0tQFc6C6rlg71ZOc8yRegG+u++Ol9Hb8B76w4sxYH+qY4K6XQVISEKaCpIozGm5boTA0d+pdLxE7p+gfER0fnBXmRO6QiS+3JaJpO66lRgEkmPVHpuLQiiY1VCpY5VwQgJCH5pD3+pEcDAtZb3a8R8gN08iKqE/Zz64DSkbNol4jlBZK08OBQyNbFq/CmgUNyQLQJYV7acg9cHWNKoYTbK/59u5AUo1k67pmRe1cgrW58BqWBsLyp+kfQHo+jZlPi4ow05nrU6O6Rjc2PqmsDggwKz0heGXoHXITQiWUJwj0WwVTUj0h1ShcR4YXUI4lElSoCwLSvyGM16AppibWlTGwiS9Pj2pFX610qiyIskI55sfXTA73VI2Ic0HmiHESDpJxR4A8Qp273Fj3EgjUHCtGsWqd2eOM8Ipm4dWsjK9S9eW1WaVI7om3SsNW2hPg4EWVxXrSYaxEyQUD1pGxmylX8y9AJiZ7eUY/l2Yd0BymspjvZZX07s8m0nRp/SJSLOtaJFh0wWaUKaqPaVwRAi+8zNR72T7W0XZLKuaeEt6EXMWoYtbByXlIapxZiUmyJ2VYugW6qwxKVsZdqrqAqqMopJNK0Hh27wgkkq5o1Gn3cIRJAdrPyjr5JrIZyHoESJ/lCLNFjxrCDl5EQeTQDw1l6A3CN2ki6Bghy/FlaSbhl/xD1pT9BWGEm2BaiJS3Y1PAcq2ih1o0NC1iO2HRoOn1RZrlQdQmnDtgCnINVXFlHB4MTEvEezEUgQz7o7YbFEQQlUMl2wWKFrGF1oUFISdsxFUBjBlKfCKay8Eg7lGyNYXaqosZCzSEkmJrK+LW4hgN9VQ3Y5CSaSKHBbdDepIZDdFmroXNHTUOwpLMo2iaVJE5aZjSPzWJS0nSU+37PKq4PyLJZRk8Za6jLD2RaXM4o8q5HRrkPWhsvIEWo6CwIfCHJoh2d3RdHR72sfGFwO1kNLTQ7SFFUi9ACmNnd7/urAkhLQeBSh8VIEo1hT3sllBScQxkQ+EEyhWlB1FhiUEwj6rtpSYyi3kFkWW60BVSGCNHKNJRxHHbkedRtmokw92LFaZGyJ9/ymNMOTBSFrUdK4j0d4JpWHKULxdkBZVmWATjFS8rHGYqRfJJQZSRBNaqi2XQ2SGBJwqMMFQaLuFtGLYayYE3SmRLALMVHVTF60hSulIYBZoJT/4ybxSuGJGBKc8NJSnCahMaYwR9kOoQQOCND1ALmhO32l3MAjw6IOiepSwKBS5XXSqWnwHCLOM1TiLYMPJSsh18uQwQjUp3dZC0YAaBI9ZCOqFWSQiDcgtLPq6hrRO0qaZxU3pdMkmJ3dUvAlugU6olpCA8IpkFKlhAQjfd3eWKtBAl1YngXVhQNaS9YpKEW5RLXkKakSa6UG+BmkiHVIoROo6P7F3osiZ9CE9chwqg0ktPqy/0rOBVEZRwj2RdHqTp+axOaVu6VUvXE1JaJ4fKHUoFDopGq66EWbQVj1wLGRQq3IkAmcaQnRUSAVFLiHakIkpE0StyyuyClWipWrYOv1QK1Io6iFck5aIDVApmXLYRlUAiQ0qgCkGiII53SZH3fQAqVIA7IgekO6qQKoSK0BaF+u7IsC4im6Zkg0jTUuXab5o2ME0LYNMh3AAapVd5e0YVuurSIwwSqTWaBSkC40kiIkWlxXlC0tD5VoS6U5acroLESHREuUpZJfVWYcS8Kv0jVMU0RhcUaLRAR/WE3tfzg0n1t4cF9sJkRVAx5VG+AGWqnS2l4wCLN0GEVwgmOEItymA3j7uQRk28BTkQ5Cx+i8C/Crsia6BUo4nXapwiLKueE4IVSRDOmrZFKjcEhqgzlT9FBSz8pYEiaMbmfxIoJJ9XXzRhOzvonV8BXKDhg2ZbxAKyhUkA90R0cMIRZoqb0a0anUZRsEEpSExF0DSRDEqZ1pVPt6wKIITHQdQUyLrhtkAL45dSGOiyJdprqNp0yRwaUFfYUSXYm9hckJfIM7SY9PUbxaQp6xSE1APd5ihDopa19bx1Q4GbIQ3RUvCEwQeqA5TKgCPUJLD76OqQ/wBjN/quVxKwDPkjYlRvDLRgsXDLEi6E8WaKuyJx6MEk0mCJ+6Q4aAie0osTROj+OFUHgQvHNw6JNnmtRiJb0IiyQ5aGRLiOyO40rtGE1iWS32NCJCIlIRmMCGZstcrmms2t5Qq3CADSN5eCQV3O6KcWRNtaEReoYFJJIBp9AJ1nbOaUvNe8kJrEoAUM0Gd9NWuWuLSJvWlrkOsUglvXmhMTM9EQHiJY3VLqNDwtp2kkkRC+yonfsFVglU5A7MB9VKRSiIn0oahIad1RhcRJrRQveTpU05owCmU9dUY01rSP4UWAGTjdQ1VeIwSJNsh0vYULgotDd+kAkkQwJRK7VhkaZV5HhHRUtGBsaov5lh1EEpjyqWSX8ljRq95cjYKao9O8TySno1pOAvSyslpKM94tfZCSaLDqeQs21B3ygrTJAHraDOsYBlGH7FUKCZFTBLnEZtUqpCW6WIx30zGNSRfixyrCKtE3wpETp3VSDVJu0jeIprugb37IRYkO0IRdMPAgxSHBQwX2FCIDLaftDgKH0kQFfJMCV6jvLH9115RH8MVKRvvHpKgIV63r7Ej/AOjZLe4ynpegrySxk6KPCJbGiqgVmij68hL8h2lDiSWsBWVodHe3U1QiUpUSaXaX1LNraGlqQSpgSVuytG6VRUhGdRV/LDd7bzrW8UYmRboiN6rDbThucpIKXFDdjJEH8VME2jS/AlhyyybbItZFujEsRawhdfD4w6N1JrcQqSzTCBWTZFqKW9NchYTPrtDkaShmq+YmA3KJTgbSBtqEr6AHTQiiWJayLiJb4S9Wmu+ZbLuqsbd4veXoNX5vTTSMsEGEwmIoPZBRSVHXVoEtGHClN08SJfXcMNzZJHTFJjp9eEuSsamyLR3u9B3KjTQXlPUMLMRdzSLW6NW9C64AZCy7VUJikMlNH7LNBIi8S70alOtJFzSWLISsGpFr0blKCcQzT39FYtzyvTL1aKQiXIMGE0qE84hSKDTydl2qiTkq+g1SYrRZxEoUUfsqlwgXU9ipA2RxV+BHKLTJG2uRsbkybFYdUe001CgOzAiWP4fMmECeBho6UOtI4dASGZmSYzWBREQc0STEdgygDMFQHxQu7TC3mV6lpLrx6Hv0/osS659y/hyIt2jgEDKakZU6NUTkrBhrnux/prUOohPBChFmijkZWZoW06cBGAwYIR+oHZThCLKR03fODVFJwhFNP3sguIpkW7KD6+mugPZQWSgNaTWHgQ0WoUIahhsFrSyujmyIKd2H0oBmyNTIhJS1uKkAeczLLQpnXSIYFJIIhgnQFZgVodPOEI8qdH+jaA78AsxIdor6CXUI4wuKNEVLXyTorh9IkgvNc3adpsLXJOaUo2OglJj8Ugwka0lcOGELxjSPzWF+zToeApCrcLN1N3s+GQVmaBL5XwiopVjvcUEk5EGBRyjV+0GCKNVCaQ7IslqVG05RKqEfAEIdmiAwt7hcxlf0ARc3Z2p0mRLBtirxKPeI5Y9m2EaaPzjjY8mUIKrNl8VEquXu5L6FtDs86Q6pilxZW1rfc2IIQpf9a+mwdxITFS3iXWXRKapIhpASi2Ir1m8RFcUiwEloDmlOHvIuIuyTlPbiWSJFgbVxEXic6iQ0pE8ZtF1LSepJp1EhMEHogsnGXRwMF3hgQVAUy1+Aw0aGK+0e0L1GLQWLRFqEu7kHE2ZoOOwV6IpMlACv/SNiR4DC7ncH1QDgAbT0qVEqtUNPVvoMtgrCpJVN0s3RzTuhMKgFB6DaJWQiGbOlNZTSAaXPKe7KDkWZ4fXAiiT7Qizk06SkOQV0ydPRq9QzhO88ekaxiRFuimtYMa7Y8Oqke4JRaSzrxFvTLCDFAMXWiwJCwqTbCpImngxGXQXBB1wSS/6Wy4fiWASQaeFPsyUyNOUxvi1FW8g/2j4YNJOMnuqPaiK9S2CmtYtwzeUd4GYtZ+TTlbHQSG1RurhHVFqGQGQ6nQxAuNIAc/Zl5Tb/AHSEdQV+BXwhJDjoB/ksWNo3/mKSi0SO0v3XDIbmx+KwqXLFidVhfy3LH8RYR4V99ulYsKq+wnEQ9cBhspovZXgFwEdktCyLdWBSSVtFSV2qOKVQ/NIXFTa0Cq6GrNNYkPMqZE41vjwHIa0iKbVWFGn6ZaNsiTqj0TwtLJddkv2i1CjbyHhJFLr9qVVEl00ICEchlMWmnQvERjYIpUsEtQMtajJMKiyqE0V3UYrq4oFJoydwi+KQmCiWUcWbL3zLZVAreFkYKoiLmVITBB6AolFsCdRAaayhcWz7wF4ivaA+sfdLABhPqLGJdxpN7ePHoMErTw8MxxHwWLWCsPfjbqRYR1t+/ZKQrpQiKkKyhr+aBSlPgOQyQE/NCHP/ABhtxCX4ZAuB8dZtJgjsfsvj2W+4LaNVOSSImYtGIj4DlRdJB1l4XRt2r8cip3uqPzgiqMuUBvWLZ5BhF4UK84GbdjVoFqoHqzKHJAYEO4OseleDicpjfFrRLSyulxR/DFU6B2k0UCt4rsIcU9vZ9gkV2QlQVUmlpERgMforGmcJgIhoiPQcCbLw3zAV3hlCzX6IZfyneHdWBWaKkJ13DLABSFSWYs/caFNRFCrPNWQOoPvdJcAtrXXp2VJ2cluERvVYNPqbP/VlqNzzbg1t2Yj7gj3z8MEi2lnNLhDqAPqSBBBSG0zTglvCY0qkFfarKO8X9QB24wKzQhPvDGpq1hpOhyuJpD2XCZsHeOQArzzTujQVPis4RblEsFyLhPvnl1oRJUtMWss+4v4rk9aJPK2tDwe0f0WcWtczaUHdzuC+tYeZU2/dMcRgHEn8MeiRImluw1c29wvhgYxuFqMdoFiK9lFVQgF0kEimMWa0g6smhW8takULZZCm3Th97yxEEzEhRu+eoYIuteokUt4pY9FOuy7qIVG+neg+pag/qgUOuo09Zy2AZYjA/UWXvVltKE/1loGWjIu4MJ0kS9M0V/yWcbRdSof17NssjWI++t0Jgg+aTuk6VNZcIznC4uul1zLiJeguuF/kmJeVaHhvmMJj5Ir/AMQ3RtEkqTsmExtQUjUuThKP69lLqEPLCY1nopTE++WkXzy+3pEk0hocyXxbphm1qMuWFtinP/GBfzX+MNmbzOnFutRq4Z9bSan3cgrT9IshleBcsJrEkqTsn3owyznmSuuIT4ofsittjdVpFO6ExTR6wx96UcIjVCCg0NTpAcBnhj0GrnGi9e74Qw2brD4+6lxwWg9a6O4A6ggUkiD09okNJR3kzRr2bdstlVRGnmKa+aJZInthSzNja5nSxixVtMMHuk85csNN5xRHneug3QstjQuHQ04szlaEIlTppIaCLJwWqbJRzjTHEwSs/wDw7Jrk0d8JrEkqTIgzz7XfaKmCW8DAeoXKuXiPRT9Y4tfz89tE0pWN9KlIS7J452Fyos7wNShMVJ0r420DTV5856IOyIZVdl2uvrmw+axtIB0vn5l36mytb5oOJF3Ui1PIxZg4s0N1MWRFZsYcw4nFoLyKVD3G271p8ZQq1yLdaszdyQ4CHalH1dRsfXNYtKIRum0WnQYoMxFZ5OFos4XyTJsHOqXZOdKYwUSaK7LgjFt2bJOZZ4APYOSYH73ZG+tXWlC4j0CKSmL41GI7aZRilLAoXYJotYZpBq0ey8FlHQ/MvmUxddPRAB5ljj1APA2lw5W3FbVeGY92CDMsBVvOleZRYhUAdLUIgOm5DaJKytHjWusy+CZNT1qd+tIdotpdPJzAK9l1fS2MU95FnlwoeDqFGCi81oldxQkGs1AmlyLqgVmijved+Dg9kXXS70GEWbDzGm07owqSqKWbItHe86pTQ86NWGrKU1AFFc2VGyrvdlpvDOojlE+gU5I0I1On7qJ0ASt54t0AG9YIkMkMsX3ae/K4U1dEv/TWTmXvnwJD+m+7wtAPUDwSLMKvvIR6iRuqRRNFtj4bpU3NiUCkkQcnNZw7LLrG1iPvJC4iWsS5VuyiK0M2hrRK/iyJh9IYKki95MiJPSd8mPzWOKV/m53oOTaAlSY+8ixtQux8QXjCYaQIXQTXn2tASLdmmHnddOZyr3yB6oqey8Lrq0flTocb7qN1fBIQkbbZE8CdMsPVjH8OmCqT5LJrOOX4JMlSCdV03mg0CEmy65TSc1h8s48vt1D4J0FwQRxjqWm2eAf0w8cVgU+fiUEN6cq4pGtR4l1wKTWkN2Fyf+3Hs2pm0F12fAS1dGV1D4X5JT0GpuF/j5z25NhGNxfGNaGxo6XMnY506JCo/vH2Bq2PquToJijrWkNMJqdHRL5+cljSOX2p2TiNKUjkBByLFSM2US3c6WJQ3a0NZkWgEpTUZrOUFi88ekZl7flHhIhj75S/RcrC6bI6iI+onqVYtlpR2XKDOMFIGBHgbG5PXj0eckGPZk+4Dsw9doxwMYJVzdqSdwkRYFkU5ufgG+LcuZbUd8RxUY0GmGAEb6A1lF2ZF50sXT4UgbmGRFpSkA+cccQEUgepHrRYiAzIt6sb4/iKmjZCZJKmGUk2hEOA9k/tWxK+hrItQjxEsSUc0NtDOUyLziYJfTo5ffQuyeFdS/JMrRSzoB3CLdLvSgUkiDBJOkwwIeK9cnGw7nP0KNouhSXzGCWkUHeJYlJ60DusJqHjhMSLeJcVLxXp87w5f/bj2c0wLaK4oXikJa9BBi0JnnFX1uVQ1oPMrwlshmyClpMN0jnBrN149ZGUVSVAMVn5xwUJPJEpCUAwAknyhdRNDnBic7xSlfmnZNWeHTaEuIuhqtdrH9hhNZVLf5slki0ApQiS+tJXMpFIq6Kk7J9gyfTBJrmnxzZ/qiwKyU2XdICnwkkMTVkWhBS0y75DCJJEHd8xy1OZeZlO27CYNCWJz641ebTGbrVIjk4YVJSpNSROybj7WkBQayVSHvhtEsboMkBE9pRgijuNbakhP1LaS7Y95fN/akgxrE2hQSHKSTkDpUl2TxzY9NppXm0LdIW70hpk0BOcySSDAJJiygeIAmsi7xrevmeVksvuKPbSSpNMFGPADUR82q8C5b8H0Uuyj5N4fUY3y8ItFqMwhsUAU9g5Nfknc35vaWdQpRwujp3ZZykTGn+iRsI0vTsewLUCs9JcEhv6uzM6xE8FMsBRITUI+a5Gkb/+WXldIe2rBahzi0xSsKmWSxSsSiUTSFWECddGqerJOFG4Mwijjrqn2nVP6VEolEolEolCJFJRTEoAFNaq0GchgJ0+SKtKopKJQnGNMfZOr2Nwa0nqWn1wNyVajHhcS8cpkiIg+uLWKi2v2QYn68IdcUGE5WW6UhsUBE9g+b2HanU/Ycvi0Yufov8AtVOyO3NWtj+k5sLdWBshvJVwm3Uix/EFzIJ7g1GsKGbsrXI3r9axLJOJ5JRKJdJZJQjQUoIxOJxUujnRpL5f/ZwiFFXlhSRCXlSCcRFSENJqO9KDJBVfVC9VIBxCX8voE3EFYVbpQBoqwZoM4rSj4wLiERQ4aCUvehDGgfbFSUS9cK4iTHegCQk/2Yq4aQwJCsoNyjvlPWMbBAVj7wI2jSsIqlUNSdb0DPBZIVQ+1YqRZhJSHqwJdZAlvbyLCzkl9Iwq4UOqP6JCEt5FOHCoTTEyGooRVIEO6VJR3kASqH5rKCKgdESp0oElNFXm7f7FhHF0yrplT6on3qUhCIZ4wpKWmY0j1vGFX+qFQwbhIonPveEARCKkCrCqq+hdqEQwhEUy94oqUZVmU+qsexY+9GPcifdqHS9AgsipFrAuGDVVVBo3onjXQIlCpiM1j75Y24wuC0Af7pGptbt71yjjIR//AGiapOgSIerE1WWvvdv91YIlVKhJdWEfCBVR26xiqarfVKZRUhzzejUNMLdnUBaSRRhCUZFeWIwq1aPoUZUrehaXwjRkvNDZig1GVWyBJEVRHvTljCkinpS1y8IeOZNkPeEtWMPEhCHL6BbOQFthV0gLhXhh0qhb5boZKSmnFE6jIoePQT2DDSoMhv8ADxhxZmsLKgRu/wCIZJBuv8PGHimWq75dv1yJKYJZljOGnqNEfZCPSOVVWksodcr0j3roQqUVC3oBylki9UMuUSbh4qz+P/aYqSEhxxBNeUcYUHJQ06hknsx9CEsoA0XIpJCf7OVZIiRaUXMIuvNBi5CuqwynKDdMKpz+M4V8zaxxECUpFBghHIML4pSGfIuCW8JjBp5azGeAP04px+gjSsLMp4AA9935JFudV1VLhDqJ7EhpFZVPa3TBvnOUsAcHTl4KsOOOGS+0lhXCesp+BtuKUNHWHgYFrAv9mgsvpD3WSzz3R70CkkQYFJNoUsXT1DFiL6MyHgNKTX1rBLNfj0ObXFSFPNrSJTHeRJ9vFZE86erwEcSXUkWAAbZHhqJCM4FJVGZVERcUWtsFFAJf5RtoKoQ92fRsySrLrSdDAxKB6q7rocBp1fQgGhqnNTFlBbQ98Bwi2CIGqHgQiKlOPoqg2NRUz0lFafQmyCSROuukpERZFhu562kJX0lqanA3TFg0IhjwMaugqJoiXkzEfanb9110xEi5qINZIkD/AD2Q64F7FnCYKJYdC0uIdmeHcGr6vhVFhVnSuyN6tM40RcqpL0ESyRBG9VWGyUHLWm+6o3oG6kWXyTjomSFTP2Y4wiaZcRLisKMz0P0gFSeiVQ9bxSHBZcH4EENDmpOlgDwYJV3VT0ECyWkzqPKmIWcdJ0vgkoTBBHCNoklKwveZ6zR8pDkVeuDo1VD7bsniSZwPmnbwKg0IDVvNFwUpKUeMLywhUPWcixzBFco8CxbGzYNPxJKEtAF/jBJmW0AdYZylTv2JClJGiIVIauZUlk+9p9BCt/0VjEffWEwTpElyERoI/NfQX2Dayy7DtRVF+XLqtdn6yhzjiMFc40esTTUUKk23Q1tOpu/pDZTBC10rrGP7rBVCPvYRrE8DAvEVu7c3etltEtIjTUDksY2q6aT+SRiZ+AiN6+yM2AKqbRAjnD7UjQS3hLAobYQj0d1BSalDQgy+1xAldaRahAUWnRIHdAVmKw7aXDBowNW9ECWSRutWVNGrmNfQWyubiwWFXWIy4RSaw53ilgIYAJd1IFEAGKu4OtfXFSyGmZGRcRLFM62Z0nTxXziem2DuiJ/FdKNhU3fOF3yBJ+gfGSZeGygg5LH/ANMFHGY6alDr5vClO7nFKUMd/hdDAxgHVsxrzISEnwixFN567EzJLvUkO/WZoyUSAl10qkAlRWd3D6QCbu8kAsxIS7aarnAVo1FCwlQU9KLLXmwMtEnSUr1KXV2QQopDVjSuroThIU0aMXZXutEV2kiaSLDpA4jxF9U0BCRSEMSl6C8M1Gx21LUpfhGUKmPQ4gGofmke5VHMNXoH7dpZZE67rpYCKeuNrzpZw/mssj50NtDrMta+pICyg0AntEscoqqIrpleZbbrhhMM7Urxj7s4VMYxWwGX80OAu8kCs0US19s4mnRKG0lMJrQRDIZFLIdpkyXDmhupyg+4iqU6tJJyp8MMglelo6xEacvVvjnBC7cqyREhgVdVBHrFo6vGE1oWTabBKJj8Fj7JkYJ4ENC3ZTyLggjiUIXWLYKwqT6+jh7YTefLN/oscIJSnoHwaNKoSzA6q1aVUy8IfKaAHWAmgwSpFizNADCtahKpJr64nfU6ajTyyTovu15poFzYi02OsYK83XSxMuIsipconiMGt/0Yy0g9xezsN1kKas4ZIUv0hk8yYIXf8n1xiYG4J9ZEOpLxJOrApSLrRdU5athZCuF0SSk2iXiSLSFCoTRqJU6lHSxTKZIMy3dKGzRcyDQpIiTiVZZSJEbBkQFswbHFTKE1CGHbVwRIW7Pl/VPh3UhB6jLSUm6XDDuCgSoy0hF3Klh1JG2uxYYYU0ZO4VAlKkFqnpDFNCGbq90dQyuj6Kh67zNZQmCDkNmhJCVNQwmJ5o0cIR5kSLaLjSFaOrpJKfk0n7YEqkF1gqVpLWPoHmFRjjYJW41fSmNIPxDdkN3MmmaJSExUrtconORaxnBFRWfdAeIsIcFQMSBaSEvbGtXXdAY8c6XQ2tWxFDs28k6v2ilTTOl/K0U2RqDOzExHhmk4JZKhNJm6RPUVyLBdc6CQhAtpDty/bjW3+ccm2HQQ0Qt6GwQJ8ywi4wuoR0lj7c1Ie2qskRIVJLalHujweOuBuos46NI8RYDGphkeoA/qUOKgSdn5G/niWiLppeM9sJha7O+FWltzZJHMKQQoVJbw1YZRBBUuZdeRqZPPWp1pa7t0ZynArNEefKokHlw9BbBfRHk/yhMReaKoY1iYaJiXKqRZkQj0telqi22kDIfumVJfisOoiMsfZNjcnrxyalP+UBR98XQ4vpA9mTrLSaT+UKtFeio4718JM3AAdEQBcFIothq8qjwhgHxjiIqS+Sw64gKqe9ArUhCeCpG46BVAXxSFxaea0TH9xhxrOtqR4lKY3yugrWbCqO9IkKLASvOOgWIi6VKJVtSE1CCUoMJiLPWeP3RuhNQilKD2xdSQSyV3Ybv7DAppoG8HLsidyi1Mh9V8MMKo1SwqKlItTUs4Gsh1Q6szVSwGewUgCIHArSnRUb5eGEbDYJWyyZxGXEOdxiRXLslGcR2m/aN2RdSDCilaA6egM9lKeg+azjE8InpumQ0kLCahJfnDbhm/athHfdDZLMR6wkZYKV0siYuunogA8yxxlgHqFLo5bQWQ1kgjxQkf2rKKvF2ZOKFxm1ooXvJJYXqK8c7/AHUyf3ZUgHzVYnI8yYrhtITvGGxoB5g08m6Kaqk1ZE/1ABgYf3R+aRgYFumJXoXgsOtA4qctSQAoIoPCgwKTcdLdANZQpV/RmAEXKE8SUtJe27RkpS+KJCJPPCaoNQ7CFYPr0TpIS20rCLoEIlUglwzWDPNtAW7ooUyhsaW2hLdqxy/a6Lwjykk8iNmaqPV7qFA2F+X+GRMQaL64/dCNgilKeg+MrOIjFRTttoDdTdnA9RniLi3l1QXUs4fsPhisOFLNAK1EewAFEiyln3DLhFuqCWagRfz3ePdTJwPijw5PEzEckuqbpaRz9SS7OayRUaJBqHxFFySnKs0Gr5wSzMzLEiXJtKymJpkRf7yDFlKgyHYY4GPrSLTY1E/i2sostjVT+Lixajzjkt0dQD6o52Q7b9kSEvyhDoU0IbiFeHZFocpOidVWjdjA4KZaSiP6RtN3S6E5Z4JUmwvgaQSSNs9YGmohW4spLJEHeg0lIH5kTstponoCxgtpe94W8I/iVoQC/wDE3UsMWQ3Ze8ZwI0IR94paoUqkEWgoCnZVKEXQRZU1S2jC6INhVoiNWocS2wvXfePV/wD2CQQrQ2oYtDViN/thttAX8uXa9ZdEh/AuTds9l0yq5luyL9rQn+PZ3JDJNlX7Qyxmm19RvKM4AG3pexs5w6KsvJ7jlK5AWgSZtQiMz60s3JalyJ/SsqK4S/GXR20VMn23ahwuKsmmhVyyVIWExdUcB5ek6qqzagFaazAcF1VpDTf0tn3Tbv8AiiQzY3P1JBRIbOs3iHAnzHEeBITdzCS7cxpvPHsEYsRqEx3X3BvX1JDTaDPmXXl/aF7teAeoUyLC4lxCOsnFuHwjdN8qqfdS7obHR1Fwkl0HcbLo6uXdWJadFVVM92eTxz5F2ZdQjesHeDLWp0x1mSZR0Hmi3gMb0hUkr7YSEkc4x+aQqJNA61M92LKSOOFq0b5LCFX9Gs86pEusy70uiqyz1ldlWA8QqiKMWpcw6nMjlMAaH/j2wUmZl1RAU1kS3DBP+UtJlgr9OAjuQ2Cqy7mpiiiRZwKSh5BZeXlNm6qHVQ0MOrW2Y3KOU1pFE8VjYrrxF0ENG1N2ykomIqV06Sh1KHmT3DHthJOpqSkSDsKL83ZRlUjDNSYCi6RJ0doNdUfeXKO7/SFd4u9sh4ps2Wke4GHtWfSRJg8G46OsfmkGXk3h3mj1j4Y5NrdqG/8AMnZm1pX/AKgqMdl8YeSHRq+UDei1BnBpXXDl8iFMCpgsFApEXyWNrVqBWyhXFGzaO8A9f2zizggZrhJBxAu8kDMrG/4ifcLwWBWYr7cplKfKmuH0oO1GGkJmJYNDiKLjDgI6iifNDCKyv/46YJ/6S0nuPVQ3/wBHaUH1FUCxaBzb4ezWPinaQWhuho9B09ZkUp7EgDU2X6VqGk9FQdHZBug08Nna0TE1K4yGFsblmWR684zdDzhPPWdp0qqxPdHvZd9AKlkC8K4FZ02dpKWh5tZdAku0U0wLhJLo3wdC4yEdbZQ0SEK+1Oz2VlX3aQxIhbwSHEJt4eYHKVyE6KOF7IcGaIe9ApIU6AKgkW3rYJ4wpIUhaxvHG9cgdcqiuAV1Qkfw+ZqIaq2yv9qRaFzBp7HKYFxF/eCdAf3gXUcL4N1Q1ZTBv8blKQ859Je90B0KofXyk9VFPUp7solN6y7Bd2jApNH2i0gv4Vv7N6nwgZo4JaxFR3k1Q2kkAmgUTIv3grpi6ZUfiipJGZAg6KwwaOIDNlGojIhwy2huuzPgeuvST2LFjtKtt/gwg2GTX4ygM2wnxFIRV/iFpq4esiQhVm8QaQlaVwp4E6LaeUaL9w3kW5YTqkmp0NoF2dNsosyIppmgpMCArlEqYJ5DMxK0I5UWwhSGzWQkbwkAkQ71OEWdaDtb0kIwr1AMSSteEe+axaFCxtL6s5pwyh2t8eUipCHyrcNSBSUigF+tZOUzEd9uU/FIFcOEk1F4ZR6iABVCxPeJU0tiRLDNOiUWF1WJlxCOgsfxBqhz/wArNN8fX2Vffbho0NPy9jQqVW+8Z92pLpw65I69YOtvL5QS2pFlVUbUtRC6N4epYal9MAN4hG5wfFIoXPAVCNi1hNs2ySFcSq1MgtIO8xImknRVKhqd0j+V0NrNpeYCu+EIqsmv+SQaVTQhpQgMcb8rjaH/AJQjcv8AGFbQv8oVtACrVVSmEMMG6af+RZRajuAuABuTIqTRRjH6E8eA/ZEvZvvxyMvq0w6WuoB3oJxVszVJXUt4QRKYNVY0ASyT2Q02gKXNT0CS4hPuwxbXBBOVCqi12lx5PgSyhoEBPy9PD6Qz32S5u7HeTaK+Ird2cr6rJatIPWmKQ6RutjVjSBKSJFlZAGSddLNgBuainCLc7anyVw1JdwINNBrgYHuCOXadlNWy+RZLMtzpahJvAyLZKawreaz4BjWEyzZyWcoN8wtLzQKo1iUqEq7qQ4NDzRbxJr9d8+i3oMWrgdDDS24pBddp0NEwLxFexo1nDsboggUlTeIFH8URTBB4c4lYRb5uWC0F/YOGkvNpokzoxrQSwIDxQoPrutBi0e0w6HBOkfkkNlQacqw6AOTHdqlHC0P/ACvmyFDRC1FIvGESlDTEHRTdJOy+DSEZZff7DuuzpfAfkfZ0VJyakYVJk+yeEoAquvpPFLUU7ugOLrJjS6HwvizJW89XhSOr1rArNuy8ZL33fHBIAa1qdKkYkiTs7+kI6O6qKkNdceEt8PBYZGuykFaVu16rkwXo6htLGi6PvBf2NMdLvRZUkaA13H4bVLyHCposC8Uuh24C2jPDXrhuVFPDTdCYyAkEx9RCsc2Tjd0U/WOVMpIqIWaO8h2jPX5zVnR0mSLsvK1mx+ZZfB0UcHsP9l9cyfyXs75Ky4pmah9bpaIokhSHH3Hl/KgxY7MqmQ7tbi3QSzWp1kZl7ypPoil68M93wwyKk9KE3yMnBHpp/Snm3R/CsbR7Gt6KkOHcm1bMRYF4LFpBEeaLdMCjrsOjwiXULxSExpMaYwG02fuPD7LihFnHhZxqH55U/wBPZB65+ssBhNQj5zYdnJHP0SOdKuybDfNXC+SZecFbL5jDfXTTQSp9nYOIRqH5pHMCdmbWVYi8RUFwki5DWSRtErOml5jhaLNiPT5xpjja0C+adlYJWXw9RjFrYbtC2Yj6hEUhWglhEoBSleXgMCqgZ1DSbTG0fFYqV36Kp6KWgS276QnUUjNP2y7llaJW2gHzvMNMeLBKHZNoWUUZHLtJh1C/RYJZIlZUjf56dAaDqtj1snONMcmj2ZpUmboFmzIhKpFApTlDTDDK/GRRbXVfUS4RK5I/useUD5KqeY4XZOD5jYDpZ0f8+zFhTCpm3P4g00V1a7g4TgBkbtGIWZNQ8cLerleJGusiglvOz62vEm8njTHEBKJeZVJyLUUYKjrRUqUthY9DwztXY+RKo47QSvLl4X2VGPvh88nds9leVwauYlll5HiHsvEIrKNpmNRF8Vy8LpZkv8oUtAXbyZMU1X3dKzlQpUd0uGFwQmgzdQ80ujVL600b/fLxNErR9mFZEiFuxSiBarIWiByw8CSBSSIORMWnQw9hYFDdpbD3xFy+koX9I22e1aYeaT+qwQ6XQ5wEux8T5I3HKlOVVlMhdQZT1Q4knGXfpAaJee1qAEhCPLl++Uuy85oPQ+yNHIlehMOo57CGUunO4SJrOEUt4p9HneGF6jpDKZBwit2TgtSaH5w7P/Xs/wDNa/cY5srZKB8pKOI+C5ObSaIvNe4nQ52R7H4Z4S6GwhNChpJBbWgtADWPEKdZPPNSJwbh1FVE2AX/AAh7+Ig2C+xumEVVEmqriFSxTsv349D2RTJGjJnTp5lvj2J0ttM2S6O7SKkRe7KP3LiLJsNgkcGPB1Kuz6hX+ayPKt49HYbBZyOcavM+xOh9wPY/vaehzOiMa0qdFsh9RIvnimKyERu0YIJ/5QLSIqjnhFRhEkidl5HxLoLrE9EhhNQiCjTHsTokeaQintic9SPCPxTo8jNI5eYY+yJR7PuPDh7CwKCxaeDEeXWPQ9xY9xPM+0R6H3A9j+wdE1+Q9AVlMmjzg+yaRustGhEXxknnvfQcn349mQqaRDSqn7ITBRPSq6HuLHup0vALOU+j+Aehyvl2hP8AVMhrH+6PdhMRLWJJqIdmXVZrKKaZlsIsBj3E8zzOiPQ+5HsfgSUwuKOsFm6veS/KuCCMFi1ZGnhKfrc89zvFk5CznZl4hUYXfa8mXQ2k6NP5Uvj3E6Xi6Qsj0faBdD75e0mM7LavExHAosSBamS5aVmntSP4jIKOIWsVWCSt58yX9BhV8OnOEVIlfURodXyiUUxKJiVQI0gz0cOyAdTbBANIOuBsLAlgVmijBFplwiOKl6oc0XrYWo3U1BwwnClSRzghZJQsTyyiWS7JKCG8qiUolAykRUKOl8ez7WbZppT780ykskQYVJK6RNKJWoubBuPcToshWo1lTWXCPejiKp4uj7g9DmeP08qTRUizWlxgPg2opDs3nU95ypciwIoiInD6GRZLabKWkQDxit4xaSRhwC3SRymG3EdVfY3UsOjm3rcupCHEGvmsIkkTyS3R7idLwaaER6KAskI6JCRRSsSiUczql/upxtDX80AyAl+VMiLStJpSsEUykCUpOJrE1ySiUSiUSiXoBVkiRnEhCqKmEXSSJ6UvVE7yid9O2EJFFIFZosCtUihFqlzQBIpRO9B9UT0k9n+8F1pHdRbtKFWmQyGE5Uj3KYTWE7/lHCZwmKBJJ5NVQYj8YRb1EpkIwKlppKrSj3Qj3R9AEuFOIjFS4Eq/KDeV2Q7Rqh19VQk74kO0fRGuu+75QOJ1J1fjDZLnAE8CLV6E9iRUqaUh3YmpSGlC70VJTjThjG0SBYXWAnUnyWE/pXT/AFjnhN0o2JJY23LG3RGPGlPQG0HYTUIaMPErypyp7Y1ILuCiPohN9p2Nhd4fQt1Ijd/xCyklMv8AiEloDKnR+Ea+bmhZaYmNOlCdVR2+uDl3hpg5TRDKqmBlesJ1hLUQw6UwFdUNLSpJsh1ZmfoAUnNQndAoirow8iSSvXowapSK6qvRE76q6urA3kGJaQ8KrAEqmaNYDL/v9//EADERAAEDAwMDAwMDAwUAAAAAAAIAAxIQIjAEEzIBQEIgIzMFQ1IRFFAkMYBRU2JjcP/aAAgBAgEBPwD/AMHioqKio9g7qW2eSL6kXi2v3+oTH1CRRc7I3mm+RovqLfiCZ1hPFwgCbdbc49kI+qOZwojJdC3nLkQxtJDGVyII8lptSYuNiXDsNY+TLdqIjfJbTn+2oF5LTGQvNx7YCkMqll1h7bK0nyJxkXuSLSODxvRaQvFxD/dDx6Z/qI+2BJsIjQm2y+2hiOpbHw7EaEQjyW+MbUT7hWppwmxQlIbaFjkhT7W83FAzsoiKNCIpXJtgv3MOw1gbjMeiHlaiV0fkTTcnmyykUV06yqKIooikrZUtitMRcaFkGgvi91coUfFdOSDVEWpb/DsCGScGJIY+VGBtymUrU2XoIpIbkQxQgX4UZGI0LGURU4ohkC6SZMCXIZChNPCQt28zWk0xE7LwDsX25XIepChH8sxykgscqVGxT7d0hQuGKZCRSLN0uJCNNhuUl+mzaKmSEN72yQiIDEexfL21Il1IiQlIZZXxkKG5ypkgFSWpL41uEtMXuXKWUrXEwPlQgKKKUrqaYZOSURRBngn2nJSUUImXFMNODyW2WU7XUJSoSHiiIRTpERXUEolJC+PkuhCWR35E3xbQjGmpalcNGg2xjUxyCMkIxpFRrcuWR/kmCtiiKhEXGklEVBbSjtlahKQ4yYbIkICNvoFtuUh7ABt9JEI8lvtiheEijQ8b42yQlEpLqUrsLRZfLAWd93bFE4RIVphukKJHjMZDGgFahOWBvllHAXLE3yoSknNSIpxwnCkVGdNK5xRjQ+OR1ryFRQtkJXIWy5eoUI4x408sBcsTfodGLjiZ00riQMNt8a+SPj2ooSvxtkiKKHl6vKhcsQcaktsSKXqPj2BDd6IkhbJbDiHjkHl6vKh4mywij4/y24S3FuEtwlMlIlIlIv8AVSJfr/iXqdXt2jzW46VxOInnS+4hcMeK0j+8MS59g6+2zyTurJ4rXIAuj748XEL74lLcWm1IvD/z/hi6xFEUjkSYbiMiT4+3JCK0ZRe7DVkL2ogi03txHmiacH7aEXGyjtrSlHUt9j1tROFKgkQoCl2L/wAR04g2KtWwQlJtbRN+4mnRdH9Rzutf1clbQiTbJFqtwuHYu8URRUiQkmexcGQOCmmRLrInESlR9wRGKYdJkpChISGQ45KVHw8lJRUk0MRzyQoxkK5FSNyaj2Xx6lxDaSjHkh5J35HKaHr7OMqdOKIZDFRuiSiSEZFHP16qV1CGSK0lGjYR7I9NvPuEhGIp0ZcUVtqf+RxRtktGMWAxkNB6Ro+IyUf+xMRlnKnTpR9uJSVqaCRdmSM4jJERSpqW/uLqVrYoeHTGZiIrfJNui5R8pFRkouZyGSkIkhMSo78akKYKRdkVCkRWqJKJIWyT2l8m1pzm0GN/k2oimhubURTmkEuK/aOJrTC2UipAUQxyOlaoptvyUSTwSbiNGRInLUQqJYz6SFdCIeK3Y3ISlQiurJSUqNRx6jktJcVyjWPYOjIUJSK5NjU2hcTbYtjbUxxmH4qP5JgrY1Lj6myiWN8vcWl+TC5yxiMrULDY/bQ9mQiSEIkhK2NOvLsXCkTiYKLjeAU5jbxFkcGNOpIvSVB442+baEpXesU5jbwFRzlkLpIa+PpKg8MPWg2ktJ8frdItxxMccbeJzKYSW2SJu21bZLbJbZKJLqJKJIeOJ0Ykm2yJM220kKkK3BW4KmKcacIkyJCN2NvlQijgc/ltxEUluLcW4txbi3FuIil/kB//xAAwEQABAwIFAwMEAQQDAAAAAAACAAMSECIBBBMwMiBAQhEjMxRDUlNiIVBRgDFBcP/aAAgBAwEBPwD/AMHBoiQsfktBaQxWgXYC2RIWPyWgKcYjx7IRIuKwYJG1EUQkPZNtxuKoqNCbEh3huXxjbQlKSNsY9g0EiQxFTwUh/wCkY+32LYSqXS+PlutDIlj9tEEeKn+SE/JF2DHJAPkVICnMLT7FgraSuRSlFC0KLlauVHRkO3FEmyiUk37hSWAjKmAiQ2oj9vsGiiSHCLdyGMbV6DLgnxt3RGSIY1ZjJOFFSKSujS6SPlbR0ojuFRu0m6DLyRFEZIgt7ASimik2i9fGj5Sc3WxiMk6PlVvkiKSEbkJSGSxIS80JSXIpUeK2O2IkS015KUkBytJYgKMrk65b2LDkSisQEuSIvEd5qMbkYk43UVG5B+SAo2ko/wA1iXiK/ipJwpFt42jaiLmiuUyTNw3KAp+25Fd2OXGTi0xWAiKMYlHdYOJIh026gKMkLoxQXEoCnIjBE6IoiluN+42CzJ+KIooXRkgjG2mbOLcUJkKFwd4Rkha/JNE2IqQksSEU7FxE2W63jqNIhiVBwiKPkhZdLiCaERG2hDIYossQ8UQkPLcY+NPcjRFKmUfj7ZIiiMk+7qOetWy8dwRkhGNIr0rcuSIY7eWK1ZluJSQDdRhkYy06YsiVy03B4qLn4ItQeTaFvUG5PNaZR2xzLzYxRmTlxVkiccIYk4iqPLcAYj1D/GhJ3byxXRRDIYrAY2qMvQUIxDrzo2gW4PFeOwPHaHpEZEtIUYokSd47bZRKSEk63dJAOmTZIiiMkPHqzIyZPcEootgOO03yoSkhEiQjGhHLirqO8dxh7xJEQqWpxRvj8fU59tOPjx2y5U8erxo3x2maRoHxojlxUiKvkneO8JEPFCUTkh6X+KIRjtuD5IRkiGI9XjRvjtNcakuXU7x7BlwNNv3FIFMFqgtZr9idfaj8i+pbRctw+PUI+2opraaLx2RTnH+7apLUxWqS1CWoS1C/ytQv8qZKRKRf6l5bLalxLTbG0W0LbQ/bRABcsFm2NMpD2AgRf8IWhFYtiSxbFGBB/ZhuLBCIiERThSKKAouKSzgyZ7Bq1tY24SUxWJCSdGTfYjhJC0MVFE2Jck8AiVvYs/KFMPuEriU5DFxTEvbTjZNlEt9qRNxUSUVpXXJz2wj2LPyIRlcoCiHyT/h2LZRMCRuENooSio3UZGRSTzQvDFEJAUS3I0YMeKxESWJChERT5SLfwo2USQ2jSVqflLsh9zLtkiiQyUpcUeMRTXxt0zo+9tjQhuQlEpKVshUh/WiKIy3xGSjGglFDcKl40cOXZBmdFpsURERJgojcsLikmvjbUrorNFJ5zbHG5cURSpliKKl/BZiUf6748aY4yplnPUYq5PnEezEbUASJAIxo0UbVgNzhIuW2AE4URX0w/sTrRN0y4EI3UfGTe+OMVAiFE2Q0a+QFEv2J8Yty7IcLkIyKIrS0xuUhUhUpcUJuCPuJ8IObbFonFTLyRlIYqIoXSWt/BEZFbQmxRBHcYEZKUk654qQpl0RekSwx9U+Qi2ckJ2oSEttsvQliIlyWhIYohjbQRtTcptxpAS8FAVpDTONRKW3lOJp0RHo9B6CGSIY7bJRcTgxGQpxynJNPk1xRuE4VyKjZeO227HkpfisyN0q5YJFLqzITaPbyw+2nvt7LvLbIiG4UWZeL7iLoKo8twSIVhhqDcn2NO6jAxbDpEpD6okXLHaaGLYJ3jsCntt0rVLpLoHjuZR3UGJc0QiQxJNZaBSxTX49If0I6OfKe258ZoesU9tu0HoKg8qNcdxlzTckhISGQ0+50hyOjnyObI0K4UfydbYjFZkYubbtB6hozu5bM6VpcFjmmY801mQxcMiX1LH7F9Sx+xfUs/sWuz+xA4F/uLUD9mCc5ntMOSFG8LYpspalJCtQFqCtQVqCgfaEeafMTKQ7bvGgDIugqDRn+7aQoRitIlpEtJaS0lpLSQjH/AGA//9k=;" vertex="1" parent="TLr3A2g5SAvAyeFMiobW-143">
          <mxGeometry x="533.14" y="337" width="532.86" height="373" as="geometry" />
        </mxCell>
        <mxCell id="TLr3A2g5SAvAyeFMiobW-157" value="Deaf culture" parent="0" />
        <mxCell id="TLr3A2g5SAvAyeFMiobW-158" value="" style="verticalLabelPosition=bottom;shadow=0;dashed=0;align=center;html=1;verticalAlign=top;strokeWidth=1;shape=mxgraph.mockup.containers.videoPlayer;strokeColor=#666666;strokeColor2=#008cff;strokeColor3=#c4c4c4;textColor=#666666;fillColor2=#008cff;barHeight=30;barPos=6.506;fontFamily=Courier New;fontSize=28;fontColor=#E6D0DE;fillColor=#E6D0DE;" vertex="1" parent="TLr3A2g5SAvAyeFMiobW-157">
          <mxGeometry x="239" y="220" width="623" height="429" as="geometry" />
        </mxCell>
      </root>
    </mxGraphModel>
  </diagram>
</mxfile>
